<?xml version="1.0" standalone="no"?>
<!DOCTYPE svg PUBLIC "-//W3C//DTD SVG 1.1//EN" "http://www.w3.org/Graphics/SVG/1.1/DTD/svg11.dtd" >
<svg xmlns="http://www.w3.org/2000/svg" xmlns:xlink="http://www.w3.org/1999/xlink" version="1.1">
<metadata>
Created by FontForge 20170731 at Sun Dec 22 17:43:20 2013
 By Aleksey,,,
Copyright 2004-2013 SUDTIPOS. Disenada por Alejandro Paul y Alfredo Graziani. Todos los derechos reservados.
</metadata>
<defs>
<font id="Politica-ExtraBold" horiz-adv-x="522" >
  <font-face 
    font-family="Politica"
    font-weight="800"
    font-stretch="normal"
    units-per-em="1000"
    panose-1="0 0 9 0 0 0 0 0 0 0"
    ascent="831"
    descent="-169"
    x-height="559"
    cap-height="800"
    bbox="-175 -276 1236 1138"
    underline-thickness="50"
    underline-position="-200"
    unicode-range="U+0020-FB02"
  />
<missing-glyph horiz-adv-x="182" 
d="M102 481q0 -7 -5.5 -10t-11 0t-5.5 10t5.5 10t11 0t5.5 -10zM91 0q-7 0 -10 5.5t0 11t10 5.5t10 -5.5t0 -11t-10 -5.5z" />
    <glyph glyph-name="fi" unicode="fi" horiz-adv-x="647" 
d="M529 120h54v-130h-57q-63 0 -109 44q-44 46 -44 108v290h-176v-434q0 -64 -45 -107q-45 -45 -110 -45v130q23 0 23 22v434h-55v128h55v54q0 62 44 106q45 45 109 45h84v-130h-81q-24 0 -24 -21v-54h308v-418q0 -22 24 -22zM503 765v-106h-130v106h130z" />
    <glyph glyph-name="fl" unicode="fl" horiz-adv-x="628" 
d="M552 120h54v-130h-57q-63 0 -109 44q-44 46 -44 108v493h-175q-24 0 -24 -21v-54h84v-128h-84v-434q0 -64 -45 -107q-45 -45 -110 -45v130q23 0 23 22v434h-55v128h55v54q0 62 44 106q45 45 109 45h302v-1h6v-204h2v-418q0 -22 24 -22z" />
    <glyph glyph-name=".notdef" horiz-adv-x="182" 
d="M102 481q0 -7 -5.5 -10t-11 0t-5.5 10t5.5 10t11 0t5.5 -10zM91 0q-7 0 -10 5.5t0 11t10 5.5t10 -5.5t0 -11t-10 -5.5z" />
    <glyph glyph-name=".null" horiz-adv-x="0" 
 />
    <glyph glyph-name="nonmarkingreturn" horiz-adv-x="333" 
 />
    <glyph glyph-name="space" unicode=" " horiz-adv-x="219" 
 />
    <glyph glyph-name="exclam" unicode="!" horiz-adv-x="273" 
d="M71 796h130v-590h-130v590zM71 106h130v-106h-130v106z" />
    <glyph glyph-name="quotedbl" unicode="&#x22;" horiz-adv-x="403" 
d="M56 764h130v-258h-130v258zM216 764h130v-258h-130v258z" />
    <glyph glyph-name="numbersign" unicode="#" horiz-adv-x="734" 
d="M663 417h-129l-16 -53h110v-129h-149l-41 -135h-127l41 135h-101l-41 -135h-127l41 135h-53v129h93l16 53h-74v129h114l38 124h125l-38 -124h102l38 124h125l-37 -124h90v-129zM392 364l16 53h-102l-16 -53h102z" />
    <glyph glyph-name="dollar" unicode="$" horiz-adv-x="525" 
d="M465 518h-130v20q0 13 -9 13h-126q-10 0 -10 -13v-8q0 -25 44 -47l38 -18q18 -6 46 -18q147 -55 147 -177v-36q0 -55 -39 -94t-94 -39h-3v-101h-111v101h-25q-55 0 -94 39t-39 94v89h130v-79q0 -13 9 -13h127q9 0 9 13v18q0 31 -30 49q-13 11 -42 22q-6 3 -25 10t-23 9
q-155 57 -155 171v25q0 56 39 94q39 39 94 39h25v84h111v-84h3q56 0 94 -39q39 -38 39 -94v-30z" />
    <glyph glyph-name="percent" unicode="%" horiz-adv-x="899" 
d="M563 798h90l-309 -798h-90zM296 363h-127q-47 0 -80 39t-33 94v149q0 57 33 94q33 39 80 39h127q47 0 80 -39q33 -37 33 -94v-149q0 -55 -33 -94t-80 -39zM189 480h87q11 0 11 16v149q0 17 -11 17h-87q-10 0 -10 -17v-149q0 -16 10 -16zM491 125v149q0 56 33 94
q33 39 80 39h126q47 0 80 -39q33 -38 33 -94v-149q0 -55 -33 -95q-33 -39 -80 -39h-126q-47 0 -80 39q-33 41 -33 95zM613 274v-149q0 -17 11 -17h86q10 0 10 17v149q0 16 -10 16h-86q-11 0 -11 -16z" />
    <glyph glyph-name="ampersand" unicode="&#x26;" horiz-adv-x="623" 
d="M198 767h146q61 0 95 -31t34 -90v-69h-130v56q0 10 -10 10h-129q-11 0 -11 -10v-130q0 -23 19.5 -38t41.5 -15h48v-130h-49q-25 0 -46 -16t-21 -39v-136q0 -10 10 -10h137q10 0 10 10v355h130v-36h127v-130h-127v-203q0 -59 -34 -89.5t-95 -30.5h-147q-64 0 -102.5 31.5
t-38.5 88.5v150q0 38 24 72.5t60 47.5q-34 15 -55.5 47.5t-21.5 70.5v143q0 58 36 89.5t99 31.5z" />
    <glyph glyph-name="quotesingle" unicode="'" horiz-adv-x="243" 
d="M56 764h130v-258h-130v258z" />
    <glyph glyph-name="parenleft" unicode="(" horiz-adv-x="350" 
d="M342 -82h-142q-158 200 -158 462q0 265 158 462h142q-174 -214 -174 -462q0 -244 174 -462z" />
    <glyph glyph-name="parenright" unicode=")" horiz-adv-x="350" 
d="M150 -82h-142q174 218 174 462q0 248 -174 462h142q158 -197 158 -462q0 -262 -158 -462z" />
    <glyph glyph-name="asterisk" unicode="*" horiz-adv-x="436" 
d="M66 496l85 89l-95 26v104l109 -30v91h100v-91l114 30v-104l-100 -26l89 -93l-70 -71l-83 91l-74 -83z" />
    <glyph glyph-name="plus" unicode="+" horiz-adv-x="525" 
d="M191 281h-103v143h103v91h144v-91h103v-143h-103v-116h-144v116z" />
    <glyph glyph-name="comma" unicode="," horiz-adv-x="273" 
d="M201 155v-311h-130v311h130z" />
    <glyph glyph-name="hyphen" unicode="-" horiz-adv-x="409" 
d="M51 416h307v-129h-307v129z" />
    <glyph glyph-name="period" unicode="." horiz-adv-x="251" 
d="M56 68q-2 45 42 64t75 -15q34 -31 15 -75t-64 -42q-28 0 -48 20t-20 48z" />
    <glyph glyph-name="slash" unicode="/" horiz-adv-x="476" 
d="M354 860h115l-347 -920h-114z" />
    <glyph glyph-name="zero" unicode="0" horiz-adv-x="525" 
d="M204 775h117q60 0 102 -42t42 -102v-497q0 -60 -42 -102t-102 -42h-117q-60 0 -102 42t-42 102v497q0 60 42 102t102 42zM321 645h-117q-8 0 -11 -3t-3 -11v-497q0 -8 3 -11t11 -3h117q8 0 11 3t3 11v497q0 8 -3 11t-11 3z" />
    <glyph glyph-name="one" unicode="1" horiz-adv-x="525" 
d="M358 130h136v-130h-430v130h164v505h-164v130h294v-635z" />
    <glyph glyph-name="two" unicode="2" horiz-adv-x="525" 
d="M196 776h133q60 0 102 -45t42 -109v-31q0 -40 -11 -81q-12 -40 -25.5 -65t-40.5 -53q-33 -35 -43 -43q-11 -10 -49 -38l-43 -33q-76 -61 -76 -148h288v-130h-421v70q0 108 25 178t82 115q13 11 52 37l51 35q81 61 81 156v31q0 14 -5 19t-19 5h-113q-14 0 -19 -7t-5 -27
h-130q0 70 42 116q42 48 102 48z" />
    <glyph glyph-name="three" unicode="3" horiz-adv-x="525" 
d="M461 651v-113q0 -97 -48 -118q55 -19 55 -120v-175q0 -65 -35 -100t-98 -35h-132q-63 0 -99.5 35t-36.5 100v157h130v-146q0 -16 11 -16h121q9 0 9 16v164q0 22 -9 31t-30 9h-68v130h68q17 0 24.5 15.5t7.5 52.5v98q0 12 -10 12h-122q-12 0 -12 -12v-19h-130v19
q0 66 37.5 104t99.5 38h134q61 0 97 -34t36 -93z" />
    <glyph glyph-name="four" unicode="4" horiz-adv-x="525" 
d="M445 765v-521h52v-130h-52v-114h-130v114h-307l202 651h235zM315 635h-18l-105 -391h123v391z" />
    <glyph glyph-name="five" unicode="5" horiz-adv-x="525" 
d="M465 764v-129h-253v-154h99q84 0 118.5 -39.5t34.5 -126.5v-178q0 -72 -40.5 -109.5t-112.5 -37.5h-94q-73 0 -115 38t-42 109v145h130v-145q0 -17 27 -17h93q24 0 24 17v178q0 36 -23 36h-229v413h383z" />
    <glyph glyph-name="six" unicode="6" horiz-adv-x="525" 
d="M465 567h-130v64q0 15 -13 15h-119q-14 0 -14 -15v-197h132q61 0 101 -42q42 -42 42 -101v-157q0 -59 -43 -101q-42 -42 -101 -42h-118q-60 0 -102 42q-41 43 -41 101v499q0 56 40 99q41 44 94 44h139q52 0 93 -44q40 -43 40 -101v-64zM321 304h-119q-13 0 -13 -14v-156
q0 -13 13 -13h119q13 0 13 13v157q0 13 -13 13z" />
    <glyph glyph-name="seven" unicode="7" horiz-adv-x="525" 
d="M476 770l-239 -770h-130l200 640h-238v130h407z" />
    <glyph glyph-name="eight" unicode="8" horiz-adv-x="525" 
d="M459 632v-96q0 -91 -63 -118q70 -25 70 -120v-160q0 -61 -43 -104t-104 -43h-113q-61 0 -104 43t-43 104v160q0 95 70 120q-63 27 -63 118v96q0 58 41 101q41 42 99 42h113q59 0 99 -42q41 -43 41 -101zM196 632v-96q0 -30 16 -45h102q15 15 15 45v96q0 13 -11 13h-111
q-11 0 -11 -13zM336 138v160q0 33 -22 48h-102q-23 -14 -23 -48v-160q0 -17 17 -17h113q17 0 17 17z" />
    <glyph glyph-name="nine" unicode="9" horiz-adv-x="525" 
d="M188 202v-64q0 -15 13 -15h119q14 0 14 15v197h-132q-60 0 -102 42q-41 43 -41 101v157q0 59 42 101q43 42 102 42h118q61 0 101 -42q42 -42 42 -101v-499q0 -55 -41 -99t-93 -44h-139q-52 0 -93 44q-40 43 -40 101v64h130zM202 465h119q13 0 13 14v156q0 13 -13 13h-119
q-13 0 -13 -13v-157q0 -13 13 -13z" />
    <glyph glyph-name="colon" unicode=":" horiz-adv-x="251" 
d="M124 365q-28 0 -48 20t-20 48q0 29 20 49.5t48 20.5t49 -20.5t21 -49.5q0 -28 -20.5 -48t-49.5 -20zM56 68q-2 45 42 64t75 -15q34 -31 15 -75t-64 -42q-28 0 -48 20t-20 48z" />
    <glyph glyph-name="semicolon" unicode=";" horiz-adv-x="251" 
d="M124 387q-28 0 -48 20t-20 48t20 48.5t48 20.5t49 -20.5t21 -48.5t-20.5 -48t-49.5 -20zM187 -156h-130v311h130v-311z" />
    <glyph glyph-name="less" unicode="&#x3c;" horiz-adv-x="525" 
d="M97 413l217 250l106 -45l-182 -205l190 -212l-105 -46z" />
    <glyph glyph-name="equal" unicode="=" horiz-adv-x="525" 
d="M88 516h350v-130h-350v130zM88 316h350v-131h-350v131z" />
    <glyph glyph-name="greater" unicode="&#x3e;" horiz-adv-x="525" 
d="M287 413l-182 205l106 45l217 -250l-226 -258l-105 46z" />
    <glyph glyph-name="question" unicode="?" horiz-adv-x="499" 
d="M171 806h158q55 0 94 -39t39 -94v-128q0 -75 -38.5 -114.5t-98.5 -39.5h-29q-14 0 -14 -20v-176h-130v176q0 70 37.5 110t91.5 41h35q16 0 16 21v126q0 15 -11 15h-143q-10 0 -10 -15v-100h-130v104q0 55 39 94t94 39zM282 106v-106h-130v106h130z" />
    <glyph glyph-name="at" unicode="@" horiz-adv-x="818" 
d="M331 634h148q124 0 203 -79q80 -78 80 -201v-138q0 -49 -35 -84q-34 -34 -84 -34h-166v49q-116 -61 -170 -61q-40 0 -68 28t-28 68v169q0 57 34.5 95t87.5 38h141q55 0 94 -39t39 -94v-123h15q10 0 10 10v113q0 66 -44 110q-43 43 -113 43h-141q-66 0 -107 -42.5
t-41 -112.5v-168q0 -50 34.5 -82.5t87.5 -32.5h167v-130h-189q-98 0 -164 63t-66 157v191q0 130 75 208q76 79 200 79zM467 361h-115q-11 0 -11 -10v-109q0 -21 20 -21q24 0 116 53v77q0 10 -10 10z" />
    <glyph glyph-name="A" unicode="A" horiz-adv-x="568" 
d="M421 0l-26 174h-221l-26 -174h-130l125 766q2 13 15 23.5t28 10.5h197q15 0 28 -10.5t15 -23.5l125 -766h-130zM193 304h183l-53 355q-3 11 -9 11h-60q-6 0 -8 -11z" />
    <glyph glyph-name="B" unicode="B" horiz-adv-x="560" 
d="M71 800h261q91 0 130.5 -37t39.5 -122v-105q0 -97 -77 -118q84 -24 84 -120v-126q0 -92 -40 -132t-133 -40h-265v800zM201 483h134q36 0 36 51v106q0 32 -37 32h-133v-189zM201 130h133q45 0 45 43v125q0 55 -40 55h-138v-223z" />
    <glyph glyph-name="C" unicode="C" horiz-adv-x="545" 
d="M56 134v528q0 60 42 102t102 42h150q60 0 102 -42t42 -102v-126h-130v124q0 16 -15 16h-148q-15 0 -15 -16v-525q0 -15 14 -15h153q11 0 11 15v157h130v-158q0 -60 -42 -102t-102 -42h-150q-60 0 -102 42t-42 102z" />
    <glyph glyph-name="D" unicode="D" horiz-adv-x="565" 
d="M71 800h294q62 0 102 -40q42 -39 42 -98v-518q0 -60 -42 -102t-102 -42h-294v800zM201 130h164q8 0 11 3t3 11v513q0 13 -14 13h-164v-540z" />
    <glyph glyph-name="E" unicode="E" horiz-adv-x="484" 
d="M71 800h378v-130h-248v-194h221v-130h-221v-216h248v-130h-378v800z" />
    <glyph glyph-name="F" unicode="F" horiz-adv-x="460" 
d="M71 800h379v-145h-249v-149h221v-130h-221v-376h-130v800z" />
    <glyph glyph-name="G" unicode="G" horiz-adv-x="539" 
d="M56 134v528q0 60 42 102t102 42h145q60 0 102 -42t42 -102v-126h-130v124q0 16 -15 16h-143q-15 0 -15 -16v-522q0 -18 17 -18h138q18 0 18 19v163h-109v130h239v-298q0 -60 -42 -102t-102 -42h-145q-60 0 -102 42t-42 102z" />
    <glyph glyph-name="H" unicode="H" horiz-adv-x="577" 
d="M71 800h130v-294h175v294h130v-800h-130v378h-175v-378h-130v800z" />
    <glyph glyph-name="I" unicode="I" horiz-adv-x="282" 
d="M76 800h130v-800h-130v800z" />
    <glyph glyph-name="J" unicode="J" horiz-adv-x="510" 
d="M20 292h130v-158q0 -8 3 -11t11 -3h146q8 0 11 3t3 11v666h130v-666q0 -60 -42 -102t-102 -42h-146q-60 0 -102 42t-42 102v158z" />
    <glyph glyph-name="K" unicode="K" horiz-adv-x="595" 
d="M71 800h129v-294h89l158 294h137l-187 -354v-9l187 -437h-137l-158 377h-89v-377h-129v800z" />
    <glyph glyph-name="L" unicode="L" horiz-adv-x="454" 
d="M71 800h129v-670h247v-130h-376v800z" />
    <glyph glyph-name="M" unicode="M" horiz-adv-x="803" 
d="M93 800h245l63 -486l61 486h249l30 -800h-130l-28 670h-9l-113 -660h-119l-112 660h-10l-28 -670h-130z" />
    <glyph glyph-name="N" unicode="N" horiz-adv-x="629" 
d="M71 800h225l127 -670h5v670h130v-800h-223l-129 670h-5v-670h-130v800z" />
    <glyph glyph-name="O" unicode="O" horiz-adv-x="550" 
d="M56 134v528q0 60 42 102t102 42h150q60 0 102 -42t42 -102v-528q0 -60 -42 -102t-102 -42h-150q-60 0 -102 42t-42 102zM186 662v-528q0 -8 3 -11t11 -3h150q8 0 11 3t3 11v528q0 8 -3 11t-11 3h-150q-8 0 -11 -3t-3 -11z" />
    <glyph glyph-name="P" unicode="P" horiz-adv-x="530" 
d="M71 800h290q62 0 102 -40q42 -39 42 -98v-186q0 -60 -42 -102t-102 -42h-160v-332h-130v800zM201 462h160q8 0 11 3t3 11v184q0 10 -11 10h-163v-208z" />
    <glyph glyph-name="Q" unicode="Q" horiz-adv-x="550" 
d="M200 806h150q60 0 102 -42t42 -102v-528q0 -60 -42 -102t-102 -42h-9v-143h-130v143h-11q-60 0 -102 42t-42 102v528q0 60 42 102t102 42zM364 134v528q0 8 -3 11t-11 3h-150q-8 0 -11 -3t-3 -11v-528q0 -8 3 -11t11 -3h11v71h130v-71h9q8 0 11 3t3 11z" />
    <glyph glyph-name="R" unicode="R" horiz-adv-x="563" 
d="M71 800h314q49 0 84 -35q36 -34 36 -85v-144q0 -38 -21.5 -70.5t-55.5 -47.5q37 -15 60.5 -47t23.5 -73v-298h-130v298q0 41 -23 55h-158v-353h-130v800zM201 483h149q24 11 24 51v126q0 12 -8 12h-165v-189z" />
    <glyph glyph-name="S" unicode="S" horiz-adv-x="523" 
d="M45 134v148h130v-148q0 -8 3 -11t11 -3h139q8 0 11 3t3 11v77q6 63 -49 118q-9 12 -35 29q-31 20 -35 22l-42 24q-61 34 -95.5 86t-34.5 117v55q0 60 42 102t102 42h139q60 0 102 -51q42 -49 42 -123h-130q0 44 -24 44h-127q-16 0 -16 -16v-53q0 -41 39 -71
q29 -21 35 -25l49 -27l16 -9q70 -39 111 -106t41 -158v-77q0 -60 -42 -102t-102 -42h-139q-60 0 -102 42t-42 102z" />
    <glyph glyph-name="T" unicode="T" horiz-adv-x="474" 
d="M172 670h-164v130h458v-130h-164v-670h-130v670z" />
    <glyph glyph-name="U" unicode="U" horiz-adv-x="561" 
d="M62 800h130v-666q0 -8 3 -11t11 -3h149q8 0 11 3t3 11v666h130v-666q0 -60 -42 -102t-102 -42h-149q-60 0 -102 42t-42 102v666z" />
    <glyph glyph-name="V" unicode="V" horiz-adv-x="570" 
d="M18 800h133l98 -671q3 -15 7 -15h59q4 0 7 15l101 671h130l-129 -776q-2 -12 -15 -23t-28 -11h-191q-15 0 -28 10.5t-15 23.5z" />
    <glyph glyph-name="W" unicode="W" horiz-adv-x="850" 
d="M62 800h130v-666q0 -8 3 -11t11 -3h80q34 0 53 31q21 31 21 58v591h130v-591q0 -25 21 -57t53 -32h80q8 0 11 3t3 11v666h130v-666q0 -60 -42 -102t-102 -42h-80q-49 0 -86.5 29t-52.5 76q-13 -46 -51 -75.5t-88 -29.5h-80q-60 0 -102 42t-42 102v666z" />
    <glyph glyph-name="X" unicode="X" horiz-adv-x="543" 
d="M346 437l179 -437h-132l-121 319l-121 -319h-133l178 437l-151 363h135l92 -274l92 274h135z" />
    <glyph glyph-name="Y" unicode="Y" horiz-adv-x="569" 
d="M421 800h130l-123 -546q-4 -14 -18.5 -23t-35.5 -9h-23v-222h-129v222h-20q-20 0 -35.5 9t-18.5 23l-130 546h133l99 -443q1 -7 7 -7h61q7 0 7 7z" />
    <glyph glyph-name="Z" unicode="Z" horiz-adv-x="501" 
d="M290 670h-262v130h446l-261 -670h261v-130h-446z" />
    <glyph glyph-name="bracketleft" unicode="[" horiz-adv-x="300" 
d="M71 870h221v-130h-91v-680h91v-130h-221v940z" />
    <glyph glyph-name="backslash" unicode="\" horiz-adv-x="396" 
d="M8 800h134l246 -800h-135z" />
    <glyph glyph-name="bracketright" unicode="]" horiz-adv-x="300" 
d="M99 60v680h-91v130h221v-940h-221v130h91z" />
    <glyph glyph-name="asciicircum" unicode="^" horiz-adv-x="525" 
d="M224 795h77l134 -158h-115l-56 73h-3l-57 -73h-114z" />
    <glyph glyph-name="underscore" unicode="_" horiz-adv-x="481" 
d="M474 1v-129h-466v129h466z" />
    <glyph glyph-name="grave" unicode="`" horiz-adv-x="383" 
d="M38 765h126l101 -131h-125z" />
    <glyph glyph-name="a" unicode="a" horiz-adv-x="491" 
d="M31 86v103q0 82 33 113q26 24 66 36l175 27v51q0 23 -24 23h-73q-25 0 -25 -23v-18h-130v38q0 63 45 98q46 36 106 36h80q60 0 105 -36q46 -34 46 -97v-437h-130v47q-124 -57 -178 -57q-40 0 -68 28t-28 68zM161 174v-28q0 -17 11 -17l133 41v89l-124 -21
q-20 -12 -20 -64z" />
    <glyph glyph-name="b" unicode="b" horiz-adv-x="512" 
d="M461 473v-350q0 -56 -39 -95q-38 -40 -94 -38h-138q-56 0 -95 39q-38 40 -38 94v380h-1v262h130v-57h1v-195q159 57 187 57q40 0 63.5 -26t23.5 -71zM331 133v277q0 14 -11 14q-14 0 -133 -40v-251q0 -15 12 -15h119q13 0 13 15z" />
    <glyph glyph-name="c" unicode="c" horiz-adv-x="481" 
d="M51 123v314q0 54 38 94q39 39 95 39h139q55 0 94 -39t39 -94v-75h-130v66q0 12 -9 12h-127q-9 0 -9 -12v-295q0 -13 9 -13h127q9 0 9 13v62h130v-72q0 -55 -39 -94t-94 -39h-139q-55 0 -94 39t-39 94z" />
    <glyph glyph-name="d" unicode="d" horiz-adv-x="517" 
d="M456 707h1v-707h-130v47l-36 -13l-44 -16q-78 -28 -108 -28q-40 0 -63.5 26t-22.5 71v350q0 55 38 95q39 39 94 38h139h3v132h-1v62h130v-57zM327 176v251q-1 15 -13 15h-118q-13 0 -13 -15v-277v-2q0 -12 10 -12q13 0 134 40z" />
    <glyph glyph-name="e" unicode="e" horiz-adv-x="491" 
d="M51 123v314q0 54 38 94q39 39 95 39h139q55 0 94 -39t39 -94v-200h-275v-104q0 -13 9 -13h127q9 0 9 13v62h130v-72q0 -55 -39 -94t-94 -39h-139q-56 0 -95 39q-38 40 -38 94zM326 337v90q0 13 -9 13h-127q-9 0 -9 -13v-90h145z" />
    <glyph glyph-name="f" unicode="f" horiz-adv-x="302" 
d="M302 635h-81q-24 0 -24 -21v-54h84v-128h-84v-434q0 -64 -45 -107q-45 -45 -110 -45v130q23 0 23 22v434h-55v128h55v54q0 62 44 106q45 45 109 45h84v-130z" />
    <glyph glyph-name="g" unicode="g" horiz-adv-x="512" 
d="M184 571h139q55 0 94 -39t39 -94v-463q0 -55 -38 -93t-94 -38h-139q-55 0 -94 39t-39 94v34h130v-24q0 -13 9 -13h127q9 0 9 13v142l-34 -17q-29 -12 -77 -30q-44 -16 -69 -16q-40 0 -68 28t-28 68v276q0 55 39 94t94 39zM326 269v159q0 13 -9 13h-127q-9 0 -9 -13v-201
q0 -20 17 -20q8 0 39 15q60 31 61 32z" />
    <glyph glyph-name="h" unicode="h" 
d="M191 765v-252q127 56 179 56q40 0 68 -28t28 -68v-473h-130v407q0 18 -10 18l-135 -42v-383h-130v765h130z" />
    <glyph glyph-name="i" unicode="i" horiz-adv-x="299" 
d="M66 765h130v-106h-130v106zM198 560v-418q0 -22 24 -22h54v-130h-57q-63 0 -109 44q-44 46 -44 108v418h132z" />
    <glyph glyph-name="j" unicode="j" horiz-adv-x="280" 
d="M81 765h131v-106h-131v106zM82 560h132v-565q0 -63 -45 -107q-45 -45 -108 -44h-74v130h71q24 -2 24 21v565z" />
    <glyph glyph-name="k" unicode="k" 
d="M356 298l165 -298h-153l-120 238h-58v-238h-129v765h129v-399h58l111 194h145l-148 -254v-8z" />
    <glyph glyph-name="l" unicode="l" horiz-adv-x="299" 
d="M222 120h54v-130h-57q-63 0 -109 44q-44 46 -44 108v622h130v-204h2v-418q0 -22 24 -22z" />
    <glyph glyph-name="m" unicode="m" horiz-adv-x="739" 
d="M61 560h130v-53q97 60 150 60q30 0 56 -17t34 -43v-1q20 16 70 39q51 25 86 25q40 0 68 -28.5t28 -68.5v-473h-129v403q0 18 -8 18l-110 -38v-383h-129v397q0 22 -6 22l-110 -42v-377h-130v560z" />
    <glyph glyph-name="n" unicode="n" 
d="M61 560h130v-47q127 56 179 56q40 0 68 -28t28 -68v-473h-130v407q0 18 -10 18l-135 -42v-383h-130v560z" />
    <glyph glyph-name="o" unicode="o" horiz-adv-x="507" 
d="M51 123v314q0 54 38 94q39 39 95 39h139q55 0 94 -39t39 -94v-314q0 -55 -39 -94t-94 -39h-139q-55 0 -94 39t-39 94zM181 427v-294q0 -13 10 -13h125q10 0 10 13v294q0 13 -10 13h-125q-10 0 -10 -13z" />
    <glyph glyph-name="p" unicode="p" horiz-adv-x="517" 
d="M191 560v-47l36 13l44 16q78 28 108 28q40 0 63.5 -26t22.5 -71v-350q0 -56 -39 -95q-38 -39 -93 -38h-139h-3v-137h-130v707h130zM335 133v277v2q0 12 -10 12q-13 0 -134 -40v-251q1 -15 13 -15h118q13 0 13 15z" />
    <glyph glyph-name="q" unicode="q" horiz-adv-x="512" 
d="M53 88v350q-1 55 37 95q40 39 95 38h138q57 0 94 -39q39 -38 39 -94v-585h-130v195q-159 -57 -187 -57q-41 0 -64 26t-22 71zM182 428v-277q0 -14 11 -14q14 0 133 40v251q0 15 -12 15h-119q-13 0 -13 -15z" />
    <glyph glyph-name="r" unicode="r" horiz-adv-x="486" 
d="M61 560h130v-47q127 56 179 56q40 0 68 -28t28 -68v-100h-130v30q0 24 -5 24q-13 0 -64 -15q-48 -14 -76 -29v-383h-130v560z" />
    <glyph glyph-name="s" unicode="s" horiz-adv-x="489" 
d="M42 212h130v-79q0 -13 9 -13h127q9 0 9 13v18q0 31 -30 49q-13 11 -42 22q-6 3 -25 10t-23 9q-155 57 -155 171v25q0 55 39 94t94 39h139q56 0 94 -39q39 -39 39 -94v-30h-130v20q0 13 -9 13h-126q-10 0 -10 -13v-8q0 -25 44 -47l38 -18q18 -6 46 -18q147 -56 147 -177
v-36q0 -55 -39 -94t-94 -39h-139q-55 0 -94 39t-39 94v89z" />
    <glyph glyph-name="t" unicode="t" horiz-adv-x="367" 
d="M359 432h-145v-290q0 -22 24 -22h54v-130h-57q-63 0 -109 44q-44 46 -44 108v290h-74v128h74v144h132v-144h145v-128z" />
    <glyph glyph-name="u" unicode="u" 
d="M331 0v47q-127 -56 -179 -56q-40 0 -68 28t-28 68v473h130v-407q0 -18 10 -18l135 42v383h130v-560h-130z" />
    <glyph glyph-name="v" unicode="v" horiz-adv-x="483" 
d="M23 559h133l59 -433q1 -6 5 -6h48q6 0 6 6l57 433h130l-85 -535q-2 -13 -15 -24t-28 -11h-178q-15 0 -28 10.5t-15 24.5z" />
    <glyph glyph-name="w" unicode="w" horiz-adv-x="765" 
d="M579 560h130v-420q0 -66 -36.5 -108t-96.5 -42h-66q-45 0 -80 27t-48 72q-13 -46 -47.5 -72.5t-80.5 -26.5h-65q-60 0 -96.5 42t-36.5 108v420h130v-420q0 -20 12 -20h56q63 0 63 95v345h130v-345q0 -95 63 -95h54q15 0 15 20v420z" />
    <glyph glyph-name="x" unicode="x" horiz-adv-x="497" 
d="M182 302l-129 258h141l56 -134l59 134h141l-132 -258l158 -302h-141l-85 176l-88 -176h-141z" />
    <glyph glyph-name="y" unicode="y" horiz-adv-x="477" 
d="M18 559h133l59 -433q3 -11 6 -11h48q6 0 8 14l58 430h130l-113 -715h-124l22 145h-92q-15 0 -28 10.5t-15 23.5z" />
    <glyph glyph-name="z" unicode="z" horiz-adv-x="462" 
d="M31 130l251 304h-249v126h395v-126l-252 -305h255v-129h-400v130z" />
    <glyph glyph-name="braceleft" unicode="{" horiz-adv-x="302" 
d="M260 860v-130q-21 -4 -21 -29v-162q0 -71 -18 -100t-60 -31v-16q43 -2 60.5 -30t17.5 -101v-162q0 -25 21 -29v-130q-52 6 -102 41q-49 34 -49 92v188q0 53 -19.5 72t-58.5 19v96q17 0 28.5 2.5t24 11t19 28t6.5 49.5v188q0 58 49 92q48 33 102 41z" />
    <glyph glyph-name="bar" unicode="|" horiz-adv-x="273" 
d="M71 850h130v-900h-130v900z" />
    <glyph glyph-name="braceright" unicode="}" horiz-adv-x="302" 
d="M42 730v130q54 -8 102 -41q49 -34 49 -92v-188q0 -56 21 -73.5t57 -17.5v-96q-39 0 -58.5 -19t-19.5 -72v-188q0 -58 -49 -92q-50 -35 -102 -41v130q21 4 21 29v162q0 73 17.5 101t60.5 30v16q-42 2 -60 31t-18 100v162q0 25 -21 29z" />
    <glyph glyph-name="asciitilde" unicode="~" horiz-adv-x="525" 
d="M138 624l-5 111q25 31 62 31q25 0 69 -18q46 -17 68 -17q31 0 56 28l5 -111q-27 -32 -61 -32q-24 0 -70 17q-44 18 -67 18q-31 0 -57 -27z" />
    <glyph glyph-name="DEL" horiz-adv-x="500" 
 />
    <glyph glyph-name="exclamdown" unicode="&#xa1;" horiz-adv-x="273" 
d="M72 560v106h130v-106h-130zM72 -130v590h130v-590h-130z" />
    <glyph glyph-name="cent" unicode="&#xa2;" horiz-adv-x="525" 
d="M477 471h-125v70q0 8 -8 8h-31v-323h27q12 0 12 10v67h125v-72q0 -55 -39 -96q-39 -39 -96 -39h-16v-96h-130v98h-15q-55 0 -94 39t-39 94v315q0 56 39 93q39 39 95 39h14v87h130v-87h19q55 0 93 -39q39 -37 39 -93v-75zM172 541v-305q0 -8 9 -8h27v321h-26q-10 0 -10 -8
z" />
    <glyph glyph-name="sterling" unicode="&#xa3;" horiz-adv-x="525" 
d="M306 130h215v-130h-511v130h139q-52 27 -52 86v125h-87v130h87v161q0 60 42 102t102 42h132q60 0 102 -42t42 -102v-96h-130v96q0 8 -3 11t-11 3h-132q-8 0 -11 -3t-3 -11v-161h96v-130h-96v-125q0 -18 20 -38l18 -16z" />
    <glyph glyph-name="currency" unicode="&#xa4;" horiz-adv-x="525" 
d="M21 416v100h55v116q0 60 42 102t102 42h139q60 0 102 -42t42 -102v-126h-130v126q0 8 -3 11t-11 3h-139q-8 0 -11 -3t-3 -11v-116h126v-100h-311zM332 380v-100h-126v-146q0 -8 3 -11t11 -3h139q11 0 11 14v158h133v-158q0 -60 -42 -102t-102 -42h-139q-60 0 -102 42
t-42 102v146h-55v100h311z" />
    <glyph glyph-name="yen" unicode="&#xa5;" horiz-adv-x="525" 
d="M329 350v-57h123v-100h-381v100h129v57h-26q-15 0 -27 10t-16 24l-130 382h133l100 -295q3 -5 6 -5h50q4 0 6 5l97 296h130l-123 -383q-3 -13 -15.5 -23.5t-27.5 -10.5h-28zM71 47v100h381v-100h-123v-47h-129v47h-129z" />
    <glyph glyph-name="brokenbar" unicode="&#xa6;" horiz-adv-x="258" 
d="M71 850h115v-390h-115v390zM71 340h115v-390h-115v390z" />
    <glyph glyph-name="section" unicode="&#xa7;" horiz-adv-x="517" 
d="M461 560h-130v33q0 13 -13 13h-119q-13 0 -13 -13v-14q0 -21 25 -39.5t72 -39.5q35 -14 61.5 -28.5t56 -37.5t45 -55.5t15.5 -71.5v-29q0 -35 -16 -64q16 -31 16 -63v-29q0 -54 -39 -95q-39 -39 -94 -39h-139q-55 0 -94 39q-39 41 -39 95v90h130v-90q0 -13 13 -13h119
q13 0 13 13v29q0 43 -97 85q-36 15 -61.5 29t-55.5 36.5t-45.5 53.5t-15.5 68v14q0 39 21 71q-21 34 -21 71v14q0 55 39 94t94 39h139q56 0 94 -39q39 -39 39 -94v-33zM352 307v7q0 40 -61 72q-34 17 -59 28t-53 25q-6 -7 -6 -17v-11q0 -24 26 -44q27 -19 84 -45
q51 -21 66 -29q3 6 3 14z" />
    <glyph glyph-name="dieresis" unicode="&#xa8;" horiz-adv-x="327" 
d="M81 627q-26 0 -45 18.5t-19 44.5q0 27 19 47t45 20q27 0 46.5 -20t19.5 -47q0 -26 -19.5 -44.5t-46.5 -18.5zM249 627q-27 0 -46 18.5t-19 44.5q0 27 19 47t46 20q25 0 44 -20t19 -47q0 -26 -19 -44.5t-44 -18.5z" />
    <glyph glyph-name="copyright" unicode="&#xa9;" horiz-adv-x="637" 
d="M56 170v218q0 80 54 129q54 51 139 51h139q85 0 139 -51q54 -49 54 -129v-218q0 -79 -54 -130q-55 -50 -139 -50h-139q-84 0 -139 50q-54 51 -54 130zM156 388v-218q0 -35 26 -57.5t67 -22.5h139q41 0 67 22.5t26 57.5v218q0 35 -26 57.5t-67 22.5h-139q-41 0 -67 -22.5
t-26 -57.5zM176 170v218q0 25 21 42.5t52 17.5h139q31 0 52 -17.5t21 -42.5v-66h-95v21q0 17 -15 17h-60q-15 0 -15 -17v-128q0 -17 14 -17h60q16 0 16 17v19h95v-64q0 -25 -21 -42.5t-52 -17.5h-139q-30 0 -51.5 18t-21.5 42z" />
    <glyph glyph-name="ordfeminine" unicode="&#xaa;" horiz-adv-x="422" 
d="M79 675v12q0 87 138 87q139 0 139 -80v-262h-91v30q-37 -16 -78 -26t-63 -10q-24 0 -41 17t-17 41v71q0 52 58 70l141 19v43q0 15 -48 15q-47 0 -47 -15v-12h-91zM265 577l-98 -15q-10 0 -10 -10v-38q0 -8 10 -8q4 0 49 12q45 13 49 13v46zM366 399v-99h-310v99h310z" />
    <glyph glyph-name="guillemotleft" unicode="&#xab;" horiz-adv-x="618" 
d="M246 392l106 -48l-148 -105l148 -105l-106 -47l-210 152zM456 392l106 -48l-148 -105l148 -105l-106 -47l-210 152z" />
    <glyph glyph-name="logicalnot" unicode="&#xac;" horiz-adv-x="525" 
d="M34 396h457v-221h-129v92h-328v129z" />
    <glyph glyph-name="registered" unicode="&#xae;" horiz-adv-x="613" 
d="M204 792h205q70 0 109 -38.5t39 -106.5v-262q0 -68 -39 -106.5t-109 -38.5h-205q-70 0 -109 38.5t-39 106.5v262q0 68 39 106.5t109 38.5zM409 692h-205q-22 0 -35 -12t-13 -33v-262q0 -21 13 -33t35 -12h205q22 0 35 12t13 33v262q0 21 -13 33t-35 12zM183 662h193
q20 0 37 -14.5t17 -33.5v-49q0 -34 -31 -47q33 -12 33 -48v-107h-88v107q0 13 -9 13h-63v-120h-89v299zM338 599h-66v-40h64q7 3 7 22v11q0 7 -5 7z" />
    <glyph glyph-name="overscore" unicode="&#xaf;" horiz-adv-x="315" 
d="M48 736h220v-99h-220v99z" />
    <glyph glyph-name="degree" unicode="&#xb0;" horiz-adv-x="431" 
d="M179 765h73q50 0 86 -37q37 -36 37 -86v-24q0 -50 -37 -87q-36 -36 -86 -36h-73q-49 0 -86 36q-37 37 -37 87v24q0 50 36 86q37 37 87 37zM252 665h-73q-10 0 -16.5 -6.5t-6.5 -16.5v-24q0 -10 6.5 -16.5t16.5 -6.5h73q10 0 16.5 6.5t6.5 16.5v24q0 10 -6.5 16.5
t-16.5 6.5z" />
    <glyph glyph-name="plusminus" unicode="&#xb1;" horiz-adv-x="525" 
d="M191 341h-103v143h103v91h144v-91h103v-143h-103v-116h-144v116zM88 196h350v-129h-350v129z" />
    <glyph glyph-name="twosuperior" unicode="&#xb2;" horiz-adv-x="400" 
d="M174 771h59q41 0 68.5 -25.5t27.5 -62.5v-24q0 -76 -67 -127q-37 -26 -41 -30q-34 -26 -29 -48h137v-101h-258v70q0 86 83 146l36 26q13 10 24 29t11 39v9q0 10 -8 10h-29q-8 0 -8 -11v-17h-104v12q0 44 28 74.5t70 30.5z" />
    <glyph glyph-name="threesuperior" unicode="&#xb3;" horiz-adv-x="371" 
d="M311 701v-55q0 -43 -29 -64q33 -22 33 -64v-93q0 -29 -22.5 -49t-52.5 -20h-104q-30 0 -53 20t-23 49v85h93v-62q0 -10 9 -10h50q10 0 10 10v72q0 17 -20 19h-104v87h103q17 0 17 16v39q0 9 -8 9h-53q-8 0 -8 -9v-7h-93v27q0 29 23 49.5t53 20.5h104q30 0 52.5 -20.5
t22.5 -49.5z" />
    <glyph glyph-name="acute" unicode="&#xb4;" horiz-adv-x="383" 
d="M240 765h125l-101 -131h-126z" />
    <glyph glyph-name="paragraph" unicode="&#xb6;" horiz-adv-x="664" 
d="M593 800v-950h-130v821h-49v-821h-130v370h-100q-55 0 -94 39t-39 94v314q0 54 38 94q39 39 95 39h409zM284 671h-95q-8 0 -8 -8v-305q0 -8 8 -8h95v321z" />
    <glyph glyph-name="middot" unicode="&#xb7;" horiz-adv-x="251" 
d="M124 222q-28 0 -48 20t-20 48t20 48.5t48 20.5t49 -20.5t21 -48.5t-20.5 -48t-49.5 -20z" />
    <glyph glyph-name="cedilla" unicode="&#xb8;" horiz-adv-x="462" 
d="M300 26l-10 -53q39 -14 64 -48.5t25 -74.5q0 -54 -38.5 -90t-97.5 -36q-36 0 -98 38l49 79q36 -17 49 -17q36 0 36 26t-25 26h-74l17 150h103z" />
    <glyph glyph-name="onesuperior" unicode="&#xb9;" horiz-adv-x="290" 
d="M219 765v-405h-109v312h-39v93h148z" />
    <glyph glyph-name="ordmasculine" unicode="&#xba;" horiz-adv-x="423" 
d="M146 774h130q33 0 56.5 -23t23.5 -57v-188q0 -33 -23.5 -56.5t-56.5 -23.5h-130q-34 0 -57 23.5t-23 56.5v188q0 34 23 57t57 23zM250 684h-76q-8 0 -8 -7v-153q0 -8 8 -8h75q7 0 7 8v153q0 7 -6 7zM367 399v-99h-311v99h311z" />
    <glyph glyph-name="guillemotright" unicode="&#xbb;" horiz-adv-x="618" 
d="M204 239l-148 105l107 48l209 -153l-209 -152l-107 47zM414 239l-148 105l107 48l209 -153l-209 -152l-107 47z" />
    <glyph glyph-name="onequarter" unicode="&#xbc;" horiz-adv-x="713" 
d="M544 798l-309 -798h-111l309 798h111zM204 765v-405h-109v312h-39v93h148zM619 410v-225h38v-94h-38v-92h-94v92h-189l125 319h158zM525 318h-13l-35 -133h48v133z" />
    <glyph glyph-name="onehalf" unicode="&#xbd;" horiz-adv-x="707" 
d="M544 798l-309 -798h-111l309 798h111zM204 765v-405h-109v312h-39v93h148zM496 418h59q41 0 68.5 -25.5t27.5 -62.5v-24q0 -76 -67 -127q-37 -26 -41 -30q-34 -26 -29 -48h137v-101h-258v70q0 86 83 146l36 26q13 10 24 29t11 39v9q0 10 -8 10h-29q-8 0 -8 -11v-17h-104
v12q0 44 28 74.5t70 30.5z" />
    <glyph glyph-name="threequarters" unicode="&#xbe;" horiz-adv-x="787" 
d="M495 798h111l-308 -798h-111zM315 518v-93q0 -29 -22.5 -49t-52.5 -20h-104q-30 0 -53 20t-23 49v85h93v-62q0 -10 9 -10h50q10 0 10 10v72q0 17 -20 19h-104v87h103q17 0 17 16v39q0 9 -8 9h-53q-8 0 -8 -9v-7h-93v27q0 29 23 49.5t53 20.5h104q30 0 52.5 -20.5
t22.5 -49.5v-55q0 -43 -29 -64q33 -22 33 -64zM693 185h37v-94h-37v-92h-94v92h-190l126 319h158v-225zM599 185v133h-13l-36 -133h49z" />
    <glyph glyph-name="questiondown" unicode="&#xbf;" horiz-adv-x="499" 
d="M217 639h130v-106h-130v106zM328 -167h-158q-56 0 -95 39q-38 38 -38 94v128q0 75 38.5 114.5t98.5 39.5h29q14 0 14 20v176h130v-176q0 -70 -37.5 -110t-91.5 -41h-35q-16 0 -16 -21v-126q0 -15 11 -15h143q10 0 10 15v100h130v-104q0 -56 -39 -94q-38 -39 -94 -39z" />
    <glyph glyph-name="Agrave" unicode="&#xc0;" horiz-adv-x="568" 
d="M395 174h-221l-26 -174h-130l125 766q2 13 15 23.5t28 10.5h197q15 0 28 -10.5t15 -23.5l125 -766h-130zM376 304l-53 355q-3 11 -9 11h-60q-6 0 -8 -11l-53 -355h183zM119 1005h126l101 -131h-125z" />
    <glyph glyph-name="Aacute" unicode="&#xc1;" horiz-adv-x="568" 
d="M395 174h-221l-26 -174h-130l125 766q2 13 15 23.5t28 10.5h197q15 0 28 -10.5t15 -23.5l125 -766h-130zM376 304l-53 355q-3 11 -9 11h-60q-6 0 -8 -11l-53 -355h183zM328 1005h125l-101 -131h-126z" />
    <glyph glyph-name="Acircumflex" unicode="&#xc2;" horiz-adv-x="568" 
d="M395 174h-221l-26 -174h-130l125 766q2 13 15 23.5t28 10.5h197q15 0 28 -10.5t15 -23.5l125 -766h-130zM376 304l-53 355q-3 11 -9 11h-60q-6 0 -8 -11l-53 -355h183zM245 1035h77l134 -158h-115l-56 73h-3l-57 -73h-114z" />
    <glyph glyph-name="Atilde" unicode="&#xc3;" horiz-adv-x="568" 
d="M395 174h-221l-26 -174h-130l125 766q2 13 15 23.5t28 10.5h197q15 0 28 -10.5t15 -23.5l125 -766h-130zM376 304l-53 355q-3 11 -9 11h-60q-6 0 -8 -11l-53 -355h183zM160 864l-5 111q25 31 62 31q25 0 69 -18q46 -17 68 -17q31 0 56 28l5 -111q-27 -32 -61 -32
q-24 0 -70 17q-44 18 -67 18q-31 0 -57 -27z" />
    <glyph glyph-name="Adieresis" unicode="&#xc4;" horiz-adv-x="568" 
d="M395 174h-221l-26 -174h-130l125 766q2 13 15 23.5t28 10.5h197q15 0 28 -10.5t15 -23.5l125 -766h-130zM376 304l-53 355q-3 11 -9 11h-60q-6 0 -8 -11l-53 -355h183zM201 867q-26 0 -45 18.5t-19 44.5q0 27 19 47t45 20q27 0 46.5 -20t19.5 -47q0 -26 -19.5 -44.5
t-46.5 -18.5zM369 867q-27 0 -46 18.5t-19 44.5q0 27 19 47t46 20q25 0 44 -20t19 -47q0 -26 -19 -44.5t-44 -18.5z" />
    <glyph glyph-name="Aring" unicode="&#xc5;" horiz-adv-x="568" 
d="M395 174h-221l-26 -174h-130l125 766q2 13 15 23.5t28 10.5h197q15 0 28 -10.5t15 -23.5l125 -766h-130zM376 304l-53 355q-3 11 -9 11h-60q-6 0 -8 -11l-53 -355h183zM285 1075q52 0 88 -37q36 -36 36 -88t-36 -88t-88 -36q-51 0 -89 36q-36 36 -36 88t36 88
q36 37 89 37zM253 918q18 -21 43.5 -12t32.5 32.5t-12 43.5q-18 21 -43.5 12t-32.5 -32.5t12 -43.5z" />
    <glyph glyph-name="AE" unicode="&#xc6;" horiz-adv-x="795" 
d="M759 800v-133h-247v-161h220v-130h-220v-246h247v-130h-377v174h-202l-32 -174h-130l124 766q2 13 15 23.5t28 10.5h574zM382 676h-117q-12 0 -16 -16l-51 -356h184v372z" />
    <glyph glyph-name="Ccedilla" unicode="&#xc7;" horiz-adv-x="545" 
d="M494 536h-130v124q0 16 -15 16h-148q-15 0 -15 -16v-525q0 -15 14 -15h153q11 0 11 15v157h130v-158q0 -60 -42 -102t-102 -42h-29l-3 -17q39 -14 64 -48.5t25 -74.5q0 -54 -38.5 -90t-97.5 -36q-36 0 -98 38l49 79q36 -17 49 -17q36 0 36 26t-25 26h-74l13 114h-21
q-60 0 -102 42t-42 102v528q0 60 42 102t102 42h150q60 0 102 -42t42 -102v-126z" />
    <glyph glyph-name="Egrave" unicode="&#xc8;" horiz-adv-x="484" 
d="M449 800v-130h-248v-194h221v-130h-221v-216h248v-130h-378v800h378zM102 1005h126l101 -131h-125z" />
    <glyph glyph-name="Eacute" unicode="&#xc9;" horiz-adv-x="484" 
d="M449 800v-130h-248v-194h221v-130h-221v-216h248v-130h-378v800h378zM311 1005h125l-101 -131h-126z" />
    <glyph glyph-name="Ecircumflex" unicode="&#xca;" horiz-adv-x="484" 
d="M449 800v-130h-248v-194h221v-130h-221v-216h248v-130h-378v800h378zM228 1035h77l134 -158h-115l-56 73h-3l-57 -73h-114z" />
    <glyph glyph-name="Edieresis" unicode="&#xcb;" horiz-adv-x="484" 
d="M183 867q-26 0 -45 18.5t-19 44.5q0 27 19 47t45 20q27 0 46.5 -20t19.5 -47q0 -26 -19.5 -44.5t-46.5 -18.5zM351 867q-27 0 -46 18.5t-19 44.5q0 27 19 47t46 20q25 0 44 -20t19 -47q0 -26 -19 -44.5t-44 -18.5zM449 800v-130h-248v-194h221v-130h-221v-216h248v-130
h-378v800h378z" />
    <glyph glyph-name="Igrave" unicode="&#xcc;" horiz-adv-x="282" 
d="M-24 1005h126l101 -131h-125zM206 800v-800h-130v800h130z" />
    <glyph glyph-name="Iacute" unicode="&#xcd;" horiz-adv-x="282" 
d="M185 1005h125l-101 -131h-126zM206 800v-800h-130v800h130z" />
    <glyph glyph-name="Icircumflex" unicode="&#xce;" horiz-adv-x="282" 
d="M102 1035h77l134 -158h-115l-56 73h-3l-57 -73h-114zM206 800v-800h-130v800h130z" />
    <glyph glyph-name="Idieresis" unicode="&#xcf;" horiz-adv-x="282" 
d="M58 867q-26 0 -45.5 19t-19.5 44q0 27 19.5 47t45.5 20q27 0 46.5 -20t19.5 -47q0 -26 -19.5 -44.5t-46.5 -18.5zM226 867q-27 0 -46 18.5t-19 44.5q0 27 19 47t46 20q25 0 44 -20t19 -47q0 -26 -18.5 -44.5t-44.5 -18.5zM206 800v-800h-130v800h130z" />
    <glyph glyph-name="Eth" unicode="&#xd0;" horiz-adv-x="565" 
d="M71 800h294q62 0 102 -40q42 -39 42 -98v-518q0 -60 -42 -102t-102 -42h-294v368h-51v129h51v303zM379 144v513q0 13 -14 13h-164v-173h94v-129h-94v-238h164q8 0 11 3t3 11z" />
    <glyph glyph-name="Ntilde" unicode="&#xd1;" horiz-adv-x="629" 
d="M296 800l127 -670h5v670h130v-800h-223l-129 670h-5v-670h-130v800h225zM191 864l-5 111q25 31 62 31q26 0 69 -18q46 -17 68 -17q31 0 56 28l5 -111q-27 -32 -61 -32q-24 0 -70 17q-44 18 -67 18q-32 0 -57 -27z" />
    <glyph glyph-name="Ograve" unicode="&#xd2;" horiz-adv-x="550" 
d="M56 134v528q0 60 42 102t102 42h150q60 0 102 -42t42 -102v-528q0 -60 -42 -102t-102 -42h-150q-60 0 -102 42t-42 102zM186 662v-528q0 -8 3 -11t11 -3h150q8 0 11 3t3 11v528q0 8 -3 11t-11 3h-150q-8 0 -11 -3t-3 -11zM110 1005h126l101 -131h-125z" />
    <glyph glyph-name="Oacute" unicode="&#xd3;" horiz-adv-x="550" 
d="M56 134v528q0 60 42 102t102 42h150q60 0 102 -42t42 -102v-528q0 -60 -42 -102t-102 -42h-150q-60 0 -102 42t-42 102zM186 662v-528q0 -8 3 -11t11 -3h150q8 0 11 3t3 11v528q0 8 -3 11t-11 3h-150q-8 0 -11 -3t-3 -11zM319 1005h125l-101 -131h-126z" />
    <glyph glyph-name="Ocircumflex" unicode="&#xd4;" horiz-adv-x="550" 
d="M56 134v528q0 60 42 102t102 42h150q60 0 102 -42t42 -102v-528q0 -60 -42 -102t-102 -42h-150q-60 0 -102 42t-42 102zM186 662v-528q0 -8 3 -11t11 -3h150q8 0 11 3t3 11v528q0 8 -3 11t-11 3h-150q-8 0 -11 -3t-3 -11zM236 1035h77l134 -158h-115l-56 73h-3l-57 -73
h-114z" />
    <glyph glyph-name="Otilde" unicode="&#xd5;" horiz-adv-x="550" 
d="M56 134v528q0 60 42 102t102 42h150q60 0 102 -42t42 -102v-528q0 -60 -42 -102t-102 -42h-150q-60 0 -102 42t-42 102zM186 662v-528q0 -8 3 -11t11 -3h150q8 0 11 3t3 11v528q0 8 -3 11t-11 3h-150q-8 0 -11 -3t-3 -11zM151 864l-5 111q25 31 62 31q26 0 69 -18
q46 -17 68 -17q31 0 56 28l5 -111q-27 -32 -61 -32q-24 0 -70 17q-44 18 -67 18q-32 0 -57 -27z" />
    <glyph glyph-name="Odieresis" unicode="&#xd6;" horiz-adv-x="550" 
d="M192 867q-26 0 -45 18.5t-19 44.5q0 27 19 47t45 20q27 0 46.5 -20t19.5 -47q0 -26 -19.5 -44.5t-46.5 -18.5zM360 867q-27 0 -46 18.5t-19 44.5q0 27 19 47t46 20q25 0 44 -20t19 -47q0 -26 -18.5 -44.5t-44.5 -18.5zM56 134v528q0 60 42 102t102 42h150q60 0 102 -42
t42 -102v-528q0 -60 -42 -102t-102 -42h-150q-60 0 -102 42t-42 102zM186 662v-528q0 -8 3 -11t11 -3h150q8 0 11 3t3 11v528q0 8 -3 11t-11 3h-150q-8 0 -11 -3t-3 -11z" />
    <glyph glyph-name="multiply" unicode="&#xd7;" horiz-adv-x="525" 
d="M82 262l88 86l-78 78l91 91l78 -78l82 82l91 -91l-82 -82l91 -90l-91 -91l-91 91l-87 -87z" />
    <glyph glyph-name="Oslash" unicode="&#xd8;" horiz-adv-x="565" 
d="M519 866l-49 -124q24 -34 24 -80v-528q0 -60 -42 -102t-102 -42h-150q-16 0 -29 3l-19 -47h-106l40 100q-30 38 -30 88v528q0 60 42 102t102 42h150q15 0 37 -5l26 65h106zM186 662v-365l151 379h-137q-8 0 -11 -3t-3 -11zM364 134v343l-143 -357h129q8 0 11 3t3 11z" />
    <glyph glyph-name="Ugrave" unicode="&#xd9;" horiz-adv-x="561" 
d="M115 1005h126l101 -131h-125zM192 800v-666q0 -8 3 -11t11 -3h149q8 0 11 3t3 11v666h130v-666q0 -60 -42 -102t-102 -42h-149q-60 0 -102 42t-42 102v666h130z" />
    <glyph glyph-name="Uacute" unicode="&#xda;" horiz-adv-x="561" 
d="M325 1005h125l-101 -131h-126zM192 800v-666q0 -8 3 -11t11 -3h149q8 0 11 3t3 11v666h130v-666q0 -60 -42 -102t-102 -42h-149q-60 0 -102 42t-42 102v666h130z" />
    <glyph glyph-name="Ucircumflex" unicode="&#xdb;" horiz-adv-x="561" 
d="M242 1035h77l134 -158h-115l-56 73h-3l-57 -73h-114zM192 800v-666q0 -8 3 -11t11 -3h149q8 0 11 3t3 11v666h130v-666q0 -60 -42 -102t-102 -42h-149q-60 0 -102 42t-42 102v666h130z" />
    <glyph glyph-name="Udieresis" unicode="&#xdc;" horiz-adv-x="561" 
d="M197 867q-26 0 -45 18.5t-19 44.5q0 27 19 47t45 20q27 0 46.5 -20t19.5 -47q0 -26 -19.5 -44.5t-46.5 -18.5zM365 867q-27 0 -46 18.5t-19 44.5q0 27 19 47t46 20q25 0 44 -20t19 -47q0 -26 -19 -44.5t-44 -18.5zM192 800v-666q0 -8 3 -11t11 -3h149q8 0 11 3t3 11v666
h130v-666q0 -60 -42 -102t-102 -42h-149q-60 0 -102 42t-42 102v666h130z" />
    <glyph glyph-name="Yacute" unicode="&#xdd;" horiz-adv-x="569" 
d="M551 800l-123 -546q-4 -14 -18.5 -23t-35.5 -9h-23v-222h-129v222h-20q-20 0 -35.5 9t-18.5 23l-130 546h133l99 -443q1 -7 7 -7h61q7 0 7 7l96 443h130zM329 1005h125l-101 -131h-126z" />
    <glyph glyph-name="Thorn" unicode="&#xde;" horiz-adv-x="536" 
d="M201 792v-153h160q62 0 102 -40q42 -39 42 -98v-176q0 -60 -42 -102t-102 -42h-160v-181h-130v792h130zM361 509h-160v-198h160q8 0 11 3t3 11v176q-8 8 -14 8z" />
    <glyph glyph-name="germandbls" unicode="&#xdf;" horiz-adv-x="525" 
d="M200 774h132q63 0 99 -31.5t36 -89.5v-116q0 -38 -21.5 -70.5t-55.5 -47.5q36 -13 60 -47t24 -73v-189q0 -57 -38.5 -88.5t-102.5 -31.5h-94v130h90q15 0 15 16v163q0 55 -54 55h-48v130h48q47 0 47 53v88q0 19 -14 19h-112q-10 0 -10 -18v-631q0 -63 -44 -107
q-43 -45 -108 -45h-39v130h36q24 0 25 22v658q0 59 34 90t95 31z" />
    <glyph glyph-name="agrave" unicode="&#xe0;" horiz-adv-x="491" 
d="M31 86v103q0 82 33 113q26 24 66 36l175 27v51q0 23 -24 23h-73q-25 0 -25 -23v-18h-130v38q0 63 45 98q46 36 106 36h80q60 0 105 -36q46 -34 46 -97v-437h-130v47q-124 -57 -178 -57q-40 0 -68 28t-28 68zM161 174v-28q0 -17 11 -17l133 41v89l-124 -21
q-20 -12 -20 -64zM81 765h126l101 -131h-125z" />
    <glyph glyph-name="aacute" unicode="&#xe1;" horiz-adv-x="491" 
d="M31 86v103q0 82 33 113q26 24 66 36l175 27v51q0 23 -24 23h-73q-25 0 -25 -23v-18h-130v38q0 63 45 98q46 36 106 36h80q60 0 105 -36q46 -34 46 -97v-437h-130v47q-124 -57 -178 -57q-40 0 -68 28t-28 68zM161 174v-28q0 -17 11 -17l133 41v89l-124 -21
q-20 -12 -20 -64zM290 765h125l-101 -131h-126z" />
    <glyph glyph-name="acircumflex" unicode="&#xe2;" horiz-adv-x="491" 
d="M31 86v103q0 82 33 113q26 24 66 36l175 27v51q0 23 -24 23h-73q-25 0 -25 -23v-18h-130v38q0 63 45 98q46 36 106 36h80q60 0 105 -36q46 -34 46 -97v-437h-130v47q-124 -57 -178 -57q-40 0 -68 28t-28 68zM161 174v-28q0 -17 11 -17l133 41v89l-124 -21
q-20 -12 -20 -64zM207 795h77l134 -158h-115l-56 73h-3l-57 -73h-114z" />
    <glyph glyph-name="atilde" unicode="&#xe3;" horiz-adv-x="491" 
d="M31 86v103q0 82 33 113q26 24 66 36l175 27v51q0 23 -24 23h-73q-25 0 -25 -23v-18h-130v38q0 63 45 98q46 36 106 36h80q60 0 105 -36q46 -34 46 -97v-437h-130v47q-124 -57 -178 -57q-40 0 -68 28t-28 68zM161 174v-28q0 -17 11 -17l133 41v89l-124 -21
q-20 -12 -20 -64zM121 624l-5 111q25 31 62 31q26 0 69 -18q46 -17 68 -17q31 0 56 28l5 -111q-27 -32 -61 -32q-24 0 -70 17q-44 18 -67 18q-32 0 -57 -27z" />
    <glyph glyph-name="adieresis" unicode="&#xe4;" horiz-adv-x="491" 
d="M162 627q-26 0 -45 18.5t-19 44.5q0 27 19 47t45 20q27 0 46.5 -20t19.5 -47q0 -26 -19.5 -44.5t-46.5 -18.5zM330 627q-27 0 -46 18.5t-19 44.5q0 27 19 47t46 20q25 0 44 -20t19 -47q0 -26 -18.5 -44.5t-44.5 -18.5zM31 86v103q0 82 33 113q26 24 66 36l175 27v51
q0 23 -24 23h-73q-25 0 -25 -23v-18h-130v38q0 63 45 98q46 36 106 36h80q60 0 105 -36q46 -34 46 -97v-437h-130v47q-124 -57 -178 -57q-40 0 -68 28t-28 68zM161 174v-28q0 -17 11 -17l133 41v89l-124 -21q-20 -12 -20 -64z" />
    <glyph glyph-name="aring" unicode="&#xe5;" horiz-adv-x="491" 
d="M31 86v103q0 82 33 113q26 24 66 36l175 27v51q0 23 -24 23h-73q-25 0 -25 -23v-18h-130v38q0 63 45 98q46 36 106 36h80q60 0 105 -36q46 -34 46 -97v-437h-130v47q-124 -57 -178 -57q-40 0 -68 28t-28 68zM161 174v-28q0 -17 11 -17l133 41v89l-124 -21
q-20 -12 -20 -64zM247 835q52 0 88 -37q36 -36 36 -88t-36 -88t-88 -36q-51 0 -89 36q-36 36 -36 88t36 88q36 37 89 37zM215 678q18 -21 43.5 -12t32.5 32.5t-12 43.5q-18 21 -43.5 12t-32.5 -32.5t12 -43.5z" />
    <glyph glyph-name="ae" unicode="&#xe6;" horiz-adv-x="753" 
d="M717 237h-275v-103q0 -14 8 -14h128q9 0 9 13v61h130v-72q0 -55 -39 -94q-38 -38 -94 -38h-139q-77 0 -117 66l-16 -9q-125 -57 -178 -57q-40 0 -68 28t-28 68v109q0 84 33 113q28 24 66 36l175 27v48q0 20 -22 20h-75q-25 0 -25 -24v-18h-130v39q0 63 45 98
q46 36 107 36h82q37 0 87 -8q27 8 64 8h139q56 0 94 -39q39 -39 39 -94v-200zM442 429v-62h145v63q0 10 -8 10h-130q-7 0 -7 -11zM312 176v73l-127 -22q-17 -11 -17 -60v-21q0 -12 11 -12z" />
    <glyph glyph-name="ccedilla" unicode="&#xe7;" horiz-adv-x="481" 
d="M456 362h-130v66q0 12 -9 12h-127q-9 0 -9 -12v-295q0 -13 9 -13h127q9 0 9 13v62h130v-72q0 -55 -39 -94t-94 -39h-36l-3 -17q39 -14 64 -48.5t25 -74.5q0 -54 -38.5 -90t-97.5 -36q-36 0 -98 38l49 79q36 -17 49 -17q36 0 36 26t-25 26h-74l13 114h-3q-55 0 -94 39
t-39 94v314q0 54 38 94q39 39 95 39h139q55 0 94 -39t39 -94v-75z" />
    <glyph glyph-name="egrave" unicode="&#xe8;" horiz-adv-x="491" 
d="M51 123v314q0 54 38 94q39 39 95 39h139q55 0 94 -39t39 -94v-200h-275v-104q0 -13 9 -13h127q9 0 9 13v62h130v-72q0 -55 -39 -94t-94 -39h-139q-56 0 -95 39q-38 40 -38 94zM326 337v90q0 13 -9 13h-127q-9 0 -9 -13v-90h145zM81 765h126l101 -131h-125z" />
    <glyph glyph-name="eacute" unicode="&#xe9;" horiz-adv-x="491" 
d="M51 123v314q0 54 38 94q39 39 95 39h139q55 0 94 -39t39 -94v-200h-275v-104q0 -13 9 -13h127q9 0 9 13v62h130v-72q0 -55 -39 -94t-94 -39h-139q-56 0 -95 39q-38 40 -38 94zM326 337v90q0 13 -9 13h-127q-9 0 -9 -13v-90h145zM291 765h125l-101 -131h-126z" />
    <glyph glyph-name="ecircumflex" unicode="&#xea;" horiz-adv-x="491" 
d="M51 123v314q0 54 38 94q39 39 95 39h139q55 0 94 -39t39 -94v-200h-275v-104q0 -13 9 -13h127q9 0 9 13v62h130v-72q0 -55 -39 -94t-94 -39h-139q-56 0 -95 39q-38 40 -38 94zM326 337v90q0 13 -9 13h-127q-9 0 -9 -13v-90h145zM207 795h77l134 -158h-115l-56 73h-3
l-57 -73h-114z" />
    <glyph glyph-name="edieresis" unicode="&#xeb;" horiz-adv-x="491" 
d="M51 123v314q0 54 38 94q39 39 95 39h139q55 0 94 -39t39 -94v-200h-275v-104q0 -13 9 -13h127q9 0 9 13v62h130v-72q0 -55 -39 -94t-94 -39h-139q-56 0 -95 39q-38 40 -38 94zM326 337v90q0 13 -9 13h-127q-9 0 -9 -13v-90h145zM163 627q-26 0 -45 18.5t-19 44.5
q0 27 19 47t45 20q27 0 46.5 -20t19.5 -47q0 -26 -19.5 -44.5t-46.5 -18.5zM331 627q-27 0 -46 18.5t-19 44.5q0 27 19 47t46 20q25 0 44 -20t19 -47q0 -26 -19 -44.5t-44 -18.5z" />
    <glyph glyph-name="igrave" unicode="&#xec;" horiz-adv-x="299" 
d="M198 560v-418q0 -22 24 -22h54v-130h-57q-63 0 -109 44q-44 46 -44 108v418h132zM-33 765h126l101 -131h-125z" />
    <glyph glyph-name="iacute" unicode="&#xed;" horiz-adv-x="299" 
d="M198 560v-418q0 -22 24 -22h54v-130h-57q-63 0 -109 44q-44 46 -44 108v418h132zM176 765h125l-101 -131h-126z" />
    <glyph glyph-name="icircumflex" unicode="&#xee;" horiz-adv-x="299" 
d="M198 560v-418q0 -22 24 -22h54v-130h-57q-63 0 -109 44q-44 46 -44 108v418h132zM93 795h77l134 -158h-115l-56 73h-3l-57 -73h-114z" />
    <glyph glyph-name="idieresis" unicode="&#xef;" horiz-adv-x="299" 
d="M49 627q-26 0 -45 18.5t-19 44.5q0 27 19 47t45 20q27 0 46.5 -20t19.5 -47q0 -26 -19.5 -44.5t-46.5 -18.5zM217 627q-27 0 -46 18.5t-19 44.5q0 27 19 47t46 20q25 0 44 -20t19 -47q0 -26 -19 -44.5t-44 -18.5zM198 560v-418q0 -22 24 -22h54v-130h-57q-63 0 -109 44
q-44 46 -44 108v418h132z" />
    <glyph glyph-name="eth" unicode="&#xf0;" horiz-adv-x="524" 
d="M456 585h57v-120h-57v-340q0 -55 -39 -95q-39 -39 -94 -39h-138q-55 0 -94 39q-39 40 -39 95v176q0 55 39 94t94 39h141v31h-76v120h76v62q0 7 -1.5 8t-7.5 1h-131q-5 0 -5 -6v-81h-130v90q0 53 37 90t91 37h138q59 0 99 -40t40 -99v-62zM326 135v155q0 14 -8 14h-128
q-8 0 -8 -13v-156q0 -13 8 -13h128q8 0 8 13z" />
    <glyph glyph-name="ntilde" unicode="&#xf1;" 
d="M137 624l-5 111q25 31 62 31q26 0 69 -18q46 -17 68 -17q31 0 56 28l5 -111q-27 -32 -61 -32q-24 0 -70 17q-43 18 -67 18q-32 0 -57 -27zM191 560v-47q127 56 179 56q40 0 68 -28t28 -68v-473h-130v407q0 18 -10 18l-135 -42v-383h-130v560h130z" />
    <glyph glyph-name="ograve" unicode="&#xf2;" horiz-adv-x="507" 
d="M51 123v314q0 54 38 94q39 39 95 39h139q55 0 94 -39t39 -94v-314q0 -55 -39 -94t-94 -39h-139q-55 0 -94 39t-39 94zM181 427v-294q0 -13 10 -13h125q10 0 10 13v294q0 13 -10 13h-125q-10 0 -10 -13zM88 765h126l101 -131h-125z" />
    <glyph glyph-name="oacute" unicode="&#xf3;" horiz-adv-x="507" 
d="M51 123v314q0 54 38 94q39 39 95 39h139q55 0 94 -39t39 -94v-314q0 -55 -39 -94t-94 -39h-139q-55 0 -94 39t-39 94zM181 427v-294q0 -13 10 -13h125q10 0 10 13v294q0 13 -10 13h-125q-10 0 -10 -13zM298 765h125l-101 -131h-126z" />
    <glyph glyph-name="ocircumflex" unicode="&#xf4;" horiz-adv-x="507" 
d="M51 123v314q0 54 38 94q39 39 95 39h139q55 0 94 -39t39 -94v-314q0 -55 -39 -94t-94 -39h-139q-55 0 -94 39t-39 94zM181 427v-294q0 -13 10 -13h125q10 0 10 13v294q0 13 -10 13h-125q-10 0 -10 -13zM214 795h77l134 -158h-115l-56 73h-3l-57 -73h-114z" />
    <glyph glyph-name="otilde" unicode="&#xf5;" horiz-adv-x="507" 
d="M51 123v314q0 54 38 94q39 39 95 39h139q55 0 94 -39t39 -94v-314q0 -55 -39 -94t-94 -39h-139q-55 0 -94 39t-39 94zM181 427v-294q0 -13 10 -13h125q10 0 10 13v294q0 13 -10 13h-125q-10 0 -10 -13zM129 624l-5 111q25 31 62 31q26 0 69 -18q46 -17 68 -17q31 0 56 28
l5 -111q-27 -32 -61 -32q-24 0 -70 17q-43 18 -67 18q-32 0 -57 -27z" />
    <glyph glyph-name="odieresis" unicode="&#xf6;" horiz-adv-x="507" 
d="M170 627q-26 0 -45 18.5t-19 44.5q0 27 19 47t45 20q27 0 46.5 -20t19.5 -47q0 -26 -19.5 -44.5t-46.5 -18.5zM338 627q-27 0 -46 18.5t-19 44.5q0 27 19 47t46 20q25 0 44 -20t19 -47q0 -26 -18.5 -44.5t-44.5 -18.5zM51 123v314q0 54 38 94q39 39 95 39h139
q55 0 94 -39t39 -94v-314q0 -55 -39 -94t-94 -39h-139q-55 0 -94 39t-39 94zM181 427v-294q0 -13 10 -13h125q10 0 10 13v294q0 13 -10 13h-125q-10 0 -10 -13z" />
    <glyph glyph-name="divide" unicode="&#xf7;" horiz-adv-x="525" 
d="M194 511q0 28 20 48.5t48 20.5t48.5 -20.5t20.5 -48.5t-20.5 -48t-48.5 -20t-48 19.5t-20 48.5zM438 416v-129h-350v129h350zM214 242q20 21 48 21t48 -21q21 -20 21 -48t-21 -48q-20 -20 -48 -20t-48 20t-20 48t20 48z" />
    <glyph glyph-name="oslash" unicode="&#xf8;" horiz-adv-x="535" 
d="M484 590l-38 -72q27 -34 27 -81v-314q0 -55 -39 -94t-94 -39h-139q-13 0 -27 3l-11 -24h-112l39 81q-22 32 -22 73v314q0 55 39 94t94 39h139q4 0 20 -2l13 22h111zM302 440h-94q-10 0 -10 -13v-191zM245 120h88q10 0 10 13v180z" />
    <glyph glyph-name="ugrave" unicode="&#xf9;" 
d="M331 0v47q-127 -56 -179 -56q-40 0 -68 28t-28 68v473h130v-407q0 -18 10 -18l135 42v383h130v-560h-130zM77 765h126l101 -131h-125z" />
    <glyph glyph-name="uacute" unicode="&#xfa;" 
d="M331 0v47q-127 -56 -179 -56q-40 0 -68 28t-28 68v473h130v-407q0 -18 10 -18l135 42v383h130v-560h-130zM287 765h125l-101 -131h-126z" />
    <glyph glyph-name="ucircumflex" unicode="&#xfb;" 
d="M331 0v47q-127 -56 -179 -56q-40 0 -68 28t-28 68v473h130v-407q0 -18 10 -18l135 42v383h130v-560h-130zM204 795h77l134 -158h-115l-56 73h-3l-57 -73h-114z" />
    <glyph glyph-name="udieresis" unicode="&#xfc;" 
d="M159 627q-26 0 -45 18.5t-19 44.5q0 27 19 47t45 20q27 0 46.5 -20t19.5 -47q0 -26 -19.5 -44.5t-46.5 -18.5zM327 627q-27 0 -46 18.5t-19 44.5q0 27 19 47t46 20q25 0 44 -20t19 -47q0 -26 -19 -44.5t-44 -18.5zM331 0v47q-127 -56 -179 -56q-40 0 -68 28t-28 68v473
h130v-407q0 -18 10 -18l135 42v383h130v-560h-130z" />
    <glyph glyph-name="yacute" unicode="&#xfd;" horiz-adv-x="477" 
d="M283 765h125l-101 -131h-126zM151 559l59 -433q3 -11 6 -11h48q6 0 8 14l58 430h130l-113 -715h-124l22 145h-92q-15 0 -28 10.5t-15 23.5l-92 536h133z" />
    <glyph glyph-name="thorn" unicode="&#xfe;" horiz-adv-x="517" 
d="M191 764v-251l36 13l44 16q78 28 108 28q40 0 63.5 -26t22.5 -71v-350q0 -56 -39 -95q-38 -39 -93 -38h-142v-137h-130v911h130zM335 133v277v2q0 12 -10 12q-13 0 -134 -40v-251q1 -15 13 -15h118q13 0 13 15z" />
    <glyph glyph-name="ydieresis" unicode="&#xff;" horiz-adv-x="477" 
d="M156 627q-26 0 -45 18.5t-19 44.5q0 27 19 47t45 20q27 0 46.5 -20t19.5 -47q0 -26 -19.5 -44.5t-46.5 -18.5zM324 627q-27 0 -46 18.5t-19 44.5q0 27 19 47t46 20q25 0 44 -20t19 -47q0 -26 -18.5 -44.5t-44.5 -18.5zM151 559l59 -433q3 -11 6 -11h48q6 0 8 14l58 430
h130l-113 -715h-124l22 145h-92q-15 0 -28 10.5t-15 23.5l-92 536h133z" />
    <glyph glyph-name="Amacron" unicode="&#x100;" horiz-adv-x="568" 
d="M395 174h-221l-26 -174h-130l125 766q2 13 15 23.5t28 10.5h197q15 0 28 -10.5t15 -23.5l125 -766h-130zM376 304l-53 355q-3 11 -9 11h-60q-6 0 -8 -11l-53 -355h183zM175 976h220v-99h-220v99z" />
    <glyph glyph-name="amacron" unicode="&#x101;" horiz-adv-x="491" 
d="M31 86v103q0 82 33 113q26 24 66 36l175 27v51q0 23 -24 23h-73q-25 0 -25 -23v-18h-130v38q0 63 45 98q46 36 106 36h80q60 0 105 -36q46 -34 46 -97v-437h-130v47q-124 -57 -178 -57q-40 0 -68 28t-28 68zM161 174v-28q0 -17 11 -17l133 41v89l-124 -21
q-20 -12 -20 -64zM136 736h220v-99h-220v99z" />
    <glyph glyph-name="Abreve" unicode="&#x102;" horiz-adv-x="568" 
d="M395 174h-221l-26 -174h-130l125 766q2 13 15 23.5t28 10.5h197q15 0 28 -10.5t15 -23.5l125 -766h-130zM376 304l-53 355q-3 11 -9 11h-60q-6 0 -8 -11l-53 -355h183zM307 990h74q0 -40 -28 -68t-68 -28t-68 28t-28 68h75q0 -20 21 -20q22 0 22 20z" />
    <glyph glyph-name="abreve" unicode="&#x103;" horiz-adv-x="491" 
d="M31 86v103q0 82 33 113q26 24 66 36l175 27v51q0 23 -24 23h-73q-25 0 -25 -23v-18h-130v38q0 63 45 98q46 36 106 36h80q60 0 105 -36q46 -34 46 -97v-437h-130v47q-124 -57 -178 -57q-40 0 -68 28t-28 68zM161 174v-28q0 -17 11 -17l133 41v89l-124 -21
q-20 -12 -20 -64zM268 750h74q0 -40 -28 -68t-68 -28t-68 28t-28 68h75q0 -20 21 -20q22 0 22 20z" />
    <glyph glyph-name="Aogonek" unicode="&#x104;" horiz-adv-x="568" 
d="M573 -41l48 -64q-55 -48 -117 -48q-52 0 -81.5 30t-29.5 81q0 35 24 67l-22 149h-221l-26 -174h-130l125 766q2 13 15 23.5t28 10.5h197q15 0 28 -10.5t15 -23.5l125 -766h-1q-22 0 -39.5 -10.5t-17.5 -27.5q0 -25 27 -25q18 0 53 22zM193 304h183l-53 355q-3 11 -9 11
h-60q-6 0 -8 -11z" />
    <glyph glyph-name="aogonek" unicode="&#x105;" horiz-adv-x="491" 
d="M458 -41l48 -64q-56 -48 -117 -48q-52 0 -81.5 30t-29.5 81q0 38 27 71v18q-124 -57 -178 -57q-40 0 -68 28t-28 68v103q0 82 33 113q26 24 66 36l175 27v51q0 23 -24 23h-73q-25 0 -25 -23v-18h-130v38q0 63 45 98q46 36 106 36h80q60 0 105 -36q46 -34 46 -97v-437
q-22 0 -39.5 -10.5t-17.5 -27.5q0 -25 27 -25q18 0 53 22zM161 174v-28q0 -17 11 -17l133 41v89l-124 -21q-20 -12 -20 -64z" />
    <glyph glyph-name="Cacute" unicode="&#x106;" horiz-adv-x="545" 
d="M56 134v528q0 60 42 102t102 42h150q60 0 102 -42t42 -102v-126h-130v124q0 16 -15 16h-148q-15 0 -15 -16v-525q0 -15 14 -15h153q11 0 11 15v157h130v-158q0 -60 -42 -102t-102 -42h-150q-60 0 -102 42t-42 102zM317 1005h125l-101 -131h-126z" />
    <glyph glyph-name="cacute" unicode="&#x107;" horiz-adv-x="481" 
d="M51 123v314q0 54 38 94q39 39 95 39h139q55 0 94 -39t39 -94v-75h-130v66q0 12 -9 12h-127q-9 0 -9 -12v-295q0 -13 9 -13h127q9 0 9 13v62h130v-72q0 -55 -39 -94t-94 -39h-139q-55 0 -94 39t-39 94zM286 765h125l-101 -131h-126z" />
    <glyph glyph-name="Ccircumflex" unicode="&#x108;" horiz-adv-x="545" 
d="M56 134v528q0 60 42 102t102 42h150q60 0 102 -42t42 -102v-126h-130v124q0 16 -15 16h-148q-15 0 -15 -16v-525q0 -15 14 -15h153q11 0 11 15v157h130v-158q0 -60 -42 -102t-102 -42h-150q-60 0 -102 42t-42 102zM234 1035h77l134 -158h-115l-56 73h-3l-57 -73h-114z
" />
    <glyph glyph-name="ccircumflex" unicode="&#x109;" horiz-adv-x="481" 
d="M51 123v314q0 54 38 94q39 39 95 39h139q55 0 94 -39t39 -94v-75h-130v66q0 12 -9 12h-127q-9 0 -9 -12v-295q0 -13 9 -13h127q9 0 9 13v62h130v-72q0 -55 -39 -94t-94 -39h-139q-55 0 -94 39t-39 94zM202 795h77l134 -158h-115l-56 73h-3l-57 -73h-114z" />
    <glyph glyph-name="Cdotaccent" unicode="&#x10a;" horiz-adv-x="545" 
d="M56 134v528q0 60 42 102t102 42h150q60 0 102 -42t42 -102v-126h-130v124q0 16 -15 16h-148q-15 0 -15 -16v-525q0 -15 14 -15h153q11 0 11 15v157h130v-158q0 -60 -42 -102t-102 -42h-150q-60 0 -102 42t-42 102zM205 926q0 29 20 49.5t48 20.5t48.5 -21t20.5 -49
t-20.5 -48t-48.5 -20t-48 20t-20 48z" />
    <glyph glyph-name="cdotaccent" unicode="&#x10b;" horiz-adv-x="481" 
d="M51 123v314q0 54 38 94q39 39 95 39h139q55 0 94 -39t39 -94v-75h-130v66q0 12 -9 12h-127q-9 0 -9 -12v-295q0 -13 9 -13h127q9 0 9 13v62h130v-72q0 -55 -39 -94t-94 -39h-139q-55 0 -94 39t-39 94zM173 686q0 29 20 49.5t48 20.5t48.5 -21t20.5 -49t-20.5 -48
t-48.5 -20t-48 20t-20 48z" />
    <glyph glyph-name="Ccaron" unicode="&#x10c;" horiz-adv-x="545" 
d="M56 134v528q0 60 42 102t102 42h150q60 0 102 -42t42 -102v-126h-130v124q0 16 -15 16h-148q-15 0 -15 -16v-525q0 -15 14 -15h153q11 0 11 15v157h130v-158q0 -60 -42 -102t-102 -42h-150q-60 0 -102 42t-42 102zM102 1014h115l52 -58h3l52 58h115l-134 -158h-69z" />
    <glyph glyph-name="ccaron" unicode="&#x10d;" horiz-adv-x="481" 
d="M51 123v314q0 54 38 94q39 39 95 39h139q55 0 94 -39t39 -94v-75h-130v66q0 12 -9 12h-127q-9 0 -9 -12v-295q0 -13 9 -13h127q9 0 9 13v62h130v-72q0 -55 -39 -94t-94 -39h-139q-55 0 -94 39t-39 94zM70 774h115l52 -58h3l52 58h115l-134 -158h-69z" />
    <glyph glyph-name="Dcaron" unicode="&#x10e;" horiz-adv-x="565" 
d="M71 800h294q62 0 102 -40q42 -39 42 -98v-518q0 -60 -42 -102t-102 -42h-294v800zM201 130h164q8 0 11 3t3 11v513q0 13 -14 13h-164v-540zM112 1014h115l52 -58h3l52 58h115l-134 -158h-69z" />
    <glyph glyph-name="dcaron" unicode="&#x10f;" horiz-adv-x="626" 
d="M627 766v-169h-115v169h115zM457 707v-707h-130v47l-36 -13l-44 -16q-78 -28 -108 -28q-40 0 -63.5 26t-22.5 71v350q0 55 38 95q39 39 94 38h142v132h-1v62h130v-57h1zM327 176v251q-1 15 -13 15h-118q-13 0 -13 -15v-277v-2q0 -12 10 -12q13 0 134 40z" />
    <glyph glyph-name="Dcroat" unicode="&#x110;" horiz-adv-x="565" 
d="M71 800h294q62 0 102 -40q42 -39 42 -98v-518q0 -60 -42 -102t-102 -42h-294v368h-51v129h51v303zM379 144v513q0 13 -14 13h-164v-173h94v-129h-94v-238h164q8 0 11 3t3 11z" />
    <glyph glyph-name="dslash" unicode="&#x111;" horiz-adv-x="517" 
d="M518 714v-114h-61v-600h-130v47l-36 -13l-44 -16q-78 -28 -108 -28q-40 0 -63.5 26t-22.5 71v350q0 55 38 95q39 39 94 38h142v30h-132v114h131v50h130v-50h62zM327 176v251q-1 15 -13 15h-118q-13 0 -13 -15v-277v-2q0 -12 10 -12q13 0 134 40z" />
    <glyph glyph-name="Emacron" unicode="&#x112;" horiz-adv-x="484" 
d="M449 800v-130h-248v-194h221v-130h-221v-216h248v-130h-378v800h378zM157 976h220v-99h-220v99z" />
    <glyph glyph-name="emacron" unicode="&#x113;" horiz-adv-x="491" 
d="M51 123v314q0 54 38 94q39 39 95 39h139q55 0 94 -39t39 -94v-200h-275v-104q0 -13 9 -13h127q9 0 9 13v62h130v-72q0 -55 -39 -94t-94 -39h-139q-56 0 -95 39q-38 40 -38 94zM326 337v90q0 13 -9 13h-127q-9 0 -9 -13v-90h145zM137 736h220v-99h-220v99z" />
    <glyph glyph-name="Ebreve" unicode="&#x114;" horiz-adv-x="484" 
d="M449 800v-130h-248v-194h221v-130h-221v-216h248v-130h-378v800h378zM289 990h74q0 -40 -28 -68t-68 -28t-68 28t-28 68h75q0 -20 21 -20q22 0 22 20z" />
    <glyph glyph-name="ebreve" unicode="&#x115;" horiz-adv-x="491" 
d="M51 123v314q0 54 38 94q39 39 95 39h139q55 0 94 -39t39 -94v-200h-275v-104q0 -13 9 -13h127q9 0 9 13v62h130v-72q0 -55 -39 -94t-94 -39h-139q-56 0 -95 39q-38 40 -38 94zM326 337v90q0 13 -9 13h-127q-9 0 -9 -13v-90h145zM269 750h74q0 -40 -28 -68t-68 -28t-68 28
t-28 68h75q0 -20 21 -20q22 0 22 20z" />
    <glyph glyph-name="Edotaccent" unicode="&#x116;" horiz-adv-x="484" 
d="M449 800v-130h-248v-194h221v-130h-221v-216h248v-130h-378v800h378zM199 926q0 29 20 49.5t48 20.5t48.5 -21t20.5 -49t-20.5 -48t-48.5 -20t-48 20t-20 48z" />
    <glyph glyph-name="edotaccent" unicode="&#x117;" horiz-adv-x="491" 
d="M51 123v314q0 54 38 94q39 39 95 39h139q55 0 94 -39t39 -94v-200h-275v-104q0 -13 9 -13h127q9 0 9 13v62h130v-72q0 -55 -39 -94t-94 -39h-139q-56 0 -95 39q-38 40 -38 94zM326 337v90q0 13 -9 13h-127q-9 0 -9 -13v-90h145zM178 686q0 29 20 49.5t48 20.5t48.5 -21
t20.5 -49t-20.5 -48t-48.5 -20t-48 20t-20 48z" />
    <glyph glyph-name="Eogonek" unicode="&#x118;" horiz-adv-x="484" 
d="M472 -41l48 -64q-56 -48 -117 -48q-52 0 -81.5 30t-29.5 81q0 22 9 42h-230v800h378v-130h-248v-194h221v-130h-221v-216h248v-130q-22 0 -39.5 -10.5t-17.5 -27.5q0 -25 27 -25q18 0 53 22z" />
    <glyph glyph-name="eogonek" unicode="&#x119;" horiz-adv-x="491" 
d="M456 237h-275v-104q0 -13 9 -13h127q9 0 9 13v62h130v-72q0 -55 -39 -94t-94 -39q-22 0 -39.5 -10.5t-17.5 -27.5q0 -25 27 -25q18 0 53 22l48 -64q-56 -48 -117 -48q-52 0 -81.5 30t-29.5 81q0 22 9 42q-53 5 -89 42q-35 38 -35 91v314q0 54 38 94q39 39 95 39h139
q55 0 94 -39t39 -94v-200zM181 427v-90h145v90q0 13 -9 13h-127q-9 0 -9 -13z" />
    <glyph glyph-name="Ecaron" unicode="&#x11a;" horiz-adv-x="484" 
d="M449 800v-130h-248v-194h221v-130h-221v-216h248v-130h-378v800h378zM96 1014h115l52 -58h3l52 58h115l-134 -158h-69z" />
    <glyph glyph-name="ecaron" unicode="&#x11b;" horiz-adv-x="491" 
d="M51 123v314q0 54 38 94q39 39 95 39h139q55 0 94 -39t39 -94v-200h-275v-104q0 -13 9 -13h127q9 0 9 13v62h130v-72q0 -55 -39 -94t-94 -39h-139q-56 0 -95 39q-38 40 -38 94zM326 337v90q0 13 -9 13h-127q-9 0 -9 -13v-90h145zM75 774h115l52 -58h3l52 58h115l-134 -158
h-69z" />
    <glyph glyph-name="Gcircumflex" unicode="&#x11c;" horiz-adv-x="539" 
d="M56 134v528q0 60 42 102t102 42h145q60 0 102 -42t42 -102v-126h-130v124q0 16 -15 16h-143q-15 0 -15 -16v-522q0 -18 17 -18h138q18 0 18 19v163h-109v130h239v-298q0 -60 -42 -102t-102 -42h-145q-60 0 -102 42t-42 102zM231 1035h77l134 -158h-115l-56 73h-3l-57 -73
h-114z" />
    <glyph glyph-name="gcircumflex" unicode="&#x11d;" horiz-adv-x="512" 
d="M184 571h139q55 0 94 -39t39 -94v-463q0 -55 -38 -93t-94 -38h-139q-55 0 -94 39t-39 94v34h130v-24q0 -13 9 -13h127q9 0 9 13v142l-34 -17q-29 -12 -77 -30q-44 -16 -69 -16q-40 0 -68 28t-28 68v276q0 55 39 94t94 39zM326 269v159q0 13 -9 13h-127q-9 0 -9 -13v-201
q0 -20 17 -20q8 0 39 15q60 31 61 32zM214 795h77l134 -158h-115l-56 73h-3l-57 -73h-114z" />
    <glyph glyph-name="Gbreve" unicode="&#x11e;" horiz-adv-x="539" 
d="M56 134v528q0 60 42 102t102 42h145q60 0 102 -42t42 -102v-126h-130v124q0 16 -15 16h-143q-15 0 -15 -16v-522q0 -18 17 -18h138q18 0 18 19v163h-109v130h239v-298q0 -60 -42 -102t-102 -42h-145q-60 0 -102 42t-42 102zM293 990h74q0 -40 -28 -68t-68 -28t-68 28
t-28 68h75q0 -20 21 -20q22 0 22 20z" />
    <glyph glyph-name="gbreve" unicode="&#x11f;" horiz-adv-x="512" 
d="M184 571h139q55 0 94 -39t39 -94v-463q0 -55 -38 -93t-94 -38h-139q-55 0 -94 39t-39 94v34h130v-24q0 -13 9 -13h127q9 0 9 13v142l-34 -17q-29 -12 -77 -30q-44 -16 -69 -16q-40 0 -68 28t-28 68v276q0 55 39 94t94 39zM326 269v159q0 13 -9 13h-127q-9 0 -9 -13v-201
q0 -20 17 -20q8 0 39 15q60 31 61 32zM276 750h74q0 -40 -28 -68t-68 -28t-68 28t-28 68h75q0 -20 21 -20q22 0 22 20z" />
    <glyph glyph-name="Gdotaccent" unicode="&#x120;" horiz-adv-x="539" 
d="M56 134v528q0 60 42 102t102 42h145q60 0 102 -42t42 -102v-126h-130v124q0 16 -15 16h-143q-15 0 -15 -16v-522q0 -18 17 -18h138q18 0 18 19v163h-109v130h239v-298q0 -60 -42 -102t-102 -42h-145q-60 0 -102 42t-42 102zM202 926q0 29 20 49.5t48 20.5t48.5 -21
t20.5 -49t-20.5 -48t-48.5 -20t-48 20t-20 48z" />
    <glyph glyph-name="gdotaccent" unicode="&#x121;" horiz-adv-x="512" 
d="M184 571h139q55 0 94 -39t39 -94v-463q0 -55 -38 -93t-94 -38h-139q-55 0 -94 39t-39 94v34h130v-24q0 -13 9 -13h127q9 0 9 13v142l-34 -17q-29 -12 -77 -30q-44 -16 -69 -16q-40 0 -68 28t-28 68v276q0 55 39 94t94 39zM326 269v159q0 13 -9 13h-127q-9 0 -9 -13v-201
q0 -20 17 -20q8 0 39 15q60 31 61 32zM185 686q0 29 20 49.5t48 20.5t48.5 -21t20.5 -49t-20.5 -48t-48.5 -20t-48 20t-20 48z" />
    <glyph glyph-name="Gcommaaccent" unicode="&#x122;" horiz-adv-x="539" 
d="M56 134v528q0 60 42 102t102 42h145q60 0 102 -42t42 -102v-126h-130v124q0 16 -15 16h-143q-15 0 -15 -16v-522q0 -18 17 -18h138q18 0 18 19v163h-109v130h239v-298q0 -60 -42 -102t-102 -42h-145q-60 0 -102 42t-42 102zM328 -42v-168h-120v168h120z" />
    <glyph glyph-name="gcommaaccent" unicode="&#x123;" horiz-adv-x="512" 
d="M195 632v168h120v-168h-120zM184 571h139q55 0 94 -39t39 -94v-463q0 -55 -38 -93t-94 -38h-139q-55 0 -94 39t-39 94v34h130v-24q0 -13 9 -13h127q9 0 9 13v142l-34 -17q-29 -12 -77 -30q-44 -16 -69 -16q-40 0 -68 28t-28 68v276q0 55 39 94t94 39zM326 269v159
q0 13 -9 13h-127q-9 0 -9 -13v-201q0 -20 17 -20q8 0 39 15q60 31 61 32z" />
    <glyph glyph-name="Hcircumflex" unicode="&#x124;" horiz-adv-x="577" 
d="M201 800v-294h175v294h130v-800h-130v378h-175v-378h-130v800h130zM253 1035h77l134 -158h-115l-56 73h-3l-57 -73h-114z" />
    <glyph glyph-name="hcircumflex" unicode="&#x125;" 
d="M191 765v-252q127 56 179 56q40 0 68 -28t28 -68v-473h-130v407q0 18 -10 18l-135 -42v-383h-130v765h130zM97 1035h77l134 -158h-115l-56 73h-3l-57 -73h-114z" />
    <glyph glyph-name="Hbar" unicode="&#x126;" horiz-adv-x="575" 
d="M555 730v-128h-50v-602h-130v378h-175v-378h-130v602h-50v128h50v70h130v-70h175v70h130v-70h50zM375 506v96h-175v-96h175z" />
    <glyph glyph-name="hbar" unicode="&#x127;" 
d="M191 600v-87q127 56 179 56q40 0 68 -28t28 -68v-473h-130v407q0 18 -10 18l-135 -42v-383h-130v600h-61v114h61v51h130v-51h131v-114h-131z" />
    <glyph glyph-name="Itilde" unicode="&#x128;" horiz-adv-x="282" 
d="M17 864l-5 111q25 31 62 31q26 0 69 -18q46 -17 68 -17q31 0 56 28l5 -111q-27 -32 -61 -32q-24 0 -70 17q-44 18 -67 18q-32 0 -57 -27zM206 800v-800h-130v800h130z" />
    <glyph glyph-name="itilde" unicode="&#x129;" horiz-adv-x="299" 
d="M8 624l-5 111q25 31 62 31q25 0 69 -18q46 -17 68 -17q31 0 56 28l5 -111q-27 -32 -61 -32q-24 0 -70 17q-43 18 -67 18q-31 0 -57 -27zM198 560v-418q0 -22 24 -22h54v-130h-57q-63 0 -109 44q-44 46 -44 108v418h132z" />
    <glyph glyph-name="Imacron" unicode="&#x12a;" horiz-adv-x="282" 
d="M206 800v-800h-130v800h130zM32 976h220v-99h-220v99z" />
    <glyph glyph-name="imacron" unicode="&#x12b;" horiz-adv-x="299" 
d="M198 560v-418q0 -22 24 -22h54v-130h-57q-63 0 -109 44q-44 46 -44 108v418h132zM23 736h220v-99h-220v99z" />
    <glyph glyph-name="Ibreve" unicode="&#x12c;" horiz-adv-x="282" 
d="M164 990h74q0 -40 -28 -68t-68 -28t-68 28t-28 68h75q0 -20 21 -20q22 0 22 20zM206 800v-800h-130v800h130z" />
    <glyph glyph-name="ibreve" unicode="&#x12d;" horiz-adv-x="299" 
d="M198 560v-418q0 -22 24 -22h54v-130h-57q-63 0 -109 44q-44 46 -44 108v418h132zM155 750h74q0 -40 -28 -68t-68 -28t-68 28t-28 68h75q0 -20 21 -20q22 0 22 20z" />
    <glyph glyph-name="Iogonek" unicode="&#x12e;" horiz-adv-x="282" 
d="M229 -41l48 -64q-55 -48 -117 -48q-52 0 -81.5 30t-29.5 81q0 38 27 71v771h130v-800q-22 0 -39.5 -10.5t-17.5 -27.5q0 -25 27 -25q18 0 53 22z" />
    <glyph glyph-name="iogonek" unicode="&#x12f;" horiz-adv-x="299" 
d="M196 765v-106h-130v106h130zM299 -51l48 -64q-55 -48 -117 -48q-52 0 -81.5 30t-29.5 81q0 32 21 63q-74 46 -74 131v418h132v-418q0 -22 24 -22h54v-130q-22 0 -39.5 -10.5t-17.5 -27.5q0 -25 27 -25q18 0 53 22z" />
    <glyph glyph-name="Idot" unicode="&#x130;" horiz-adv-x="282" 
d="M73 926q0 29 20 49.5t48 20.5t48.5 -21t20.5 -49t-20.5 -48t-48.5 -20t-48 20t-20 48zM206 800v-800h-130v800h130z" />
    <glyph glyph-name="dotlessi" unicode="&#x131;" horiz-adv-x="299" 
d="M198 560v-418q0 -22 24 -22h54v-130h-57q-63 0 -109 44q-44 46 -44 108v418h132z" />
    <glyph glyph-name="IJ" unicode="&#x132;" horiz-adv-x="792" 
d="M302 292h130v-158q0 -8 3 -11t11 -3h146q8 0 11 3t3 11v666h130v-666q0 -60 -42 -102t-102 -42h-146q-60 0 -102 42t-42 102v158zM206 800v-800h-130v800h130z" />
    <glyph glyph-name="ij" unicode="&#x133;" horiz-adv-x="579" 
d="M196 765v-106h-130v106h130zM380 765h131v-106h-131v106zM198 560v-418q0 -22 24 -22h54v-130h-57q-63 0 -109 44q-44 46 -44 108v418h132zM381 560h132v-565q0 -63 -45 -107q-45 -45 -108 -44h-74v130h71q24 -2 24 21v565z" />
    <glyph glyph-name="Jcircumflex" unicode="&#x134;" horiz-adv-x="510" 
d="M150 292v-158q0 -8 3 -11t11 -3h146q8 0 11 3t3 11v666h130v-666q0 -60 -42 -102t-102 -42h-146q-60 0 -102 42t-42 102v158h130zM344 1035h77l134 -158h-115l-56 73h-3l-57 -73h-114z" />
    <glyph glyph-name="jcircumflex" unicode="&#x135;" horiz-adv-x="280" 
d="M109 795h77l134 -158h-115l-56 73h-3l-57 -73h-114zM214 560v-565q0 -63 -45 -107q-45 -45 -108 -44h-74v130h71q24 -2 24 21v565h132z" />
    <glyph glyph-name="Kcommaaccent" unicode="&#x136;" horiz-adv-x="595" 
d="M200 800v-294h89l158 294h137l-187 -354v-9l187 -437h-137l-158 377h-89v-377h-129v800h129zM368 -42v-168h-120v168h120z" />
    <glyph glyph-name="kcommaaccent" unicode="&#x137;" 
d="M521 0h-153l-120 238h-58v-238h-129v765h129v-399h58l111 194h145l-148 -254v-8zM329 -42v-168h-120v168h120z" />
    <glyph glyph-name="kgreenlandic" unicode="&#x138;" 
d="M61 560h129v-194h58l111 194h145l-148 -254v-8l165 -298h-153l-120 238h-58v-238h-129v560z" />
    <glyph glyph-name="Lacute" unicode="&#x139;" horiz-adv-x="454" 
d="M186 1005h125l-101 -131h-126zM200 800v-670h247v-130h-376v800h129z" />
    <glyph glyph-name="lacute" unicode="&#x13a;" horiz-adv-x="299" 
d="M176 1005h125l-101 -131h-126zM276 120v-130h-57q-63 0 -109 44q-44 46 -44 108v622h130v-204h2v-418q0 -22 24 -22h54z" />
    <glyph glyph-name="Lcommaaccent" unicode="&#x13b;" horiz-adv-x="454" 
d="M200 800v-670h247v-130h-376v800h129zM288 -42v-168h-120v168h120z" />
    <glyph glyph-name="lcommaaccent" unicode="&#x13c;" horiz-adv-x="299" 
d="M276 120v-130h-57q-63 0 -109 44q-44 46 -44 108v622h130v-204h2v-418q0 -22 24 -22h54zM222 -42v-168h-120v168h120z" />
    <glyph glyph-name="Lcaron" unicode="&#x13d;" horiz-adv-x="454" 
d="M200 800v-670h247v-130h-376v800h129zM409 766v-169h-115v169h115z" />
    <glyph glyph-name="lcaron" unicode="&#x13e;" horiz-adv-x="356" 
d="M372 766v-169h-115v169h115zM276 120v-130h-57q-63 0 -109 44q-44 46 -44 108v622h130v-204h2v-418q0 -22 24 -22h54z" />
    <glyph glyph-name="Ldot" unicode="&#x13f;" horiz-adv-x="454" 
d="M200 800v-670h247v-130h-376v800h129zM352 392q-28 0 -48 20t-20 48t20 48.5t48 20.5t49 -20.5t21 -48.5t-20.5 -48t-49.5 -20z" />
    <glyph glyph-name="ldot" unicode="&#x140;" horiz-adv-x="362" 
d="M274 120v-130h-57q-63 0 -109 44q-44 46 -44 108v622h130v-204h2v-418q0 -22 24 -22h54zM302 392q-28 0 -48 20t-20 48t20 48.5t48 20.5t49 -20.5t21 -48.5t-20.5 -48t-49.5 -20z" />
    <glyph glyph-name="Lslash" unicode="&#x141;" horiz-adv-x="454" 
d="M200 130h247v-130h-376v341l-60 -23v129l60 23v330h129v-279l67 26v-129l-67 -26v-262z" />
    <glyph glyph-name="lslash" unicode="&#x142;" horiz-adv-x="315" 
d="M221 120h54v-130h-57q-63 0 -109 44q-44 46 -44 108v194l-47 -18v129l47 18v299h130v-204h2v-43l77 30v-129l-77 -30v-246q0 -22 24 -22z" />
    <glyph glyph-name="Nacute" unicode="&#x143;" horiz-adv-x="629" 
d="M296 800l127 -670h5v670h130v-800h-223l-129 670h-5v-670h-130v800h225zM360 1005h125l-101 -131h-126z" />
    <glyph glyph-name="nacute" unicode="&#x144;" 
d="M306 765h125l-101 -131h-126zM191 560v-47q127 56 179 56q40 0 68 -28t28 -68v-473h-130v407q0 18 -10 18l-135 -42v-383h-130v560h130z" />
    <glyph glyph-name="Ncommaaccent" unicode="&#x145;" horiz-adv-x="629" 
d="M296 800l127 -670h5v670h130v-800h-223l-129 670h-5v-670h-130v800h225zM374 -42v-168h-120v168h120z" />
    <glyph glyph-name="ncommaaccent" unicode="&#x146;" 
d="M191 560v-47q127 56 179 56q40 0 68 -28t28 -68v-473h-130v407q0 18 -10 18l-135 -42v-383h-130v560h130zM319 -42v-168h-120v168h120z" />
    <glyph glyph-name="Ncaron" unicode="&#x147;" horiz-adv-x="629" 
d="M296 800l127 -670h5v670h130v-800h-223l-129 670h-5v-670h-130v800h225zM144 1014h115l52 -58h3l52 58h115l-134 -158h-69z" />
    <glyph glyph-name="ncaron" unicode="&#x148;" 
d="M90 774h115l52 -58h3l52 58h115l-134 -158h-69zM191 560v-47q127 56 179 56q40 0 68 -28t28 -68v-473h-130v407q0 18 -10 18l-135 -42v-383h-130v560h130z" />
    <glyph glyph-name="napostrophe" unicode="&#x149;" 
d="M62 766v-169h-115v169h115zM191 560v-47q127 56 179 56q40 0 68 -28t28 -68v-473h-130v407q0 18 -10 18l-135 -42v-383h-130v560h130z" />
    <glyph glyph-name="Eng" unicode="&#x14a;" horiz-adv-x="629" 
d="M428 800h130v-805q0 -62 -45 -107q-44 -46 -106 -44h-92v130h89q24 -2 24 21v5h-93l-129 670h-5v-670h-130v800h225l127 -670h5v670z" />
    <glyph glyph-name="eng" unicode="&#x14b;" 
d="M191 560v-47q127 56 179 56q40 0 68 -28t28 -68v-478q-1 -62 -46 -107q-44 -45 -105 -44h-92v130h89q24 -2 24 21v412q0 18 -10 18l-135 -42v-383h-130v560h130z" />
    <glyph glyph-name="Omacron" unicode="&#x14c;" horiz-adv-x="550" 
d="M56 134v528q0 60 42 102t102 42h150q60 0 102 -42t42 -102v-528q0 -60 -42 -102t-102 -42h-150q-60 0 -102 42t-42 102zM186 662v-528q0 -8 3 -11t11 -3h150q8 0 11 3t3 11v528q0 8 -3 11t-11 3h-150q-8 0 -11 -3t-3 -11zM166 976h220v-99h-220v99z" />
    <glyph glyph-name="omacron" unicode="&#x14d;" horiz-adv-x="507" 
d="M51 123v314q0 54 38 94q39 39 95 39h139q55 0 94 -39t39 -94v-314q0 -55 -39 -94t-94 -39h-139q-55 0 -94 39t-39 94zM181 427v-294q0 -13 10 -13h125q10 0 10 13v294q0 13 -10 13h-125q-10 0 -10 -13zM144 736h220v-99h-220v99z" />
    <glyph glyph-name="Obreve" unicode="&#x14e;" horiz-adv-x="550" 
d="M56 134v528q0 60 42 102t102 42h150q60 0 102 -42t42 -102v-528q0 -60 -42 -102t-102 -42h-150q-60 0 -102 42t-42 102zM186 662v-528q0 -8 3 -11t11 -3h150q8 0 11 3t3 11v528q0 8 -3 11t-11 3h-150q-8 0 -11 -3t-3 -11zM298 990h74q0 -40 -28 -68t-68 -28t-68 28
t-28 68h75q0 -20 21 -20q22 0 22 20z" />
    <glyph glyph-name="obreve" unicode="&#x14f;" horiz-adv-x="507" 
d="M51 123v314q0 54 38 94q39 39 95 39h139q55 0 94 -39t39 -94v-314q0 -55 -39 -94t-94 -39h-139q-55 0 -94 39t-39 94zM181 427v-294q0 -13 10 -13h125q10 0 10 13v294q0 13 -10 13h-125q-10 0 -10 -13zM276 750h74q0 -40 -28 -68t-68 -28t-68 28t-28 68h75q0 -20 21 -20
q22 0 22 20z" />
    <glyph glyph-name="Ohungarumlaut" unicode="&#x150;" horiz-adv-x="550" 
d="M56 134v528q0 60 42 102t102 42h150q60 0 102 -42t42 -102v-528q0 -60 -42 -102t-102 -42h-150q-60 0 -102 42t-42 102zM186 662v-528q0 -8 3 -11t11 -3h150q8 0 11 3t3 11v528q0 8 -3 11t-11 3h-150q-8 0 -11 -3t-3 -11zM252 1005h110l-100 -131h-112zM392 1005h110
l-100 -131h-112z" />
    <glyph glyph-name="ohungarumlaut" unicode="&#x151;" horiz-adv-x="507" 
d="M51 123v314q0 54 38 94q39 39 95 39h139q55 0 94 -39t39 -94v-314q0 -55 -39 -94t-94 -39h-139q-55 0 -94 39t-39 94zM181 427v-294q0 -13 10 -13h125q10 0 10 13v294q0 13 -10 13h-125q-10 0 -10 -13zM230 765h110l-100 -131h-112zM370 765h110l-100 -131h-112z" />
    <glyph glyph-name="OE" unicode="&#x152;" horiz-adv-x="779" 
d="M743 670h-247v-164h220v-130h-220v-246h247v-130h-351q-17 -11 -40 -11h-152q-60 0 -102 42t-42 102v529q0 60 42 102t102 42h152q14 0 26 -6h365v-130zM200 118h152q14 0 14 17v527q0 8 -3 11t-11 3h-152q-8 0 -11 -3t-3 -11v-530q0 -8 3 -11t11 -3z" />
    <glyph glyph-name="oe" unicode="&#x153;" horiz-adv-x="766" 
d="M730 248h-274v-115q0 -13 8 -13h128q8 0 8 13v62h130v-72q0 -55 -39 -94t-94 -39h-138q-31 0 -67 10q-36 -10 -69 -10h-139q-55 0 -94 39t-39 94v314q0 54 38 94q39 39 95 39h139q31 0 70 -10q34 10 66 10h138q55 0 94 -39t39 -94v-189zM326 132v293q0 15 -8 15h-129
q-8 0 -8 -13v-294q0 -13 8 -13h129q5 0 8 12zM456 425v-78h144v80q0 13 -8 13h-128q-8 0 -8 -15z" />
    <glyph glyph-name="Racute" unicode="&#x154;" horiz-adv-x="563" 
d="M71 800h314q49 0 84 -35q36 -34 36 -85v-144q0 -38 -21.5 -70.5t-55.5 -47.5q37 -15 60.5 -47t23.5 -73v-298h-130v298q0 41 -23 55h-158v-353h-130v800zM201 483h149q24 11 24 51v126q0 12 -8 12h-165v-189zM321 1005h125l-101 -131h-126z" />
    <glyph glyph-name="racute" unicode="&#x155;" horiz-adv-x="486" 
d="M179 765h125l-101 -131h-126zM191 560v-47q127 56 179 56q40 0 68 -28t28 -68v-100h-130v30q0 24 -5 24q-13 0 -64 -15q-48 -14 -76 -29v-383h-130v560h130z" />
    <glyph glyph-name="Rcommaaccent" unicode="&#x156;" horiz-adv-x="563" 
d="M71 800h314q49 0 84 -35q36 -34 36 -85v-144q0 -38 -21.5 -70.5t-55.5 -47.5q37 -15 60.5 -47t23.5 -73v-298h-130v298q0 41 -23 55h-158v-353h-130v800zM201 483h149q24 11 24 51v126q0 12 -8 12h-165v-189zM349 -42v-168h-120v168h120z" />
    <glyph glyph-name="rcommaaccent" unicode="&#x157;" horiz-adv-x="486" 
d="M191 560v-47q127 56 179 56q40 0 68 -28t28 -68v-100h-130v30q0 24 -5 24q-13 0 -64 -15q-48 -14 -76 -29v-383h-130v560h130zM187 -42v-168h-120v168h120z" />
    <glyph glyph-name="Rcaron" unicode="&#x158;" horiz-adv-x="563" 
d="M71 800h314q49 0 84 -35q36 -34 36 -85v-144q0 -38 -21.5 -70.5t-55.5 -47.5q37 -15 60.5 -47t23.5 -73v-298h-130v298q0 41 -23 55h-158v-353h-130v800zM201 483h149q24 11 24 51v126q0 12 -8 12h-165v-189zM105 1014h115l52 -58h3l52 58h115l-134 -158h-69z" />
    <glyph glyph-name="rcaron" unicode="&#x159;" horiz-adv-x="486" 
d="M-36 774h115l52 -58h3l52 58h115l-134 -158h-69zM191 560v-47q127 56 179 56q40 0 68 -28t28 -68v-100h-130v30q0 24 -5 24q-13 0 -64 -15q-48 -14 -76 -29v-383h-130v560h130z" />
    <glyph glyph-name="Sacute" unicode="&#x15a;" horiz-adv-x="523" 
d="M175 282v-148q0 -8 3 -11t11 -3h139q8 0 11 3t3 11v77q6 63 -49 118q-9 12 -35 29q-31 20 -35 22l-42 24q-61 34 -95.5 86t-34.5 117v55q0 60 42 102t102 42h139q60 0 102 -51q42 -49 42 -123h-130q0 44 -24 44h-127q-16 0 -16 -16v-53q0 -41 39 -71q29 -21 35 -25
l49 -27l16 -9q70 -39 111 -106t41 -158v-77q0 -60 -42 -102t-102 -42h-139q-60 0 -102 42t-42 102v148h130zM306 1005h125l-101 -131h-126z" />
    <glyph glyph-name="sacute" unicode="&#x15b;" horiz-adv-x="489" 
d="M289 765h125l-101 -131h-126zM172 212v-79q0 -13 9 -13h127q9 0 9 13v18q0 31 -30 49q-13 11 -42 22q-6 3 -25 10t-23 9q-155 57 -155 171v25q0 55 39 94t94 39h139q56 0 94 -39q39 -39 39 -94v-30h-130v20q0 13 -9 13h-126q-10 0 -10 -13v-8q0 -25 44 -47l38 -18
q18 -6 46 -18q147 -56 147 -177v-36q0 -55 -39 -94t-94 -39h-139q-55 0 -94 39t-39 94v89h130z" />
    <glyph glyph-name="Scircumflex" unicode="&#x15c;" horiz-adv-x="523" 
d="M175 282v-148q0 -8 3 -11t11 -3h139q8 0 11 3t3 11v77q6 63 -49 118q-9 12 -35 29q-31 20 -35 22l-42 24q-61 34 -95.5 86t-34.5 117v55q0 60 42 102t102 42h139q60 0 102 -51q42 -49 42 -123h-130q0 44 -24 44h-127q-16 0 -16 -16v-53q0 -41 39 -71q29 -21 35 -25
l49 -27l16 -9q70 -39 111 -106t41 -158v-77q0 -60 -42 -102t-102 -42h-139q-60 0 -102 42t-42 102v148h130zM223 1035h77l134 -158h-115l-56 73h-3l-57 -73h-114z" />
    <glyph glyph-name="scircumflex" unicode="&#x15d;" horiz-adv-x="489" 
d="M206 795h77l134 -158h-115l-56 73h-3l-57 -73h-114zM172 212v-79q0 -13 9 -13h127q9 0 9 13v18q0 31 -30 49q-13 11 -42 22q-6 3 -25 10t-23 9q-155 57 -155 171v25q0 55 39 94t94 39h139q56 0 94 -39q39 -39 39 -94v-30h-130v20q0 13 -9 13h-126q-10 0 -10 -13v-8
q0 -25 44 -47l38 -18q18 -6 46 -18q147 -56 147 -177v-36q0 -55 -39 -94t-94 -39h-139q-55 0 -94 39t-39 94v89h130z" />
    <glyph glyph-name="Scedilla" unicode="&#x15e;" horiz-adv-x="523" 
d="M181 660v-53q0 -41 39 -71q29 -21 35 -25l49 -27l16 -9q70 -39 111 -106t41 -158v-77q0 -60 -42 -102t-102 -42h-17l-3 -17q39 -14 64 -48.5t25 -74.5q0 -54 -38.5 -90t-97.5 -36q-36 0 -98 38l49 79q36 -17 49 -17q36 0 36 26t-25 26h-74l13 114h-22q-60 0 -102 42
t-42 102v148h130v-148q0 -8 3 -11t11 -3h139q8 0 11 3t3 11v77q6 63 -49 118q-9 12 -35 29q-31 20 -35 22l-42 24q-61 34 -95.5 86t-34.5 117v55q0 60 42 102t102 42h139q60 0 102 -51q42 -49 42 -123h-130q0 44 -24 44h-127q-16 0 -16 -16z" />
    <glyph glyph-name="scedilla" unicode="&#x15f;" horiz-adv-x="489" 
d="M447 407h-130v20q0 13 -9 13h-126q-10 0 -10 -13v-8q0 -25 44 -47l38 -18q18 -6 46 -18q147 -56 147 -177v-36q0 -55 -39 -94t-94 -39h-21l-3 -17q39 -14 64 -48.5t25 -74.5q0 -54 -38.5 -90t-97.5 -36q-36 0 -98 38l49 79q36 -17 49 -17q36 0 36 26t-25 26h-74l13 114
h-18q-55 0 -94 39t-39 94v89h130v-79q0 -13 9 -13h127q9 0 9 13v18q0 31 -30 49q-13 11 -42 22q-6 3 -25 10t-23 9q-155 57 -155 171v25q0 55 39 94t94 39h139q56 0 94 -39q39 -39 39 -94v-30z" />
    <glyph glyph-name="Scaron" unicode="&#x160;" horiz-adv-x="523" 
d="M175 282v-148q0 -8 3 -11t11 -3h139q8 0 11 3t3 11v77q6 63 -49 118q-9 12 -35 29q-31 20 -35 22l-42 24q-61 34 -95.5 86t-34.5 117v55q0 60 42 102t102 42h139q60 0 102 -51q42 -49 42 -123h-130q0 44 -24 44h-127q-16 0 -16 -16v-53q0 -41 39 -71q29 -21 35 -25
l49 -27l16 -9q70 -39 111 -106t41 -158v-77q0 -60 -42 -102t-102 -42h-139q-60 0 -102 42t-42 102v148h130zM90 1014h115l52 -58h3l52 58h115l-134 -158h-69z" />
    <glyph glyph-name="scaron" unicode="&#x161;" horiz-adv-x="489" 
d="M73 774h115l52 -58h3l52 58h115l-134 -158h-69zM172 212v-79q0 -13 9 -13h127q9 0 9 13v18q0 31 -30 49q-13 11 -42 22q-6 3 -25 10t-23 9q-155 57 -155 171v25q0 55 39 94t94 39h139q56 0 94 -39q39 -39 39 -94v-30h-130v20q0 13 -9 13h-126q-10 0 -10 -13v-8
q0 -25 44 -47l38 -18q18 -6 46 -18q147 -56 147 -177v-36q0 -55 -39 -94t-94 -39h-139q-55 0 -94 39t-39 94v89h130z" />
    <glyph glyph-name="Tcedilla" unicode="&#x162;" horiz-adv-x="474" 
d="M302 0h-15l-5 -27q39 -14 64 -48.5t25 -74.5q0 -54 -38.5 -90t-97.5 -36q-36 0 -98 38l49 79q36 -17 49 -17q36 0 36 26t-25 26h-74l14 124h-14v670h-164v130h458v-130h-164v-670z" />
    <glyph glyph-name="tcedilla" unicode="&#x163;" horiz-adv-x="367" 
d="M359 432h-145v-290q0 -22 24 -22h54v-130h-51l-3 -17q39 -14 64 -48.5t25 -74.5q0 -54 -38.5 -90t-97.5 -36q-36 0 -98 38l49 79q36 -17 49 -17q36 0 36 26t-25 26h-75l17 144q-62 44 -62 122v290h-74v128h74v144h132v-144h145v-128z" />
    <glyph glyph-name="Tcaron" unicode="&#x164;" horiz-adv-x="474" 
d="M8 670v130h458v-130h-164v-670h-130v670h-164zM66 1014h115l52 -58h3l52 58h115l-134 -158h-69z" />
    <glyph glyph-name="tcaron" unicode="&#x165;" horiz-adv-x="424" 
d="M461 766v-169h-115v169h115zM214 432v-290q0 -22 24 -22h54v-130h-57q-63 0 -109 44q-44 46 -44 108v290h-74v128h74v144h132v-144h145v-128h-145z" />
    <glyph glyph-name="Tbar" unicode="&#x166;" horiz-adv-x="474" 
d="M466 670h-164v-242h134v-128h-134v-300h-130v300h-134v128h134v242h-164v130h458v-130z" />
    <glyph glyph-name="tbar" unicode="&#x167;" horiz-adv-x="367" 
d="M359 432h-145v-98h145v-114h-145v-78q0 -22 24 -22h54v-130h-57q-63 0 -109 44q-44 46 -44 108v78h-73v114h73v98h-74v128h74v144h132v-144h145v-128z" />
    <glyph glyph-name="Utilde" unicode="&#x168;" horiz-adv-x="561" 
d="M156 864l-5 111q25 31 62 31q25 0 69 -18q46 -17 68 -17q31 0 56 28l5 -111q-27 -32 -61 -32q-24 0 -70 17q-44 18 -67 18q-31 0 -57 -27zM192 800v-666q0 -8 3 -11t11 -3h149q8 0 11 3t3 11v666h130v-666q0 -60 -42 -102t-102 -42h-149q-60 0 -102 42t-42 102v666h130z
" />
    <glyph glyph-name="utilde" unicode="&#x169;" 
d="M118 624l-5 111q25 31 62 31q25 0 69 -18q46 -17 68 -17q31 0 56 28l5 -111q-27 -32 -61 -32q-24 0 -70 17q-43 18 -67 18q-31 0 -57 -27zM331 0v47q-127 -56 -179 -56q-40 0 -68 28t-28 68v473h130v-407q0 -18 10 -18l135 42v383h130v-560h-130z" />
    <glyph glyph-name="Umacron" unicode="&#x16a;" horiz-adv-x="561" 
d="M171 976h220v-99h-220v99zM192 800v-666q0 -8 3 -11t11 -3h149q8 0 11 3t3 11v666h130v-666q0 -60 -42 -102t-102 -42h-149q-60 0 -102 42t-42 102v666h130z" />
    <glyph glyph-name="umacron" unicode="&#x16b;" 
d="M331 0v47q-127 -56 -179 -56q-40 0 -68 28t-28 68v473h130v-407q0 -18 10 -18l135 42v383h130v-560h-130zM133 736h220v-99h-220v99z" />
    <glyph glyph-name="Ubreve" unicode="&#x16c;" horiz-adv-x="561" 
d="M303 990h74q0 -40 -28 -68t-68 -28t-68 28t-28 68h75q0 -20 21 -20q22 0 22 20zM192 800v-666q0 -8 3 -11t11 -3h149q8 0 11 3t3 11v666h130v-666q0 -60 -42 -102t-102 -42h-149q-60 0 -102 42t-42 102v666h130z" />
    <glyph glyph-name="ubreve" unicode="&#x16d;" 
d="M331 0v47q-127 -56 -179 -56q-40 0 -68 28t-28 68v473h130v-407q0 -18 10 -18l135 42v383h130v-560h-130zM265 750h74q0 -40 -28 -68t-68 -28t-68 28t-28 68h75q0 -20 21 -20q22 0 22 20z" />
    <glyph glyph-name="Uring" unicode="&#x16e;" horiz-adv-x="561" 
d="M370 862q-36 -36 -88 -36t-89 36q-36 36 -36 88t36 88q37 37 89 37t88 -37q36 -36 36 -88t-36 -88zM250 918q18 -21 43.5 -12t32.5 32.5t-12 43.5q-18 21 -43.5 12t-32.5 -32.5t12 -43.5zM192 800v-666q0 -8 3 -11t11 -3h149q8 0 11 3t3 11v666h130v-666q0 -60 -42 -102
t-102 -42h-149q-60 0 -102 42t-42 102v666h130z" />
    <glyph glyph-name="uring" unicode="&#x16f;" 
d="M332 622q-36 -36 -88 -36t-89 36q-36 36 -36 88t36 88q37 37 89 37t88 -37q36 -36 36 -88t-36 -88zM212 678q18 -21 43.5 -12t32.5 32.5t-12 43.5q-18 21 -43.5 12t-32.5 -32.5t12 -43.5zM331 0v47q-127 -56 -179 -56q-40 0 -68 28t-28 68v473h130v-407q0 -18 10 -18
l135 42v383h130v-560h-130z" />
    <glyph glyph-name="Uhungarumlaut" unicode="&#x170;" horiz-adv-x="561" 
d="M257 1005h110l-100 -131h-112zM397 1005h110l-100 -131h-112zM192 800v-666q0 -8 3 -11t11 -3h149q8 0 11 3t3 11v666h130v-666q0 -60 -42 -102t-102 -42h-149q-60 0 -102 42t-42 102v666h130z" />
    <glyph glyph-name="uhungarumlaut" unicode="&#x171;" 
d="M331 0v47q-127 -56 -179 -56q-40 0 -68 28t-28 68v473h130v-407q0 -18 10 -18l135 42v383h130v-560h-130zM219 765h110l-100 -131h-112zM359 765h110l-100 -131h-112z" />
    <glyph glyph-name="Uogonek" unicode="&#x172;" horiz-adv-x="561" 
d="M369 800h130v-666q0 -60 -42 -102t-102 -42q-22 0 -39.5 -10.5t-17.5 -27.5q0 -25 27 -25q18 0 53 22l48 -64q-56 -48 -117 -48q-52 0 -81.5 30t-29.5 81q0 22 9 42h-1q-60 0 -102 42t-42 102v666h130v-666q0 -8 3 -11t11 -3h149q8 0 11 3t3 11v666z" />
    <glyph glyph-name="uogonek" unicode="&#x173;" 
d="M465 -41l48 -64q-55 -48 -117 -48q-52 0 -81.5 30t-29.5 81q0 48 43 88q-126 -55 -176 -55q-40 0 -68 28t-28 68v473h130v-407q0 -18 10 -18l135 42v383h130v-560h-19q-22 0 -39.5 -10.5t-17.5 -27.5q0 -25 27 -25q18 0 53 22z" />
    <glyph glyph-name="Wcircumflex" unicode="&#x174;" horiz-adv-x="850" 
d="M386 1035h77l134 -158h-115l-56 73h-3l-57 -73h-114zM192 800v-666q0 -8 3 -11t11 -3h80q34 0 53 31q21 31 21 58v591h130v-591q0 -25 21 -57t53 -32h80q8 0 11 3t3 11v666h130v-666q0 -60 -42 -102t-102 -42h-80q-49 0 -86.5 29t-52.5 76q-13 -46 -51 -75.5t-88 -29.5
h-80q-60 0 -102 42t-42 102v666h130z" />
    <glyph glyph-name="wcircumflex" unicode="&#x175;" horiz-adv-x="765" 
d="M343 795h77l134 -158h-115l-56 73h-3l-57 -73h-114zM709 560v-420q0 -66 -36.5 -108t-96.5 -42h-66q-45 0 -80 27t-48 72q-13 -46 -47.5 -72.5t-80.5 -26.5h-65q-60 0 -96.5 42t-36.5 108v420h130v-420q0 -20 12 -20h56q63 0 63 95v345h130v-345q0 -95 63 -95h54
q15 0 15 20v420h130z" />
    <glyph glyph-name="Ycircumflex" unicode="&#x176;" horiz-adv-x="569" 
d="M551 800l-123 -546q-4 -14 -18.5 -23t-35.5 -9h-23v-222h-129v222h-20q-20 0 -35.5 9t-18.5 23l-130 546h133l99 -443q1 -7 7 -7h61q7 0 7 7l96 443h130zM246 1035h77l134 -158h-115l-56 73h-3l-57 -73h-114z" />
    <glyph glyph-name="ycircumflex" unicode="&#x177;" horiz-adv-x="477" 
d="M200 795h77l134 -158h-115l-56 73h-3l-57 -73h-114zM151 559l59 -433q3 -11 6 -11h48q6 0 8 14l58 430h130l-113 -715h-124l22 145h-92q-15 0 -28 10.5t-15 23.5l-92 536h133z" />
    <glyph glyph-name="Ydieresis" unicode="&#x178;" horiz-adv-x="569" 
d="M551 800l-123 -546q-4 -14 -18.5 -23t-35.5 -9h-23v-222h-129v222h-20q-20 0 -35.5 9t-18.5 23l-130 546h133l99 -443q1 -7 7 -7h61q7 0 7 7l96 443h130zM201 867q-26 0 -45 18.5t-19 44.5q0 27 19 47t45 20q27 0 46.5 -20t19.5 -47q0 -26 -19.5 -44.5t-46.5 -18.5z
M369 867q-27 0 -46 18.5t-19 44.5q0 27 19 47t46 20q25 0 44 -20t19 -47q0 -26 -19 -44.5t-44 -18.5z" />
    <glyph glyph-name="Zacute" unicode="&#x179;" horiz-adv-x="501" 
d="M28 670v130h446l-261 -670h261v-130h-446l262 670h-262zM295 1005h125l-101 -131h-126z" />
    <glyph glyph-name="zacute" unicode="&#x17a;" horiz-adv-x="462" 
d="M275 765h125l-101 -131h-126zM282 434h-249v126h395v-126l-252 -305h255v-129h-400v130z" />
    <glyph glyph-name="Zdotaccent" unicode="&#x17b;" horiz-adv-x="501" 
d="M28 670v130h446l-261 -670h261v-130h-446l262 670h-262zM183 926q0 29 20 49.5t48 20.5t48.5 -21t20.5 -49t-20.5 -48t-48.5 -20t-48 20t-20 48z" />
    <glyph glyph-name="zdotaccent" unicode="&#x17c;" horiz-adv-x="462" 
d="M163 686q0 29 20 49.5t48 20.5t48.5 -21t20.5 -49t-20.5 -48t-48.5 -20t-48 20t-20 48zM282 434h-249v126h395v-126l-252 -305h255v-129h-400v130z" />
    <glyph glyph-name="Zcaron" unicode="&#x17d;" horiz-adv-x="501" 
d="M28 670v130h446l-261 -670h261v-130h-446l262 670h-262zM80 1014h115l52 -58h3l52 58h115l-134 -158h-69z" />
    <glyph glyph-name="zcaron" unicode="&#x17e;" horiz-adv-x="462" 
d="M60 774h115l52 -58h3l52 58h115l-134 -158h-69zM282 434h-249v126h395v-126l-252 -305h255v-129h-400v130z" />
    <glyph glyph-name="longs" unicode="&#x17f;" horiz-adv-x="302" 
d="M42 -154v130q23 0 23 22v434h-55v128h55v54q0 62 44 106q45 45 109 45h84v-130h-81q-24 0 -24 -21v-616q0 -64 -45 -107q-45 -45 -110 -45z" />
    <glyph glyph-name="florin" unicode="&#x192;" horiz-adv-x="398" 
d="M341 760v-130h-89h-3q-21 0 -21 -21v-163h65v-129h-65v-321q0 -64 -45 -107q-44 -44 -110 -44v130q23 0 23 21v321h-40v129h40v163q0 63 45 107q45 45 108 44h92z" />
    <glyph glyph-name="DZcaron" unicode="&#x1c4;" horiz-adv-x="1066" 
d="M71 800h294q62 0 102 -40q42 -39 42 -98v-518q0 -60 -42 -102t-102 -42h-294v800zM855 670h-262v130h446l-261 -670h261v-130h-446zM201 130h164q8 0 11 3t3 11v513q0 13 -14 13h-164v-540zM652 1014h115l52 -58h3l52 58h115l-134 -158h-69z" />
    <glyph glyph-name="Dzcaron" unicode="&#x1c5;" horiz-adv-x="1026" 
d="M71 800h294q62 0 102 -40q42 -39 42 -98v-518q0 -60 -42 -102t-102 -42h-294v800zM637 774h115l52 -58h3l52 58h115l-134 -158h-69zM201 130h164q8 0 11 3t3 11v513q0 13 -14 13h-164v-540zM596 130l251 304h-249v126h395v-126l-252 -305h255v-129h-400v130z" />
    <glyph glyph-name="dzcaron" unicode="&#x1c6;" horiz-adv-x="978" 
d="M457 707v-707h-130v47l-36 -13l-44 -16q-78 -28 -108 -28q-40 0 -63.5 26t-22.5 71v350q0 55 38 95q39 39 94 38h142v132h-1v62h130v-57h1zM549 130l251 304h-249v126h395v-126l-252 -305h255v-129h-400v130zM327 176v251q-1 15 -13 15h-118q-13 0 -13 -15v-277v-2
q0 -12 10 -12q13 0 134 40zM577 774h115l52 -58h3l52 58h115l-134 -158h-69z" />
    <glyph glyph-name="LJ" unicode="&#x1c7;" horiz-adv-x="964" 
d="M200 800v-670h247v-130h-376v800h129zM604 292v-158q0 -8 3 -11t11 -3h146q8 0 11 3t3 11v666h130v-666q0 -60 -42 -102t-102 -42h-146q-60 0 -102 42t-42 102v158h130z" />
    <glyph glyph-name="Lj" unicode="&#x1c8;" horiz-adv-x="734" 
d="M200 800v-670h247v-130h-376v800h129zM535 765h131v-106h-131v106zM536 560h132v-565q0 -63 -45 -107q-45 -45 -108 -44h-74v130h71q24 -2 24 21v565z" />
    <glyph glyph-name="lj" unicode="&#x1c9;" horiz-adv-x="578" 
d="M511 765v-106h-131v106h131zM276 120v-130h-57q-63 0 -109 44q-44 46 -44 108v622h130v-204h2v-418q0 -22 24 -22h54zM513 560v-565q0 -63 -45 -107q-45 -45 -108 -44h-74v130h71q24 -2 24 21v565h132z" />
    <glyph glyph-name="NJ" unicode="&#x1ca;" horiz-adv-x="1139" 
d="M296 800l127 -670h5v670h130v-800h-223l-129 670h-5v-670h-130v800h225zM779 292v-158q0 -8 3 -11t11 -3h146q8 0 11 3t3 11v666h130v-666q0 -60 -42 -102t-102 -42h-146q-60 0 -102 42t-42 102v158h130z" />
    <glyph glyph-name="Nj" unicode="&#x1cb;" horiz-adv-x="909" 
d="M296 800l127 -670h5v670h130v-800h-223l-129 670h-5v-670h-130v800h225zM710 765h131v-106h-131v106zM711 560h132v-565q0 -63 -45 -107q-45 -45 -108 -44h-74v130h71q24 -2 24 21v565z" />
    <glyph glyph-name="nj" unicode="&#x1cc;" horiz-adv-x="802" 
d="M734 765v-106h-131v106h131zM191 560v-47q127 56 179 56q40 0 68 -28t28 -68v-473h-130v407q0 18 -10 18l-135 -42v-383h-130v560h130zM736 560v-565q0 -63 -45 -107q-45 -45 -108 -44h-74v130h71q24 -2 24 21v565h132z" />
    <glyph glyph-name="Oogonek" unicode="&#x1ea;" horiz-adv-x="550" 
d="M200 806h150q60 0 102 -42t42 -102v-528q0 -60 -42 -102t-102 -42q-22 0 -39.5 -10.5t-17.5 -27.5q0 -25 27 -25q18 0 53 22l48 -64q-55 -48 -117 -48q-52 0 -81.5 30t-29.5 81q0 22 9 42h-2q-60 0 -102 42t-42 102v528q0 60 42 102t102 42zM364 134v528q0 8 -3 11t-11 3
h-150q-8 0 -11 -3t-3 -11v-528q0 -8 3 -11t11 -3h150q8 0 11 3t3 11z" />
    <glyph glyph-name="oogonek" unicode="&#x1eb;" horiz-adv-x="507" 
d="M184 570h139q55 0 94 -39t39 -94v-314q0 -55 -39 -94t-94 -39q-22 0 -39.5 -10.5t-17.5 -27.5q0 -25 27 -25q18 0 53 22l48 -64q-56 -48 -117 -48q-52 0 -81.5 30t-29.5 81q0 22 9 42q-52 4 -88 42t-36 91v314q0 54 38 94q39 39 95 39zM326 133v294q0 13 -10 13h-125
q-10 0 -10 -13v-294q0 -13 10 -13h125q10 0 10 13z" />
    <glyph glyph-name="DZ" unicode="&#x1f1;" horiz-adv-x="1066" 
d="M71 800h294q62 0 102 -40q42 -39 42 -98v-518q0 -60 -42 -102t-102 -42h-294v800zM855 670h-262v130h446l-261 -670h261v-130h-446zM201 130h164q8 0 11 3t3 11v513q0 13 -14 13h-164v-540z" />
    <glyph glyph-name="Dz" unicode="&#x1f2;" horiz-adv-x="1026" 
d="M596 130l251 304h-249v126h395v-126l-252 -305h255v-129h-400v130zM71 800h294q62 0 102 -40q42 -39 42 -98v-518q0 -60 -42 -102t-102 -42h-294v800zM201 130h164q8 0 11 3t3 11v513q0 13 -14 13h-164v-540z" />
    <glyph glyph-name="dz" unicode="&#x1f3;" horiz-adv-x="978" 
d="M457 707v-707h-130v47l-36 -13l-44 -16q-78 -28 -108 -28q-40 0 -63.5 26t-22.5 71v350q0 55 38 95q39 39 94 38h142v132h-1v62h130v-57h1zM549 130l251 304h-249v126h395v-126l-252 -305h255v-129h-400v130zM327 176v251q-1 15 -13 15h-118q-13 0 -13 -15v-277v-2
q0 -12 10 -12q13 0 134 40z" />
    <glyph glyph-name="Aringacute" unicode="&#x1fa;" horiz-adv-x="568" 
d="M449 1138l-101 -131h-126l102 131h125zM426 766l125 -766h-130l-26 174h-221l-26 -174h-130l125 766q4 22 29 32q-12 24 -12 54q0 52 36 88q36 37 89 37q52 0 88 -37q36 -36 36 -88q0 -30 -12 -54q26 -11 29 -32zM317 884q-18 21 -43.5 12t-32.5 -32.5t12 -43.5
q18 -21 43.5 -12t32.5 32.5t-12 43.5zM193 304h183l-53 355q-3 11 -9 11h-60q-6 0 -8 -11z" />
    <glyph glyph-name="aringacute" unicode="&#x1fb;" horiz-adv-x="491" 
d="M305 985h125l-101 -131h-126zM342 622q-36 -36 -88 -36t-89 36q-36 36 -36 88t36 88q37 37 89 37t88 -37q36 -36 36 -88t-36 -88zM222 678q18 -21 43.5 -12t32.5 32.5t-12 43.5q-18 21 -43.5 12t-32.5 -32.5t12 -43.5zM31 86v103q0 82 33 113q26 24 66 36l175 27v51
q0 23 -24 23h-73q-25 0 -25 -23v-18h-130v38q0 63 45 98q46 36 106 36h80q60 0 105 -36q46 -34 46 -97v-437h-130v47q-124 -57 -178 -57q-40 0 -68 28t-28 68zM161 174v-28q0 -17 11 -17l133 41v89l-124 -21q-20 -12 -20 -64z" />
    <glyph glyph-name="AEacute" unicode="&#x1fc;" horiz-adv-x="795" 
d="M468 1005h125l-101 -131h-126zM759 667h-247v-161h220v-130h-220v-246h247v-130h-377v174h-202l-32 -174h-130l124 766q2 13 15 23.5t28 10.5h574v-133zM382 676h-117q-12 0 -16 -16l-51 -356h184v372z" />
    <glyph glyph-name="aeacute" unicode="&#x1fd;" horiz-adv-x="753" 
d="M425 763h125l-101 -131h-126zM442 237v-103q0 -14 8 -14h128q9 0 9 13v61h130v-72q0 -55 -39 -94q-38 -38 -94 -38h-139q-77 0 -117 66l-16 -9q-125 -57 -178 -57q-40 0 -68 28t-28 68v109q0 84 33 113q28 24 66 36l175 27v48q0 20 -22 20h-75q-25 0 -25 -24v-18h-130v39
q0 63 45 98q46 36 107 36h82q37 0 87 -8q27 8 64 8h139q56 0 94 -39q39 -39 39 -94v-200h-275zM442 367h145v63q0 10 -8 10h-130q-7 0 -7 -11v-62zM312 249l-127 -22q-17 -11 -17 -60v-21q0 -12 11 -12l133 42v73z" />
    <glyph glyph-name="Oslashacute" unicode="&#x1fe;" horiz-adv-x="565" 
d="M329 1005h125l-101 -131h-126zM519 866l-49 -124q24 -34 24 -80v-528q0 -60 -42 -102t-102 -42h-150q-16 0 -29 3l-19 -47h-106l40 100q-30 38 -30 88v528q0 60 42 102t102 42h150q15 0 37 -5l26 65h106zM186 297l151 379h-137q-8 0 -11 -3t-3 -11v-365zM364 477
l-143 -357h129q8 0 11 3t3 11v343z" />
    <glyph glyph-name="oslashacute" unicode="&#x1ff;" horiz-adv-x="535" 
d="M484 590l-38 -72q27 -34 27 -81v-314q0 -55 -39 -94t-94 -39h-139q-13 0 -27 3l-11 -24h-112l39 81q-22 32 -22 73v314q0 55 39 94t94 39h139q4 0 20 -2l13 22h111zM302 440h-94q-10 0 -10 -13v-191zM245 120h88q10 0 10 13v180zM324 764h125l-101 -131h-126z" />
    <glyph glyph-name="Scommaaccent" unicode="&#x218;" horiz-adv-x="523" 
d="M175 282v-148q0 -8 3 -11t11 -3h139q8 0 11 3t3 11v77q6 63 -49 118q-9 12 -35 29q-31 20 -35 22l-42 24q-61 34 -95.5 86t-34.5 117v55q0 60 42 102t102 42h139q60 0 102 -51q42 -49 42 -123h-130q0 44 -24 44h-127q-16 0 -16 -16v-53q0 -41 39 -71q29 -21 35 -25
l49 -27l16 -9q70 -39 111 -106t41 -158v-77q0 -60 -42 -102t-102 -42h-139q-60 0 -102 42t-42 102v148h130zM321 -42v-168h-120v168h120z" />
    <glyph glyph-name="scommaaccent" unicode="&#x219;" horiz-adv-x="489" 
d="M172 212v-79q0 -13 9 -13h127q9 0 9 13v18q0 31 -30 49q-13 11 -42 22q-6 3 -25 10t-23 9q-155 57 -155 171v25q0 55 39 94t94 39h139q56 0 94 -39q39 -39 39 -94v-30h-130v20q0 13 -9 13h-126q-10 0 -10 -13v-8q0 -25 44 -47l38 -18q18 -6 46 -18q147 -56 147 -177v-36
q0 -55 -39 -94t-94 -39h-139q-55 0 -94 39t-39 94v89h130zM303 -42v-168h-120v168h120z" />
    <glyph glyph-name="uni021A" unicode="&#x21a;" horiz-adv-x="474" 
d="M8 670v130h458v-130h-164v-670h-130v670h-164zM295 -42v-168h-120v168h120z" />
    <glyph glyph-name="uni021B" unicode="&#x21b;" horiz-adv-x="367" 
d="M214 432v-290q0 -22 24 -22h54v-130h-57q-63 0 -109 44q-44 46 -44 108v290h-74v128h74v144h132v-144h145v-128h-145zM242 -42v-168h-120v168h120z" />
    <glyph glyph-name="dotlessj" unicode="&#x237;" horiz-adv-x="280" 
d="M82 560h132v-565q0 -63 -45 -107q-45 -45 -108 -44h-74v130h71q24 -2 24 21v565z" />
    <glyph glyph-name="uni02BC" unicode="&#x2bc;" horiz-adv-x="519" 
d="M268 766v-169h-115v169h115z" />
    <glyph glyph-name="circumflex" unicode="&#x2c6;" horiz-adv-x="398" 
d="M165 795h77l134 -158h-115l-56 73h-3l-57 -73h-114z" />
    <glyph glyph-name="caron" unicode="&#x2c7;" horiz-adv-x="480" 
d="M71 774h115l52 -58h3l52 58h115l-134 -158h-69z" />
    <glyph glyph-name="breve" unicode="&#x2d8;" horiz-adv-x="247" 
d="M146 750h74q0 -40 -28 -68t-68 -28t-68 28t-28 68h75q0 -20 21 -20q22 0 22 20z" />
    <glyph glyph-name="dotaccent" unicode="&#x2d9;" horiz-adv-x="253" 
d="M59 686q0 29 20 49.5t48 20.5t48.5 -21t20.5 -49t-20.5 -48t-48.5 -20t-48 20t-20 48z" />
    <glyph glyph-name="ring" unicode="&#x2da;" horiz-adv-x="304" 
d="M153 835q52 0 88 -37q36 -36 36 -88t-36 -88t-88 -36q-51 0 -89 36q-36 36 -36 88t36 88q36 37 89 37zM121 678q18 -21 43.5 -12t32.5 32.5t-12 43.5q-18 21 -43.5 12t-32.5 -32.5t12 -43.5z" />
    <glyph glyph-name="ogonek" unicode="&#x2db;" horiz-adv-x="577" 
d="M303 -73l48 -64q-55 -48 -117 -48q-52 0 -81.5 30t-29.5 81q0 42 35 80q34 37 82 46l40 -84q-22 0 -39.5 -10.5t-17.5 -27.5q0 -25 27 -25q18 0 53 22z" />
    <glyph glyph-name="tilde" unicode="&#x2dc;" horiz-adv-x="322" 
d="M37 624l-5 111q25 31 62 31q26 0 69 -18q46 -17 68 -17q31 0 56 28l5 -111q-27 -32 -61 -32q-24 0 -70 17q-43 18 -67 18q-32 0 -57 -27z" />
    <glyph glyph-name="hungarumlaut" unicode="&#x2dd;" horiz-adv-x="428" 
d="M160 765h110l-100 -131h-112zM300 765h110l-100 -131h-112z" />
    <glyph glyph-name="dotbelowcomb" unicode="&#x323;" horiz-adv-x="0" 
d="M59 -146q0 29 20 49.5t48 20.5t48.5 -21t20.5 -49t-20.5 -48t-48.5 -20t-48 20t-20 48z" />
    <glyph glyph-name="commaaccentcomb" unicode="&#x326;" horiz-adv-x="0" 
d="M209 -42v-168h-120v168h120z" />
    <glyph glyph-name="tonos" unicode="&#x384;" horiz-adv-x="0" 
d="M202 802h122l-51 -161h-123z" />
    <glyph glyph-name="dieresistonos" unicode="&#x385;" horiz-adv-x="0" 
d="M362 802l-51 -161h-123l52 161h122zM109 627q-26 0 -45 18.5t-19 44.5q0 27 19 47t45 20q27 0 46.5 -20t19.5 -47q0 -26 -19.5 -44.5t-46.5 -18.5zM424 627q-27 0 -46 18.5t-19 44.5q0 27 19 47t46 20q25 0 44 -20t19 -47q0 -26 -18.5 -44.5t-44.5 -18.5z" />
    <glyph glyph-name="Alphatonos" unicode="&#x386;" horiz-adv-x="568" 
d="M-7 800h122l-51 -161h-123zM174 174l-26 -174h-130l125 766q2 13 15 23.5t28 10.5h197q15 0 28 -10.5t15 -23.5l125 -766h-130l-26 174h-221zM376 304l-53 355q-3 11 -9 11h-60q-6 0 -8 -11l-53 -355h183z" />
    <glyph glyph-name="Epsilontonos" unicode="&#x388;" horiz-adv-x="477" 
d="M449 670h-248v-194h221v-130h-221v-216h248v-130h-378v800h378v-130zM-67 800h122l-51 -161h-123z" />
    <glyph glyph-name="Etatonos" unicode="&#x389;" horiz-adv-x="577" 
d="M201 506h175v294h130v-800h-130v378h-175v-378h-130v800h130v-294zM-64 800h122l-51 -161h-123z" />
    <glyph glyph-name="Iotatonos" unicode="&#x38a;" horiz-adv-x="282" 
d="M-70 800h122l-51 -161h-123zM206 0h-130v800h130v-800z" />
    <glyph glyph-name="Omicrontonos" unicode="&#x38c;" horiz-adv-x="550" 
d="M56 134v528q0 60 42 102t102 42h150q60 0 102 -42t42 -102v-528q0 -60 -42 -102t-102 -42h-150q-60 0 -102 42t-42 102zM-55 800h122l-51 -161h-123zM186 662v-528q0 -8 3 -11t11 -3h150q8 0 11 3t3 11v528q0 8 -3 11t-11 3h-150q-8 0 -11 -3t-3 -11z" />
    <glyph glyph-name="Upsilontonos" unicode="&#x38e;" horiz-adv-x="569" 
d="M551 800l-123 -546q-4 -14 -18.5 -23t-35.5 -9h-23v-222h-129v222h-20q-20 0 -35.5 9t-18.5 23l-130 546h133l99 -443q1 -7 7 -7h61q7 0 7 7l96 443h130zM-123 800h122l-51 -161h-123z" />
    <glyph glyph-name="Omegatonos" unicode="&#x38f;" horiz-adv-x="565" 
d="M509 130v-130h-162v270q26 6 26 34v356q0 16 -14 16h-154q-14 0 -14 -16v-356q0 -13 8 -23t19 -12v-269h-162v130h47v59q-42 42 -42 95v378q0 60 42 102t102 42h154q60 0 102 -42t42 -102v-378q0 -49 -41 -96v-58h47zM-49 800h122l-51 -161h-123z" />
    <glyph glyph-name="iotadieresistonos" unicode="&#x390;" horiz-adv-x="282" 
d="M133 1042h122l-51 -161h-123zM2 867q-26 0 -45 18.5t-19 44.5q0 27 19 47t45 20q27 0 46.5 -20t19.5 -47q0 -26 -19.5 -44.5t-46.5 -18.5zM317 867q-27 0 -46 18.5t-19 44.5q0 27 19 47t46 20q25 0 44 -20t19 -47q0 -26 -19 -44.5t-44 -18.5zM206 0h-130v800h130v-800z
" />
    <glyph glyph-name="Alpha" unicode="&#x391;" horiz-adv-x="568" 
d="M395 174h-221l-26 -174h-130l125 766q2 13 15 23.5t28 10.5h197q15 0 28 -10.5t15 -23.5l125 -766h-130zM376 304l-53 355q-3 11 -9 11h-60q-6 0 -8 -11l-53 -355h183z" />
    <glyph glyph-name="Beta" unicode="&#x392;" horiz-adv-x="560" 
d="M71 800h261q91 0 130.5 -37t39.5 -122v-105q0 -97 -77 -118q84 -24 84 -120v-126q0 -92 -40 -132t-133 -40h-265v800zM201 483h134q36 0 36 51v106q0 32 -37 32h-133v-189zM201 130h133q45 0 45 43v125q0 55 -40 55h-138v-223z" />
    <glyph glyph-name="Gamma" unicode="&#x393;" horiz-adv-x="455" 
d="M447 670h-246v-670h-130v800h376v-130z" />
    <glyph glyph-name="increment" unicode="&#x394;" horiz-adv-x="568" 
d="M426 766l125 -766h-533l125 766q2 13 15 23.5t28 10.5h197q15 0 28 -10.5t15 -23.5zM167 130h235l-79 529q-3 11 -9 11h-60q-6 0 -8 -11z" />
    <glyph glyph-name="Epsilon" unicode="&#x395;" horiz-adv-x="484" 
d="M449 800v-130h-248v-194h221v-130h-221v-216h248v-130h-378v800h378z" />
    <glyph glyph-name="Zeta" unicode="&#x396;" horiz-adv-x="501" 
d="M28 670v130h446l-261 -670h261v-130h-446l262 670h-262z" />
    <glyph glyph-name="Eta" unicode="&#x397;" horiz-adv-x="577" 
d="M201 800v-294h175v294h130v-800h-130v378h-175v-378h-130v800h130z" />
    <glyph glyph-name="Theta" unicode="&#x398;" horiz-adv-x="550" 
d="M56 134v528q0 60 42 102t102 42h150q60 0 102 -42t42 -102v-528q0 -60 -42 -102t-102 -42h-150q-60 0 -102 42t-42 102zM186 662v-528q0 -8 3 -11t11 -3h150q8 0 11 3t3 11v528q0 8 -3 11t-11 3h-150q-8 0 -11 -3t-3 -11zM343 461v-99h-141v99h141z" />
    <glyph glyph-name="Iota" unicode="&#x399;" horiz-adv-x="282" 
d="M206 800v-800h-130v800h130z" />
    <glyph glyph-name="Kappa" unicode="&#x39a;" horiz-adv-x="595" 
d="M200 800v-294h89l158 294h137l-187 -354v-9l187 -437h-137l-158 377h-89v-377h-129v800h129z" />
    <glyph glyph-name="Lambda" unicode="&#x39b;" horiz-adv-x="568" 
d="M186 800h197q15 0 28 -10.5t15 -23.5l125 -766h-130l-98 659q-3 11 -9 11h-60q-6 0 -8 -11l-98 -659h-130l125 766q2 13 15 23.5t28 10.5z" />
    <glyph glyph-name="Mu" unicode="&#x39c;" horiz-adv-x="803" 
d="M338 800l63 -486l61 486h249l30 -800h-130l-28 670h-9l-113 -660h-119l-112 660h-10l-28 -670h-130l31 800h245z" />
    <glyph glyph-name="Nu" unicode="&#x39d;" horiz-adv-x="629" 
d="M296 800l127 -670h5v670h130v-800h-223l-129 670h-5v-670h-130v800h225z" />
    <glyph glyph-name="Xi" unicode="&#x39e;" horiz-adv-x="656" 
d="M543 800v-220h-130v91h-174v-91h-130v220h434zM502 506v-129h-349v129h349zM585 330v-330h-514v330h130v-201h254v201h130z" />
    <glyph glyph-name="Omicron" unicode="&#x39f;" horiz-adv-x="550" 
d="M56 134v528q0 60 42 102t102 42h150q60 0 102 -42t42 -102v-528q0 -60 -42 -102t-102 -42h-150q-60 0 -102 42t-42 102zM186 662v-528q0 -8 3 -11t11 -3h150q8 0 11 3t3 11v528q0 8 -3 11t-11 3h-150q-8 0 -11 -3t-3 -11z" />
    <glyph glyph-name="Pi" unicode="&#x3a0;" horiz-adv-x="575" 
d="M503 0h-130v672h-172v-672h-130v800h432v-800z" />
    <glyph glyph-name="Rho" unicode="&#x3a1;" horiz-adv-x="530" 
d="M71 800h290q62 0 102 -40q42 -39 42 -98v-186q0 -60 -42 -102t-102 -42h-160v-332h-130v800zM201 462h160q8 0 11 3t3 11v184q0 10 -11 10h-163v-208z" />
    <glyph glyph-name="Sigma" unicode="&#x3a3;" horiz-adv-x="532" 
d="M504 800v-130h-258l90 -265l-93 -275h258v-130h-445l146 403l-143 397h445z" />
    <glyph glyph-name="Tau" unicode="&#x3a4;" horiz-adv-x="474" 
d="M8 670v130h458v-130h-164v-670h-130v670h-164z" />
    <glyph glyph-name="Upsilon" unicode="&#x3a5;" horiz-adv-x="569" 
d="M551 800l-123 -546q-4 -14 -18.5 -23t-35.5 -9h-23v-222h-129v222h-20q-20 0 -35.5 9t-18.5 23l-130 546h133l99 -443q1 -7 7 -7h61q7 0 7 7l96 443h130z" />
    <glyph glyph-name="Phi" unicode="&#x3a6;" horiz-adv-x="652" 
d="M391 706h53q64 0 107 -42q44 -42 44 -102v-328q0 -60 -44 -102q-43 -42 -107 -42h-53v-90h-130v90h-53q-64 0 -108 42t-44 102v328q0 60 44 102t108 42h53v94h130v-94zM261 220v356h-49q-15 0 -20.5 -5t-5.5 -19v-308q0 -14 5 -19t21 -5h49zM465 244v308q0 14 -5 19
t-20 5h-49v-356h49q15 0 20 5t5 19z" />
    <glyph glyph-name="Chi" unicode="&#x3a7;" horiz-adv-x="543" 
d="M525 0h-132l-121 319l-121 -319h-133l178 437l-151 363h135l92 -274l92 274h135l-153 -363z" />
    <glyph glyph-name="Psi" unicode="&#x3a8;" horiz-adv-x="649" 
d="M463 801h130v-300q0 -68 -36 -106t-108 -38h-60v-357h-130v357h-59q-60 0 -102 42t-42 102v300h130v-300q0 -8 3 -11t11 -3h59v313h130v-313h60q8 0 11 3t3 11v300z" />
    <glyph glyph-name="Omega" unicode="&#x3a9;" horiz-adv-x="565" 
d="M462 130h47v-130h-162v270q26 6 26 34v356q0 16 -14 16h-154q-14 0 -14 -16v-356q0 -13 8 -23t19 -12v-269h-162v130h47v59q-42 42 -42 95v378q0 60 42 102t102 42h154q60 0 102 -42t42 -102v-378q0 -49 -41 -96v-58z" />
    <glyph glyph-name="Iotadieresis" unicode="&#x3aa;" horiz-adv-x="282" 
d="M59 867q-26 0 -45 18.5t-19 44.5q0 27 19 47t45 20q27 0 46.5 -20t19.5 -47q0 -26 -19.5 -44.5t-46.5 -18.5zM227 867q-27 0 -46 18.5t-19 44.5q0 27 19 47t46 20q25 0 44 -20t19 -47q0 -26 -19 -44.5t-44 -18.5zM206 0h-130v800h130v-800z" />
    <glyph glyph-name="Upsilondieresis" unicode="&#x3ab;" horiz-adv-x="569" 
d="M551 800l-123 -546q-4 -14 -18.5 -23t-35.5 -9h-23v-222h-129v222h-20q-20 0 -35.5 9t-18.5 23l-130 546h133l99 -443q1 -7 7 -7h61q7 0 7 7l96 443h130zM203 867q-26 0 -45 18.5t-19 44.5q0 27 19 47t45 20q27 0 46.5 -20t19.5 -47q0 -26 -19.5 -44.5t-46.5 -18.5z
M371 867q-27 0 -46 18.5t-19 44.5q0 27 19 47t46 20q25 0 44 -20t19 -47q0 -26 -19 -44.5t-44 -18.5z" />
    <glyph glyph-name="alphatonos" unicode="&#x3ac;" horiz-adv-x="568" 
d="M-7 800h122l-51 -161h-123zM174 174l-26 -174h-130l125 766q2 13 15 23.5t28 10.5h197q15 0 28 -10.5t15 -23.5l125 -766h-130l-26 174h-221zM376 304l-53 355q-3 11 -9 11h-60q-6 0 -8 -11l-53 -355h183z" />
    <glyph glyph-name="epsilontonos" unicode="&#x3ad;" horiz-adv-x="477" 
d="M-71 800h122l-51 -161h-123zM201 670v-194h221v-130h-221v-216h248v-130h-378v800h378v-130h-248z" />
    <glyph glyph-name="etatonos" unicode="&#x3ae;" horiz-adv-x="577" 
d="M-75 800h122l-51 -161h-123zM376 506v294h130v-800h-130v378h-175v-378h-130v800h130v-294h175z" />
    <glyph glyph-name="iotatonos" unicode="&#x3af;" horiz-adv-x="282" 
d="M-65 800h122l-51 -161h-123zM206 0h-130v800h130v-800z" />
    <glyph glyph-name="upsilondieresistonos" unicode="&#x3b0;" horiz-adv-x="569" 
d="M277 1042h122l-51 -161h-123zM146 867q-26 0 -45 18.5t-19 44.5q0 27 19 47t45 20q27 0 46.5 -20t19.5 -47q0 -26 -19.5 -44.5t-46.5 -18.5zM461 867q-27 0 -46 18.5t-19 44.5q0 27 19 47t46 20q25 0 44 -20t19 -47q0 -26 -19 -44.5t-44 -18.5zM551 800l-123 -546
q-4 -14 -18.5 -23t-35.5 -9h-23v-222h-129v222h-20q-20 0 -35.5 9t-18.5 23l-130 546h133l99 -443q1 -7 7 -7h61q7 0 7 7l96 443h130z" />
    <glyph glyph-name="alpha" unicode="&#x3b1;" horiz-adv-x="568" 
d="M174 174l-26 -174h-130l125 766q2 13 15 23.5t28 10.5h197q15 0 28 -10.5t15 -23.5l125 -766h-130l-26 174h-221zM376 304l-53 355q-3 11 -9 11h-60q-6 0 -8 -11l-53 -355h183z" />
    <glyph glyph-name="beta" unicode="&#x3b2;" horiz-adv-x="560" 
d="M71 800h261q91 0 130.5 -37t39.5 -122v-105q0 -97 -77 -118q84 -24 84 -120v-126q0 -92 -40 -132t-133 -40h-265v800zM201 483h134q36 0 36 51v106q0 32 -37 32h-133v-189zM201 130h133q45 0 45 43v125q0 55 -40 55h-138v-223z" />
    <glyph glyph-name="gamma" unicode="&#x3b3;" horiz-adv-x="455" 
d="M201 670v-670h-130v800h376v-130h-246z" />
    <glyph glyph-name="delta" unicode="&#x3b4;" horiz-adv-x="568" 
d="M551 0h-533l125 766q2 13 15 23.5t28 10.5h197q15 0 28 -10.5t15 -23.5zM402 130l-79 529q-3 11 -9 11h-60q-6 0 -8 -11l-79 -529h235z" />
    <glyph glyph-name="epsilon" unicode="&#x3b5;" horiz-adv-x="477" 
d="M449 670h-248v-194h221v-130h-221v-216h248v-130h-378v800h378v-130z" />
    <glyph glyph-name="zeta" unicode="&#x3b6;" horiz-adv-x="501" 
d="M28 800h446l-261 -670h261v-130h-446l262 670h-262v130z" />
    <glyph glyph-name="eta" unicode="&#x3b7;" horiz-adv-x="577" 
d="M201 506h175v294h130v-800h-130v378h-175v-378h-130v800h130v-294z" />
    <glyph glyph-name="theta" unicode="&#x3b8;" horiz-adv-x="550" 
d="M56 134v528q0 60 42 102t102 42h150q60 0 102 -42t42 -102v-528q0 -60 -42 -102t-102 -42h-150q-60 0 -102 42t-42 102zM186 662v-528q0 -8 3 -11t11 -3h150q8 0 11 3t3 11v528q0 8 -3 11t-11 3h-150q-8 0 -11 -3t-3 -11zM343 362h-141v99h141v-99z" />
    <glyph glyph-name="iota" unicode="&#x3b9;" horiz-adv-x="282" 
d="M206 800v-800h-130v800h130z" />
    <glyph glyph-name="kappa" unicode="&#x3ba;" horiz-adv-x="595" 
d="M200 506h89l158 294h137l-187 -354v-9l187 -437h-137l-158 377h-89v-377h-129v800h129v-294z" />
    <glyph glyph-name="lambda" unicode="&#x3bb;" horiz-adv-x="568" 
d="M186 800h197q15 0 28 -10.5t15 -23.5l125 -766h-130l-98 659q-3 11 -9 11h-60q-6 0 -8 -11l-98 -659h-130l125 766q2 13 15 23.5t28 10.5z" />
    <glyph glyph-name="mu" unicode="&#x3bc;" horiz-adv-x="803" 
d="M401 314l61 486h249l30 -800h-130l-28 670h-9l-113 -660h-119l-112 660h-10l-28 -670h-130l31 800h245z" />
    <glyph glyph-name="nu" unicode="&#x3bd;" horiz-adv-x="629" 
d="M423 130h5v670h130v-800h-223l-129 670h-5v-670h-130v800h225z" />
    <glyph glyph-name="xi" unicode="&#x3be;" horiz-adv-x="656" 
d="M543 580h-130v91h-174v-91h-130v220h434v-220zM502 377h-349v129h349v-129zM585 0h-514v330h130v-201h254v201h130v-330z" />
    <glyph glyph-name="omicron" unicode="&#x3bf;" horiz-adv-x="550" 
d="M56 134v528q0 60 42 102t102 42h150q60 0 102 -42t42 -102v-528q0 -60 -42 -102t-102 -42h-150q-60 0 -102 42t-42 102zM186 662v-528q0 -8 3 -11t11 -3h150q8 0 11 3t3 11v528q0 8 -3 11t-11 3h-150q-8 0 -11 -3t-3 -11z" />
    <glyph glyph-name="pi" unicode="&#x3c0;" horiz-adv-x="575" 
d="M373 0v672h-172v-672h-130v800h432v-800h-130z" />
    <glyph glyph-name="rho" unicode="&#x3c1;" horiz-adv-x="530" 
d="M71 800h290q62 0 102 -40q42 -39 42 -98v-186q0 -60 -42 -102t-102 -42h-160v-332h-130v800zM201 462h160q8 0 11 3t3 11v184q0 10 -11 10h-163v-208z" />
    <glyph glyph-name="sigmafinal" unicode="&#x3c2;" horiz-adv-x="532" 
d="M504 670h-258l90 -265l-93 -275h258v-130h-445l146 403l-143 397h445v-130z" />
    <glyph glyph-name="sigma" unicode="&#x3c3;" horiz-adv-x="532" 
d="M504 670h-258l90 -265l-93 -275h258v-130h-445l146 403l-143 397h445v-130z" />
    <glyph glyph-name="tau" unicode="&#x3c4;" horiz-adv-x="474" 
d="M8 800h458v-130h-164v-670h-130v670h-164v130z" />
    <glyph glyph-name="upsilon" unicode="&#x3c5;" horiz-adv-x="569" 
d="M551 800l-123 -546q-4 -14 -18.5 -23t-35.5 -9h-23v-222h-129v222h-20q-20 0 -35.5 9t-18.5 23l-130 546h133l99 -443q1 -7 7 -7h61q7 0 7 7l96 443h130z" />
    <glyph glyph-name="phi" unicode="&#x3c6;" horiz-adv-x="652" 
d="M391 706h53q64 0 107 -42q44 -42 44 -102v-328q0 -60 -44 -102q-43 -42 -107 -42h-53v-90h-130v90h-53q-64 0 -108 42t-44 102v328q0 60 44 102t108 42h53v94h130v-94zM261 576h-49q-15 0 -20.5 -5t-5.5 -19v-308q0 -14 5 -19t21 -5h49v356zM465 244v308q0 14 -5 19
t-20 5h-49v-356h49q15 0 20 5t5 19z" />
    <glyph glyph-name="chi" unicode="&#x3c7;" horiz-adv-x="560" 
d="M393 0l-121 319l-121 -319h-133l178 437l-151 363h135l92 -274l92 274h135l-153 -363l179 -437h-132z" />
    <glyph glyph-name="psi" unicode="&#x3c8;" horiz-adv-x="649" 
d="M593 801v-300q0 -68 -36 -106t-108 -38h-60v-357h-130v357h-59q-60 0 -102 42t-42 102v300h130v-300q0 -8 3 -11t11 -3h59v313h130v-313h60q8 0 11 3t3 11v300h130z" />
    <glyph glyph-name="omega" unicode="&#x3c9;" horiz-adv-x="565" 
d="M509 130v-130h-162v270q26 6 26 34v356q0 16 -14 16h-154q-14 0 -14 -16v-356q0 -13 8 -23t19 -12v-269h-162v130h47v59q-42 42 -42 95v378q0 60 42 102t102 42h154q60 0 102 -42t42 -102v-378q0 -49 -41 -96v-58h47z" />
    <glyph glyph-name="iotadieresis" unicode="&#x3ca;" horiz-adv-x="282" 
d="M58 867q-26 0 -45 18.5t-19 44.5q0 27 19 47t45 20q27 0 46.5 -20t19.5 -47q0 -26 -19.5 -44.5t-46.5 -18.5zM226 867q-27 0 -46 18.5t-19 44.5q0 27 19 47t46 20q25 0 44 -20t19 -47q0 -26 -18.5 -44.5t-44.5 -18.5zM206 0h-130v800h130v-800z" />
    <glyph glyph-name="upsilondieresis" unicode="&#x3cb;" horiz-adv-x="569" 
d="M202 867q-26 0 -45 18.5t-19 44.5q0 27 19 47t45 20q27 0 46.5 -20t19.5 -47q0 -26 -19.5 -44.5t-46.5 -18.5zM370 867q-27 0 -46 18.5t-19 44.5q0 27 19 47t46 20q25 0 44 -20t19 -47q0 -26 -18.5 -44.5t-44.5 -18.5zM551 800l-123 -546q-4 -14 -18.5 -23t-35.5 -9h-23
v-222h-129v222h-20q-20 0 -35.5 9t-18.5 23l-130 546h133l99 -443q1 -7 7 -7h61q7 0 7 7l96 443h130z" />
    <glyph glyph-name="omicrontonos" unicode="&#x3cc;" horiz-adv-x="550" 
d="M56 134v528q0 60 42 102t102 42h150q60 0 102 -42t42 -102v-528q0 -60 -42 -102t-102 -42h-150q-60 0 -102 42t-42 102zM-59 800h122l-51 -161h-123zM186 662v-528q0 -8 3 -11t11 -3h150q8 0 11 3t3 11v528q0 8 -3 11t-11 3h-150q-8 0 -11 -3t-3 -11z" />
    <glyph glyph-name="upsilontonos" unicode="&#x3cd;" horiz-adv-x="569" 
d="M551 800l-123 -546q-4 -14 -18.5 -23t-35.5 -9h-23v-222h-129v222h-20q-20 0 -35.5 9t-18.5 23l-130 546h133l99 -443q1 -7 7 -7h61q7 0 7 7l96 443h130zM-119 800h122l-51 -161h-123z" />
    <glyph glyph-name="omegatonos" unicode="&#x3ce;" horiz-adv-x="565" 
d="M509 0h-162v270q26 6 26 34v356q0 16 -14 16h-154q-14 0 -14 -16v-356q0 -13 8 -23t19 -12v-269h-162v130h47v59q-42 42 -42 95v378q0 60 42 102t102 42h154q60 0 102 -42t42 -102v-378q0 -49 -41 -96v-58h47v-130zM-55 800h122l-51 -161h-123z" />
    <glyph glyph-name="uni0401" unicode="&#x401;" horiz-adv-x="477" 
d="M184 867q-26 0 -45 18.5t-19 44.5q0 27 19 47t45 20q27 0 46.5 -20t19.5 -47q0 -26 -19.5 -44.5t-46.5 -18.5zM352 867q-27 0 -46 18.5t-19 44.5q0 27 19 47t46 20q25 0 44 -20t19 -47q0 -26 -18.5 -44.5t-44.5 -18.5zM449 670h-248v-194h221v-130h-221v-216h248v-130
h-378v800h378v-130z" />
    <glyph glyph-name="uni0402" unicode="&#x402;" horiz-adv-x="638" 
d="M302 670v-157q127 56 179 56q40 0 68 -28t28 -68v-478q0 -63 -45 -107q-45 -45 -108 -44h-90v130h89q24 -2 24 21v412q0 18 -10 18l-135 -42v-383h-130v670h-164v130h459v-130h-165z" />
    <glyph glyph-name="uni0403" unicode="&#x403;" horiz-adv-x="455" 
d="M447 670h-246v-670h-130v800h376v-130zM269 1005h125l-101 -131h-126z" />
    <glyph glyph-name="uni0404" unicode="&#x404;" 
d="M200 806h150q60 0 102 -42t42 -102v-85h-130v80q0 19 -14 19h-150q-14 0 -14 -19v-181h256v-130h-256v-212q0 -8 3 -11t11 -3h150q8 0 11 3t3 11v116h130v-116q0 -60 -42 -102t-102 -42h-150q-60 0 -102 42t-42 102v528q0 60 42 102t102 42z" />
    <glyph glyph-name="uni0405" unicode="&#x405;" horiz-adv-x="523" 
d="M175 282v-148q0 -8 3 -11t11 -3h139q8 0 11 3t3 11v77q6 63 -49 118q-9 12 -35 29q-31 20 -35 22l-42 24q-61 34 -95.5 86t-34.5 117v55q0 60 42 102t102 42h139q60 0 102 -51q42 -49 42 -123h-130q0 44 -24 44h-127q-16 0 -16 -16v-53q0 -41 39 -71q29 -21 35 -25
l49 -27l16 -9q70 -39 111 -106t41 -158v-77q0 -60 -42 -102t-102 -42h-139q-60 0 -102 42t-42 102v148h130z" />
    <glyph glyph-name="uni0406" unicode="&#x406;" horiz-adv-x="282" 
d="M206 800v-800h-130v800h130z" />
    <glyph glyph-name="uni0407" unicode="&#x407;" horiz-adv-x="282" 
d="M58 867q-26 0 -45 18.5t-19 44.5q0 27 19 47t45 20q27 0 46.5 -20t19.5 -47q0 -26 -19.5 -44.5t-46.5 -18.5zM226 867q-27 0 -46 18.5t-19 44.5q0 27 19 47t46 20q25 0 44 -20t19 -47q0 -26 -18.5 -44.5t-44.5 -18.5zM206 0h-130v800h130v-800z" />
    <glyph glyph-name="uni0408" unicode="&#x408;" horiz-adv-x="510" 
d="M150 292v-158q0 -8 3 -11t11 -3h146q8 0 11 3t3 11v666h130v-666q0 -60 -42 -102t-102 -42h-146q-60 0 -102 42t-42 102v158h130z" />
    <glyph glyph-name="uni0409" unicode="&#x409;" horiz-adv-x="910" 
d="M580 801v-288q159 57 187 57q40 0 63.5 -26t23.5 -71v-350q0 -56 -39 -95t-94 -38h-138q-55 0 -94 39t-39 94v227h-1v321h-155l-22 -465q-6 -110 -48 -165q-18 -22 -52 -34q-38 -12 -63 -13q-29 -3 -79 -3h-10v130h10q65 0 86 15q22 15 24 66l25 599h415zM724 133v277
q0 14 -11 14q-14 0 -133 -40v-251q0 -15 12 -15h119q13 0 13 15z" />
    <glyph glyph-name="uni040A" unicode="&#x40a;" horiz-adv-x="831" 
d="M501 708v-195q159 57 187 57q40 0 63.5 -26t23.5 -71v-350q0 -56 -39 -95t-94 -38h-138q-56 0 -95 39q-38 40 -38 94v227h-1v28h-169v-378h-130v800h130v-294h169v294h130v-92h1zM645 133v277q0 14 -11 14q-14 0 -133 -40v-251q0 -15 12 -15h119q13 0 13 15z" />
    <glyph glyph-name="uni040B" unicode="&#x40b;" horiz-adv-x="638" 
d="M302 670v-157q127 56 179 56q40 0 68 -28t28 -68v-473h-130v407q0 18 -10 18l-135 -42v-383h-130v670h-164v130h459v-130h-165z" />
    <glyph glyph-name="uni040C" unicode="&#x40c;" horiz-adv-x="617" 
d="M602 799v-129q-1 0 -23.5 -5t-44.5 -17t-34 -34l-105 -168v-8l212 -438h-137l-183 378h-87v-378h-129v800h129v-294h88l69 106q57 94 116.5 137t128.5 50zM346 1005h125l-101 -131h-126z" />
    <glyph glyph-name="uni040E" unicode="&#x40e;" horiz-adv-x="569" 
d="M552 800l-183 -800h-130l48 218h-96q-15 0 -28 10.5t-15 23.5l-130 548h133l96 -445q1 -7 6 -7h62q6 0 6 7l101 445h130zM307 990h74q0 -40 -28 -68t-68 -28t-68 28t-28 68h75q0 -20 21 -20q22 0 22 20z" />
    <glyph glyph-name="uni040F" unicode="&#x40f;" horiz-adv-x="575" 
d="M504 800v-800h-150v-156h-130v156h-152v800h130v-672h172v672h130z" />
    <glyph glyph-name="uni0410" unicode="&#x410;" horiz-adv-x="568" 
d="M395 174h-221l-26 -174h-130l125 766q2 13 15 23.5t28 10.5h197q15 0 28 -10.5t15 -23.5l125 -766h-130zM376 304l-53 355q-3 11 -9 11h-60q-6 0 -8 -11l-53 -355h183z" />
    <glyph glyph-name="uni0411" unicode="&#x411;" horiz-adv-x="532" 
d="M202 671v-158q159 57 187 57q40 0 63.5 -26t23.5 -71v-350q0 -56 -39 -95t-94 -38h-138q-55 0 -94 39t-39 94v380h-1v298h366v-130h-235zM346 133v277q0 14 -11 14q-14 0 -133 -40v-251q0 -15 12 -15h119q13 0 13 15z" />
    <glyph glyph-name="uni0412" unicode="&#x412;" horiz-adv-x="560" 
d="M71 800h261q91 0 130.5 -37t39.5 -122v-105q0 -97 -77 -118q84 -24 84 -120v-126q0 -92 -40 -132t-133 -40h-265v800zM201 483h134q36 0 36 51v106q0 32 -37 32h-133v-189zM201 130h133q45 0 45 43v125q0 55 -40 55h-138v-223z" />
    <glyph glyph-name="uni0413" unicode="&#x413;" horiz-adv-x="455" 
d="M447 800v-130h-246v-670h-130v800h376z" />
    <glyph glyph-name="uni0414" unicode="&#x414;" horiz-adv-x="745" 
d="M595 129h143v-220h-130v91h-590v126h8q57 0 82.5 25.5t28.5 79.5l26 570h432v-672zM465 129v542h-174l-21 -442q-3 -72 -25 -100h220z" />
    <glyph glyph-name="uni0415" unicode="&#x415;" horiz-adv-x="484" 
d="M449 800v-130h-248v-194h221v-130h-221v-216h248v-130h-378v800h378z" />
    <glyph glyph-name="uni0416" unicode="&#x416;" horiz-adv-x="875" 
d="M852 799v-129q-1 0 -7.5 -1t-9 -1.5t-10 -2.5t-11 -3t-11 -3.5t-12 -5.5t-11 -7t-11 -8.5t-10 -10.5t-9.5 -13l-105 -168v-8l212 -438h-137l-183 378h-33v-378h-130v378h-36l-183 -378h-137l212 438v8l-105 168q-27 44 -102 56v129q69 -7 128.5 -50t116.5 -137l69 -106
h37v294h130v-294h34l69 106q57 94 116.5 137t128.5 50z" />
    <glyph glyph-name="uni0417" unicode="&#x417;" horiz-adv-x="496" 
d="M32 800h273q62 0 97.5 -32t35.5 -90v-116q0 -98 -47 -118q54 -20 54 -120v-208q0 -59 -35 -89.5t-98 -30.5h-146q-63 0 -100 31.5t-37 88.5v166h130v-137q0 -19 13 -19h131q12 0 12 19v169q0 27 -10 38.5t-33 11.5h-182v130h182q36 0 36 68v94q0 12 -11 12h-265v132z" />
    <glyph glyph-name="uni0418" unicode="&#x418;" horiz-adv-x="620" 
d="M549 800v-800h-130v492l-218 -459v-33h-130v800h130v-492l218 460v32h130z" />
    <glyph glyph-name="uni0419" unicode="&#x419;" horiz-adv-x="620" 
d="M549 0h-130v492l-218 -459v-33h-130v800h130v-492l218 460v32h130v-800zM333 990h74q0 -40 -28 -68t-68 -28t-68 28t-28 68h75q0 -20 21 -20q22 0 22 20z" />
    <glyph glyph-name="uni041A" unicode="&#x41a;" horiz-adv-x="617" 
d="M602 799v-129q-1 0 -23.5 -5t-44.5 -17t-34 -34l-105 -168v-8l212 -438h-137l-183 378h-87v-378h-129v800h129v-294h88l69 106q57 94 116.5 137t128.5 50z" />
    <glyph glyph-name="uni041B" unicode="&#x41b;" horiz-adv-x="651" 
d="M580 801v-801h-130v671h-156l-22 -465q-6 -110 -48 -165q-18 -22 -52 -34q-38 -12 -63 -13q-29 -3 -79 -3h-10v130h10q65 0 86 15q22 15 24 66l25 599h415z" />
    <glyph glyph-name="uni041C" unicode="&#x41c;" horiz-adv-x="803" 
d="M338 800l63 -486l61 486h249l30 -800h-130l-28 670h-9l-113 -660h-119l-112 660h-10l-28 -670h-130l31 800h245z" />
    <glyph glyph-name="uni041D" unicode="&#x41d;" horiz-adv-x="577" 
d="M201 800v-294h175v294h130v-800h-130v378h-175v-378h-130v800h130z" />
    <glyph glyph-name="uni041E" unicode="&#x41e;" horiz-adv-x="550" 
d="M56 134v528q0 60 42 102t102 42h150q60 0 102 -42t42 -102v-528q0 -60 -42 -102t-102 -42h-150q-60 0 -102 42t-42 102zM186 662v-528q0 -8 3 -11t11 -3h150q8 0 11 3t3 11v528q0 8 -3 11t-11 3h-150q-8 0 -11 -3t-3 -11z" />
    <glyph glyph-name="uni041F" unicode="&#x41f;" horiz-adv-x="575" 
d="M503 800v-800h-130v672h-172v-672h-130v800h432z" />
    <glyph glyph-name="uni0420" unicode="&#x420;" horiz-adv-x="530" 
d="M71 800h290q62 0 102 -40q42 -39 42 -98v-186q0 -60 -42 -102t-102 -42h-160v-332h-130v800zM201 462h160q8 0 11 3t3 11v184q0 10 -11 10h-163v-208z" />
    <glyph glyph-name="uni0421" unicode="&#x421;" horiz-adv-x="545" 
d="M56 134v528q0 60 42 102t102 42h150q60 0 102 -42t42 -102v-126h-130v124q0 16 -15 16h-148q-15 0 -15 -16v-525q0 -15 14 -15h153q11 0 11 15v157h130v-158q0 -60 -42 -102t-102 -42h-150q-60 0 -102 42t-42 102z" />
    <glyph glyph-name="uni0422" unicode="&#x422;" horiz-adv-x="474" 
d="M8 670v130h458v-130h-164v-670h-130v670h-164z" />
    <glyph glyph-name="uni0423" unicode="&#x423;" horiz-adv-x="569" 
d="M422 800h130l-183 -800h-130l48 218h-8h-88q-15 0 -28 10.5t-15 23.5l-130 548h133l96 -445q1 -7 6 -7h62q6 0 6 7z" />
    <glyph glyph-name="uni0424" unicode="&#x424;" horiz-adv-x="652" 
d="M391 706h53q64 0 107 -42q44 -42 44 -102v-328q0 -60 -44 -102q-43 -42 -107 -42h-53v-90h-130v90h-53q-64 0 -108 42t-44 102v328q0 60 44 102t108 42h53v94h130v-94zM212 220h49v356h-49q-15 0 -20.5 -5t-5.5 -19v-308q0 -14 5 -19t21 -5zM465 244v308q0 14 -5 19
t-20 5h-49v-356h49q15 0 20 5t5 19z" />
    <glyph glyph-name="uni0425" unicode="&#x425;" horiz-adv-x="543" 
d="M525 0h-132l-121 319l-121 -319h-133l178 437l-151 363h135l92 -274l92 274h135l-153 -363z" />
    <glyph glyph-name="uni0426" unicode="&#x426;" horiz-adv-x="597" 
d="M504 129h86v-220h-130v91h-388v800h130v-672h172v672h130v-671z" />
    <glyph glyph-name="uni0427" unicode="&#x427;" horiz-adv-x="544" 
d="M472 801v-801h-130v332q-138 -57 -185 -57q-40 0 -68 28t-28 68v430h130v-360q0 -10 5.5 -18.5t14.5 -8.5q39 0 131 47v340h130z" />
    <glyph glyph-name="uni0428" unicode="&#x428;" horiz-adv-x="772" 
d="M701 800v-800h-630v800h130v-671h120v671h130v-671h120v671h130z" />
    <glyph glyph-name="uni0429" unicode="&#x429;" horiz-adv-x="797" 
d="M701 129h88v-220h-130v91h-588v800h130v-671h120v671h130v-671h120v671h130v-671z" />
    <glyph glyph-name="uni042A" unicode="&#x42a;" horiz-adv-x="673" 
d="M344 708v-195q159 57 187 57q40 0 63.5 -26t23.5 -71v-350q0 -56 -39 -95t-94 -38h-138q-55 0 -94 39t-39 94v380h-1v168h-205v130h335v-93h1zM488 133v277q0 14 -11 14q-14 0 -133 -40v-251q0 -15 12 -15h119q13 0 13 15z" />
    <glyph glyph-name="uni042B" unicode="&#x42b;" horiz-adv-x="777" 
d="M202 708v-195q159 57 187 57q40 0 63.5 -26t23.5 -71v-350q0 -56 -39 -95t-94 -38h-138q-55 0 -94 39t-39 94v227h-1v450h130v-92h1zM706 800v-800h-130v800h130zM346 133v277q0 14 -11 14q-14 0 -133 -40v-251q0 -15 12 -15h119q13 0 13 15z" />
    <glyph glyph-name="uni042C" unicode="&#x42c;" horiz-adv-x="512" 
d="M187 708v-195q159 57 187 57q40 0 63.5 -26t23.5 -71v-350q0 -56 -39 -95q-38 -40 -94 -38h-138q-56 0 -95 39q-38 40 -38 94v227h-1v450h130v-92h1zM331 133v277q0 14 -11 14q-14 0 -133 -40v-251q0 -15 12 -15h119q13 0 13 15z" />
    <glyph glyph-name="uni042D" unicode="&#x42d;" 
d="M172 806h150q60 0 102 -42t42 -102v-528q0 -60 -42 -102t-102 -42h-150q-60 0 -102 42t-42 102v116h130v-116q0 -8 3 -11t11 -3h150q8 0 11 3t3 11v212h-256v130h256v181q0 19 -14 19h-150q-14 0 -14 -19v-80h-130v85q0 60 42 102t102 42z" />
    <glyph glyph-name="uni042E" unicode="&#x42e;" horiz-adv-x="846" 
d="M496 806h150q60 0 102 -42t42 -102v-528q0 -60 -42 -102t-102 -42h-150q-60 0 -102 42t-42 102v244h-151v-378h-130v800h130v-294h151v156q0 60 42 102t102 42zM660 134v528q0 8 -3 11t-11 3h-150q-8 0 -11 -3t-3 -11v-528q0 -8 3 -11t11 -3h150q8 0 11 3t3 11z" />
    <glyph glyph-name="uni042F" unicode="&#x42f;" horiz-adv-x="550" 
d="M152 0h-133l131 387q-47 13 -76 51.5t-29 87.5v136q0 59 41 98q41 40 103 40h290v-800h-130v382h-71zM189 512h160v158h-160h-3q-7 0 -9 -1t-2 -7v-136q0 -8 3 -11t11 -3z" />
    <glyph glyph-name="uni0430" unicode="&#x430;" horiz-adv-x="568" 
d="M174 174l-26 -174h-130l125 766q2 13 15 23.5t28 10.5h197q15 0 28 -10.5t15 -23.5l125 -766h-130l-26 174h-221zM376 304l-53 355q-3 11 -9 11h-60q-6 0 -8 -11l-53 -355h183z" />
    <glyph glyph-name="uni0431" unicode="&#x431;" horiz-adv-x="532" 
d="M202 671v-158q159 57 187 57q40 0 63.5 -26t23.5 -71v-350q0 -56 -39 -95t-94 -38h-138q-55 0 -94 39t-39 94v380h-1v298h366v-130h-235zM346 133v277q0 14 -11 14q-14 0 -133 -40v-251q0 -15 12 -15h119q13 0 13 15z" />
    <glyph glyph-name="uni0432" unicode="&#x432;" horiz-adv-x="560" 
d="M71 800h261q91 0 130.5 -37t39.5 -122v-105q0 -97 -77 -118q84 -24 84 -120v-126q0 -92 -40 -132t-133 -40h-265v800zM201 483h134q36 0 36 51v106q0 32 -37 32h-133v-189zM201 130h133q45 0 45 43v125q0 55 -40 55h-138v-223z" />
    <glyph glyph-name="uni0433" unicode="&#x433;" horiz-adv-x="455" 
d="M447 670h-246v-670h-130v800h376v-130z" />
    <glyph glyph-name="uni0434" unicode="&#x434;" horiz-adv-x="745" 
d="M595 129h143v-220h-130v91h-590v126h8q57 0 82.5 25.5t28.5 79.5l26 570h432v-672zM465 129v542h-174l-21 -442q-3 -72 -25 -100h220z" />
    <glyph glyph-name="uni0435" unicode="&#x435;" horiz-adv-x="477" 
d="M449 670h-248v-194h221v-130h-221v-216h248v-130h-378v800h378v-130z" />
    <glyph glyph-name="uni0436" unicode="&#x436;" horiz-adv-x="875" 
d="M852 799v-129q-1 0 -7.5 -1t-9 -1.5t-10 -2.5t-11 -3t-11 -3.5t-12 -5.5t-11 -7t-11 -8.5t-10 -10.5t-9.5 -13l-105 -168v-8l212 -438h-137l-183 378h-33v-378h-130v378h-36l-183 -378h-137l212 438v8l-105 168q-27 44 -102 56v129q69 -7 128.5 -50t116.5 -137l69 -106
h37v294h130v-294h34l69 106q57 94 116.5 137t128.5 50z" />
    <glyph glyph-name="uni0437" unicode="&#x437;" horiz-adv-x="496" 
d="M32 800h273q62 0 97.5 -32t35.5 -90v-116q0 -98 -47 -118q54 -20 54 -120v-208q0 -59 -35 -89.5t-98 -30.5h-146q-63 0 -100 31.5t-37 88.5v166h130v-137q0 -19 13 -19h131q12 0 12 19v169q0 27 -10 38.5t-33 11.5h-182v130h182q36 0 36 68v94q0 12 -11 12h-265v132z" />
    <glyph glyph-name="uni0438" unicode="&#x438;" horiz-adv-x="620" 
d="M549 0h-130v492l-218 -459v-33h-130v800h130v-492l218 460v32h130v-800z" />
    <glyph glyph-name="uni0439" unicode="&#x439;" horiz-adv-x="620" 
d="M339 990h74q0 -40 -28 -68t-68 -28t-68 28t-28 68h75q0 -20 21 -20q22 0 22 20zM419 0v492l-218 -459v-33h-130v800h130v-492l218 460v32h130v-800h-130z" />
    <glyph glyph-name="uni043A" unicode="&#x43a;" horiz-adv-x="617" 
d="M602 799v-129q-1 0 -23.5 -5t-44.5 -17t-34 -34l-105 -168v-8l212 -438h-137l-183 378h-87v-378h-129v800h129v-294h88l69 106q57 94 116.5 137t128.5 50z" />
    <glyph glyph-name="uni043B" unicode="&#x43b;" horiz-adv-x="651" 
d="M580 0h-130v671h-156l-22 -465q-6 -110 -48 -165q-18 -22 -52 -34q-38 -12 -63 -13q-29 -3 -79 -3h-10v130h10q65 0 86 15q22 15 24 66l25 599h415v-801z" />
    <glyph glyph-name="uni043C" unicode="&#x43c;" horiz-adv-x="803" 
d="M401 314l61 486h249l30 -800h-130l-28 670h-9l-113 -660h-119l-112 660h-10l-28 -670h-130l31 800h245z" />
    <glyph glyph-name="uni043D" unicode="&#x43d;" horiz-adv-x="577" 
d="M201 506h175v294h130v-800h-130v378h-175v-378h-130v800h130v-294z" />
    <glyph glyph-name="uni043E" unicode="&#x43e;" horiz-adv-x="550" 
d="M56 134v528q0 60 42 102t102 42h150q60 0 102 -42t42 -102v-528q0 -60 -42 -102t-102 -42h-150q-60 0 -102 42t-42 102zM186 662v-528q0 -8 3 -11t11 -3h150q8 0 11 3t3 11v528q0 8 -3 11t-11 3h-150q-8 0 -11 -3t-3 -11z" />
    <glyph glyph-name="uni043F" unicode="&#x43f;" horiz-adv-x="575" 
d="M503 0h-130v672h-172v-672h-130v800h432v-800z" />
    <glyph glyph-name="uni0440" unicode="&#x440;" horiz-adv-x="530" 
d="M71 800h290q62 0 102 -40q42 -39 42 -98v-186q0 -60 -42 -102t-102 -42h-160v-332h-130v800zM201 462h160q8 0 11 3t3 11v184q0 10 -11 10h-163v-208z" />
    <glyph glyph-name="uni0441" unicode="&#x441;" horiz-adv-x="545" 
d="M56 134v528q0 60 42 102t102 42h150q60 0 102 -42t42 -102v-126h-130v124q0 16 -15 16h-148q-15 0 -15 -16v-525q0 -15 14 -15h153q11 0 11 15v157h130v-158q0 -60 -42 -102t-102 -42h-150q-60 0 -102 42t-42 102z" />
    <glyph glyph-name="uni0442" unicode="&#x442;" horiz-adv-x="474" 
d="M8 800h458v-130h-164v-670h-130v670h-164v130z" />
    <glyph glyph-name="uni0443" unicode="&#x443;" horiz-adv-x="569" 
d="M552 800l-183 -800h-130l48 218h-96q-15 0 -28 10.5t-15 23.5l-130 548h133l96 -445q1 -7 6 -7h62q6 0 6 7l101 445h130z" />
    <glyph glyph-name="uni0444" unicode="&#x444;" horiz-adv-x="652" 
d="M391 706h53q64 0 107 -42q44 -42 44 -102v-328q0 -60 -44 -102q-43 -42 -107 -42h-53v-90h-130v90h-53q-64 0 -108 42t-44 102v328q0 60 44 102t108 42h53v94h130v-94zM261 220v356h-49q-15 0 -20.5 -5t-5.5 -19v-308q0 -14 5 -19t21 -5h49zM465 244v308q0 14 -5 19
t-20 5h-49v-356h49q15 0 20 5t5 19z" />
    <glyph glyph-name="uni0445" unicode="&#x445;" horiz-adv-x="560" 
d="M393 0l-121 319l-121 -319h-133l178 437l-151 363h135l92 -274l92 274h135l-153 -363l179 -437h-132z" />
    <glyph glyph-name="uni0446" unicode="&#x446;" horiz-adv-x="597" 
d="M590 129v-220h-130v91h-388v800h130v-672h172v672h130v-671h86z" />
    <glyph glyph-name="uni0447" unicode="&#x447;" horiz-adv-x="544" 
d="M472 0h-130v332q-138 -57 -185 -57q-40 0 -68 28t-28 68v430h130v-360q0 -10 5.5 -18.5t14.5 -8.5q39 0 131 47v340h130v-801z" />
    <glyph glyph-name="uni0448" unicode="&#x448;" horiz-adv-x="772" 
d="M701 0h-630v800h130v-671h120v671h130v-671h120v671h130v-800z" />
    <glyph glyph-name="uni0449" unicode="&#x449;" horiz-adv-x="797" 
d="M789 129v-220h-130v91h-588v800h130v-671h120v671h130v-671h120v671h130v-671h88z" />
    <glyph glyph-name="uni044A" unicode="&#x44a;" horiz-adv-x="673" 
d="M344 708v-195q159 57 187 57q40 0 63.5 -26t23.5 -71v-350q0 -56 -39 -95t-94 -38h-138q-55 0 -94 39t-39 94v380h-1v168h-205v130h335v-93h1zM488 133v277q0 14 -11 14q-14 0 -133 -40v-251q0 -15 12 -15h119q13 0 13 15z" />
    <glyph glyph-name="uni044B" unicode="&#x44b;" horiz-adv-x="777" 
d="M202 708v-195q159 57 187 57q40 0 63.5 -26t23.5 -71v-350q0 -56 -39 -95t-94 -38h-138q-55 0 -94 39t-39 94v227h-1v450h130v-92h1zM706 800v-800h-130v800h130zM346 133v277q0 14 -11 14q-14 0 -133 -40v-251q0 -15 12 -15h119q13 0 13 15z" />
    <glyph glyph-name="uni044C" unicode="&#x44c;" horiz-adv-x="512" 
d="M187 708v-195q159 57 187 57q40 0 63.5 -26t23.5 -71v-350q0 -56 -39 -95q-38 -40 -94 -38h-138q-56 0 -95 39q-38 40 -38 94v227h-1v450h130v-92h1zM331 133v277q0 14 -11 14q-14 0 -133 -40v-251q0 -15 12 -15h119q13 0 13 15z" />
    <glyph glyph-name="uni044D" unicode="&#x44d;" 
d="M172 806h150q60 0 102 -42t42 -102v-528q0 -60 -42 -102t-102 -42h-150q-60 0 -102 42t-42 102v116h130v-116q0 -8 3 -11t11 -3h150q8 0 11 3t3 11v212h-256v130h256v181q0 19 -14 19h-150q-14 0 -14 -19v-80h-130v85q0 60 42 102t102 42z" />
    <glyph glyph-name="uni044E" unicode="&#x44e;" horiz-adv-x="846" 
d="M496 806h150q60 0 102 -42t42 -102v-528q0 -60 -42 -102t-102 -42h-150q-60 0 -102 42t-42 102v244h-151v-378h-130v800h130v-294h151v156q0 60 42 102t102 42zM660 134v528q0 8 -3 11t-11 3h-150q-8 0 -11 -3t-3 -11v-528q0 -8 3 -11t11 -3h150q8 0 11 3t3 11z" />
    <glyph glyph-name="uni044F" unicode="&#x44f;" horiz-adv-x="550" 
d="M278 382l-126 -382h-133l131 387q-47 13 -76 51.5t-29 87.5v136q0 59 41 98q41 40 103 40h290v-800h-130v382h-71zM189 512h160v158h-160h-3q-7 0 -9 -1t-2 -7v-136q0 -8 3 -11t11 -3z" />
    <glyph glyph-name="uni0451" unicode="&#x451;" horiz-adv-x="477" 
d="M187 867q-26 0 -45 18.5t-19 44.5q0 27 19 47t45 20q27 0 46.5 -20t19.5 -47q0 -26 -19.5 -44.5t-46.5 -18.5zM355 867q-27 0 -46 18.5t-19 44.5q0 27 19 47t46 20q25 0 44 -20t19 -47q0 -26 -19 -44.5t-44 -18.5zM201 670v-194h221v-130h-221v-216h248v-130h-378v800
h378v-130h-248z" />
    <glyph glyph-name="uni0452" unicode="&#x452;" horiz-adv-x="638" 
d="M302 670v-157q127 56 179 56q40 0 68 -28t28 -68v-478q0 -63 -45 -107q-45 -45 -108 -44h-90v130h89q24 -2 24 21v412q0 18 -10 18l-135 -42v-383h-130v670h-164v130h459v-130h-165z" />
    <glyph glyph-name="uni0453" unicode="&#x453;" horiz-adv-x="455" 
d="M201 670v-670h-130v800h376v-130h-246zM321 1005h125l-101 -131h-126z" />
    <glyph glyph-name="uni0454" unicode="&#x454;" 
d="M200 806h150q60 0 102 -42t42 -102v-85h-130v80q0 19 -14 19h-150q-14 0 -14 -19v-181h256v-130h-256v-212q0 -8 3 -11t11 -3h150q8 0 11 3t3 11v116h130v-116q0 -60 -42 -102t-102 -42h-150q-60 0 -102 42t-42 102v528q0 60 42 102t102 42z" />
    <glyph glyph-name="uni0455" unicode="&#x455;" horiz-adv-x="523" 
d="M175 282v-148q0 -8 3 -11t11 -3h139q8 0 11 3t3 11v77q6 63 -49 118q-9 12 -35 29q-31 20 -35 22l-42 24q-61 34 -95.5 86t-34.5 117v55q0 60 42 102t102 42h139q60 0 102 -51q42 -49 42 -123h-130q0 44 -24 44h-127q-16 0 -16 -16v-53q0 -41 39 -71q29 -21 35 -25
l49 -27l16 -9q70 -39 111 -106t41 -158v-77q0 -60 -42 -102t-102 -42h-139q-60 0 -102 42t-42 102v148h130z" />
    <glyph glyph-name="uni0456" unicode="&#x456;" horiz-adv-x="282" 
d="M206 0h-130v800h130v-800z" />
    <glyph glyph-name="uni0457" unicode="&#x457;" horiz-adv-x="282" 
d="M62 867q-26 0 -45.5 19t-19.5 44q0 27 19.5 47t45.5 20q27 0 46.5 -20t19.5 -47q0 -26 -19.5 -44.5t-46.5 -18.5zM230 867q-27 0 -46 18.5t-19 44.5q0 27 19 47t46 20q25 0 44 -20t19 -47q0 -26 -18.5 -44.5t-44.5 -18.5zM76 0v800h130v-800h-130z" />
    <glyph glyph-name="uni0458" unicode="&#x458;" horiz-adv-x="510" 
d="M150 292v-158q0 -8 3 -11t11 -3h146q8 0 11 3t3 11v666h130v-666q0 -60 -42 -102t-102 -42h-146q-60 0 -102 42t-42 102v158h130z" />
    <glyph glyph-name="uni0459" unicode="&#x459;" horiz-adv-x="910" 
d="M580 801v-288q159 57 187 57q40 0 63.5 -26t23.5 -71v-350q0 -56 -39 -95t-94 -38h-138q-55 0 -94 39t-39 94v227h-1v321h-155l-22 -465q-6 -110 -48 -165q-18 -22 -52 -34q-38 -12 -63 -13q-29 -3 -79 -3h-10v130h10q65 0 86 15q22 15 24 66l25 599h415zM724 133v277
q0 14 -11 14q-14 0 -133 -40v-251q0 -15 12 -15h119q13 0 13 15z" />
    <glyph glyph-name="uni045A" unicode="&#x45a;" horiz-adv-x="831" 
d="M501 708v-195q159 57 187 57q40 0 63.5 -26t23.5 -71v-350q0 -56 -39 -95t-94 -38h-138q-56 0 -95 39q-38 40 -38 94v227h-1v28h-169v-378h-130v800h130v-294h169v294h130v-92h1zM645 133v277q0 14 -11 14q-14 0 -133 -40v-251q0 -15 12 -15h119q13 0 13 15z" />
    <glyph glyph-name="uni045B" unicode="&#x45b;" horiz-adv-x="638" 
d="M302 670v-157q127 56 179 56q40 0 68 -28t28 -68v-473h-130v407q0 18 -10 18l-135 -42v-383h-130v670h-164v130h459v-130h-165z" />
    <glyph glyph-name="uni045C" unicode="&#x45c;" horiz-adv-x="617" 
d="M602 799v-129q-1 0 -23.5 -5t-44.5 -17t-34 -34l-105 -168v-8l212 -438h-137l-183 378h-87v-378h-129v800h129v-294h88l69 106q57 94 116.5 137t128.5 50zM353 1005h125l-101 -131h-126z" />
    <glyph glyph-name="uni045E" unicode="&#x45e;" horiz-adv-x="569" 
d="M307 990h74q0 -40 -28 -68t-68 -28t-68 28t-28 68h75q0 -20 21 -20q22 0 22 20zM369 0h-130l48 218h-96q-15 0 -28 10.5t-15 23.5l-130 548h133l96 -445q1 -7 6 -7h62q6 0 6 7l101 445h130z" />
    <glyph glyph-name="uni045F" unicode="&#x45f;" horiz-adv-x="575" 
d="M504 0h-150v-156h-130v156h-152v800h130v-672h172v672h130v-800z" />
    <glyph glyph-name="Bdotaccent" unicode="&#x1e02;" horiz-adv-x="560" 
d="M71 800h261q91 0 130.5 -37t39.5 -122v-105q0 -97 -77 -118q84 -24 84 -120v-126q0 -92 -40 -132t-133 -40h-265v800zM201 483h134q36 0 36 51v106q0 32 -37 32h-133v-189zM201 130h133q45 0 45 43v125q0 55 -40 55h-138v-223zM213 926q0 29 20 49.5t48 20.5t48.5 -21
t20.5 -49t-20.5 -48t-48.5 -20t-48 20t-20 48z" />
    <glyph glyph-name="bdotaccent" unicode="&#x1e03;" horiz-adv-x="512" 
d="M461 473v-350q0 -56 -39 -95q-38 -40 -94 -38h-138q-56 0 -95 39q-38 40 -38 94v380h-1v262h130v-57h1v-195q159 57 187 57q40 0 63.5 -26t23.5 -71zM244 686q0 29 20 49.5t48 20.5t48.5 -21t20.5 -49t-20.5 -48t-48.5 -20t-48 20t-20 48zM331 133v277q0 14 -11 14
q-14 0 -133 -40v-251q0 -15 12 -15h119q13 0 13 15z" />
    <glyph glyph-name="Ddotaccent" unicode="&#x1e0a;" horiz-adv-x="565" 
d="M71 800h294q62 0 102 -40q42 -39 42 -98v-518q0 -60 -42 -102t-102 -42h-294v800zM201 130h164q8 0 11 3t3 11v513q0 13 -14 13h-164v-540zM215 926q0 29 20 49.5t48 20.5t48.5 -21t20.5 -49t-20.5 -48t-48.5 -20t-48 20t-20 48z" />
    <glyph glyph-name="ddotaccent" unicode="&#x1e0b;" horiz-adv-x="517" 
d="M457 707v-707h-130v47l-36 -13l-44 -16q-78 -28 -108 -28q-40 0 -63.5 26t-22.5 71v350q0 55 38 95q39 39 94 38h142v132h-1v62h130v-57h1zM126 686q0 29 20 49.5t48 20.5t48.5 -21t20.5 -49t-20.5 -48t-48.5 -20t-48 20t-20 48zM327 176v251q-1 15 -13 15h-118
q-13 0 -13 -15v-277v-2q0 -12 10 -12q13 0 134 40z" />
    <glyph glyph-name="Ddotbelow" unicode="&#x1e0c;" horiz-adv-x="565" 
d="M71 800h294q62 0 102 -40q42 -39 42 -98v-518q0 -60 -42 -102t-102 -42h-294v800zM201 130h164q8 0 11 3t3 11v513q0 13 -14 13h-164v-540zM222 -146q0 29 20 49.5t48 20.5t48.5 -21t20.5 -49t-20.5 -48t-48.5 -20t-48 20t-20 48z" />
    <glyph glyph-name="ddotbelow" unicode="&#x1e0d;" horiz-adv-x="517" 
d="M457 707v-707h-130v47l-36 -13l-44 -16q-78 -28 -108 -28q-40 0 -63.5 26t-22.5 71v350q0 55 38 95q39 39 94 38h142v132h-1v62h130v-57h1zM327 176v251q-1 15 -13 15h-118q-13 0 -13 -15v-277v-2q0 -12 10 -12q13 0 134 40zM189 -146q0 29 20 49.5t48 20.5t48.5 -21
t20.5 -49t-20.5 -48t-48.5 -20t-48 20t-20 48z" />
    <glyph glyph-name="Fdotaccent" unicode="&#x1e1e;" horiz-adv-x="460" 
d="M190 926q0 29 20 49.5t48 20.5t48.5 -21t20.5 -49t-20.5 -48t-48.5 -20t-48 20t-20 48zM450 800v-145h-249v-149h221v-130h-221v-376h-130v800h379z" />
    <glyph glyph-name="fdotaccent" unicode="&#x1e1f;" horiz-adv-x="302" 
d="M302 635h-81q-24 0 -24 -21v-54h84v-128h-84v-434q0 -64 -45 -107q-45 -45 -110 -45v130q23 0 23 22v434h-55v128h55v54q0 62 44 106q45 45 109 45h84v-130zM97 926q0 29 20 49.5t48 20.5t48.5 -21t20.5 -49t-20.5 -48t-48.5 -20t-48 20t-20 48z" />
    <glyph glyph-name="Hdotbelow" unicode="&#x1e24;" horiz-adv-x="577" 
d="M201 800v-294h175v294h130v-800h-130v378h-175v-378h-130v800h130zM224 -146q0 29 20 49.5t48 20.5t48.5 -21t20.5 -49t-20.5 -48t-48.5 -20t-48 20t-20 48z" />
    <glyph glyph-name="hdotbelow" unicode="&#x1e25;" 
d="M191 765v-252q127 56 179 56q40 0 68 -28t28 -68v-473h-130v407q0 18 -10 18l-135 -42v-383h-130v765h130zM204 -146q0 29 20 49.5t48 20.5t48.5 -21t20.5 -49t-20.5 -48t-48.5 -20t-48 20t-20 48z" />
    <glyph glyph-name="Mdotaccent" unicode="&#x1e40;" horiz-adv-x="803" 
d="M338 800l63 -486l61 486h249l30 -800h-130l-28 670h-9l-113 -660h-119l-112 660h-10l-28 -670h-130l31 800h245zM333 926q0 29 20 49.5t48 20.5t48.5 -21t20.5 -49t-20.5 -48t-48.5 -20t-48 20t-20 48z" />
    <glyph glyph-name="mdotaccent" unicode="&#x1e41;" horiz-adv-x="739" 
d="M313 686q0 29 20 49.5t48 20.5t48.5 -21t20.5 -49t-20.5 -48t-48.5 -20t-48 20t-20 48zM191 560v-53q97 60 150 60q30 0 56 -17t34 -43v-1q20 16 70 39q51 25 86 25q40 0 68 -28.5t28 -68.5v-473h-129v403q0 18 -8 18l-110 -38v-383h-129v397q0 22 -6 22l-110 -42v-377
h-130v560h130z" />
    <glyph glyph-name="Ndotaccent" unicode="&#x1e44;" horiz-adv-x="629" 
d="M296 800l127 -670h5v670h130v-800h-223l-129 670h-5v-670h-130v800h225zM248 926q0 29 20 49.5t48 20.5t48.5 -21t20.5 -49t-20.5 -48t-48.5 -20t-48 20t-20 48z" />
    <glyph glyph-name="ndotaccent" unicode="&#x1e45;" 
d="M193 686q0 29 20 49.5t48 20.5t48.5 -21t20.5 -49t-20.5 -48t-48.5 -20t-48 20t-20 48zM191 560v-47q127 56 179 56q40 0 68 -28t28 -68v-473h-130v407q0 18 -10 18l-135 -42v-383h-130v560h130z" />
    <glyph glyph-name="Pdotaccent" unicode="&#x1e56;" horiz-adv-x="530" 
d="M71 800h290q62 0 102 -40q42 -39 42 -98v-186q0 -60 -42 -102t-102 -42h-160v-332h-130v800zM201 462h160q8 0 11 3t3 11v184q0 10 -11 10h-163v-208zM208 926q0 29 20 49.5t48 20.5t48.5 -21t20.5 -49t-20.5 -48t-48.5 -20t-48 20t-20 48z" />
    <glyph glyph-name="pdotaccent" unicode="&#x1e57;" horiz-adv-x="517" 
d="M192 686q0 29 20 49.5t48 20.5t48.5 -21t20.5 -49t-20.5 -48t-48.5 -20t-48 20t-20 48zM191 560v-47l36 13l44 16q78 28 108 28q40 0 63.5 -26t22.5 -71v-350q0 -56 -39 -95q-38 -39 -93 -38h-142v-137h-130v707h130zM335 133v277v2q0 12 -10 12q-13 0 -134 -40v-251
q1 -15 13 -15h118q13 0 13 15z" />
    <glyph glyph-name="Rdotbelow" unicode="&#x1e5a;" horiz-adv-x="563" 
d="M71 800h314q49 0 84 -35q36 -34 36 -85v-144q0 -38 -21.5 -70.5t-55.5 -47.5q37 -15 60.5 -47t23.5 -73v-298h-130v298q0 41 -23 55h-158v-353h-130v800zM201 483h149q24 11 24 51v126q0 12 -8 12h-165v-189zM224 -146q0 29 20 49.5t48 20.5t48.5 -21t20.5 -49t-20.5 -48
t-48.5 -20t-48 20t-20 48z" />
    <glyph glyph-name="rdotbelow" unicode="&#x1e5b;" horiz-adv-x="486" 
d="M191 560v-47q127 56 179 56q40 0 68 -28t28 -68v-100h-130v30q0 24 -5 24q-13 0 -64 -15q-48 -14 -76 -29v-383h-130v560h130zM62 -146q0 29 20 49.5t48 20.5t48.5 -21t20.5 -49t-20.5 -48t-48.5 -20t-48 20t-20 48z" />
    <glyph glyph-name="Sdotaccent" unicode="&#x1e60;" horiz-adv-x="523" 
d="M175 282v-148q0 -8 3 -11t11 -3h139q8 0 11 3t3 11v77q6 63 -49 118q-9 12 -35 29q-31 20 -35 22l-42 24q-61 34 -95.5 86t-34.5 117v55q0 60 42 102t102 42h139q60 0 102 -51q42 -49 42 -123h-130q0 44 -24 44h-127q-16 0 -16 -16v-53q0 -41 39 -71q29 -21 35 -25
l49 -27l16 -9q70 -39 111 -106t41 -158v-77q0 -60 -42 -102t-102 -42h-139q-60 0 -102 42t-42 102v148h130zM194 926q0 29 20 49.5t48 20.5t48.5 -21t20.5 -49t-20.5 -48t-48.5 -20t-48 20t-20 48z" />
    <glyph glyph-name="sdotaccent" unicode="&#x1e61;" horiz-adv-x="489" 
d="M177 686q0 29 20 49.5t48 20.5t48.5 -21t20.5 -49t-20.5 -48t-48.5 -20t-48 20t-20 48zM172 212v-79q0 -13 9 -13h127q9 0 9 13v18q0 31 -30 49q-13 11 -42 22q-6 3 -25 10t-23 9q-155 57 -155 171v25q0 55 39 94t94 39h139q56 0 94 -39q39 -39 39 -94v-30h-130v20
q0 13 -9 13h-126q-10 0 -10 -13v-8q0 -25 44 -47l38 -18q18 -6 46 -18q147 -56 147 -177v-36q0 -55 -39 -94t-94 -39h-139q-55 0 -94 39t-39 94v89h130z" />
    <glyph glyph-name="Sdotbelow" unicode="&#x1e62;" horiz-adv-x="523" 
d="M175 282v-148q0 -8 3 -11t11 -3h139q8 0 11 3t3 11v77q6 63 -49 118q-9 12 -35 29q-31 20 -35 22l-42 24q-61 34 -95.5 86t-34.5 117v55q0 60 42 102t102 42h139q60 0 102 -51q42 -49 42 -123h-130q0 44 -24 44h-127q-16 0 -16 -16v-53q0 -41 39 -71q29 -21 35 -25
l49 -27l16 -9q70 -39 111 -106t41 -158v-77q0 -60 -42 -102t-102 -42h-139q-60 0 -102 42t-42 102v148h130zM197 -146q0 29 20 49.5t48 20.5t48.5 -21t20.5 -49t-20.5 -48t-48.5 -20t-48 20t-20 48z" />
    <glyph glyph-name="sdotbelow" unicode="&#x1e63;" horiz-adv-x="489" 
d="M172 212v-79q0 -13 9 -13h127q9 0 9 13v18q0 31 -30 49q-13 11 -42 22q-6 3 -25 10t-23 9q-155 57 -155 171v25q0 55 39 94t94 39h139q56 0 94 -39q39 -39 39 -94v-30h-130v20q0 13 -9 13h-126q-10 0 -10 -13v-8q0 -25 44 -47l38 -18q18 -6 46 -18q147 -56 147 -177v-36
q0 -55 -39 -94t-94 -39h-139q-55 0 -94 39t-39 94v89h130zM178 -146q0 29 20 49.5t48 20.5t48.5 -21t20.5 -49t-20.5 -48t-48.5 -20t-48 20t-20 48z" />
    <glyph glyph-name="Tdotaccent" unicode="&#x1e6a;" horiz-adv-x="474" 
d="M8 670v130h458v-130h-164v-670h-130v670h-164zM169 926q0 29 20 49.5t48 20.5t48.5 -21t20.5 -49t-20.5 -48t-48.5 -20t-48 20t-20 48z" />
    <glyph glyph-name="tdotaccent" unicode="&#x1e6b;" horiz-adv-x="367" 
d="M83 926q0 29 20 49.5t48 20.5t48.5 -21t20.5 -49t-20.5 -48t-48.5 -20t-48 20t-20 48zM214 432v-290q0 -22 24 -22h54v-130h-57q-63 0 -109 44q-44 46 -44 108v290h-74v128h74v144h132v-144h145v-128h-145z" />
    <glyph glyph-name="Tdotbelow" unicode="&#x1e6c;" horiz-adv-x="474" 
d="M8 670v130h458v-130h-164v-670h-130v670h-164zM170 -146q0 29 20 49.5t48 20.5t48.5 -21t20.5 -49t-20.5 -48t-48.5 -20t-48 20t-20 48z" />
    <glyph glyph-name="tdotbelow" unicode="&#x1e6d;" horiz-adv-x="367" 
d="M214 432v-290q0 -22 24 -22h54v-130h-57q-63 0 -109 44q-44 46 -44 108v290h-74v128h74v144h132v-144h145v-128h-145zM117 -146q0 29 20 49.5t48 20.5t48.5 -21t20.5 -49t-20.5 -48t-48.5 -20t-48 20t-20 48z" />
    <glyph glyph-name="Wgrave" unicode="&#x1e80;" horiz-adv-x="850" 
d="M260 1005h126l101 -131h-125zM192 800v-666q0 -8 3 -11t11 -3h80q34 0 53 31q21 31 21 58v591h130v-591q0 -25 21 -57t53 -32h80q8 0 11 3t3 11v666h130v-666q0 -60 -42 -102t-102 -42h-80q-49 0 -86.5 29t-52.5 76q-13 -46 -51 -75.5t-88 -29.5h-80q-60 0 -102 42
t-42 102v666h130z" />
    <glyph glyph-name="wgrave" unicode="&#x1e81;" horiz-adv-x="765" 
d="M217 765h126l101 -131h-125zM709 560v-420q0 -66 -36.5 -108t-96.5 -42h-66q-45 0 -80 27t-48 72q-13 -46 -47.5 -72.5t-80.5 -26.5h-65q-60 0 -96.5 42t-36.5 108v420h130v-420q0 -20 12 -20h56q63 0 63 95v345h130v-345q0 -95 63 -95h54q15 0 15 20v420h130z" />
    <glyph glyph-name="Wacute" unicode="&#x1e82;" horiz-adv-x="850" 
d="M469 1005h125l-101 -131h-126zM192 800v-666q0 -8 3 -11t11 -3h80q34 0 53 31q21 31 21 58v591h130v-591q0 -25 21 -57t53 -32h80q8 0 11 3t3 11v666h130v-666q0 -60 -42 -102t-102 -42h-80q-49 0 -86.5 29t-52.5 76q-13 -46 -51 -75.5t-88 -29.5h-80q-60 0 -102 42
t-42 102v666h130z" />
    <glyph glyph-name="wacute" unicode="&#x1e83;" horiz-adv-x="765" 
d="M427 765h125l-101 -131h-126zM709 560v-420q0 -66 -36.5 -108t-96.5 -42h-66q-45 0 -80 27t-48 72q-13 -46 -47.5 -72.5t-80.5 -26.5h-65q-60 0 -96.5 42t-36.5 108v420h130v-420q0 -20 12 -20h56q63 0 63 95v345h130v-345q0 -95 63 -95h54q15 0 15 20v420h130z" />
    <glyph glyph-name="Wdieresis" unicode="&#x1e84;" horiz-adv-x="850" 
d="M341 867q-26 0 -45 18.5t-19 44.5q0 27 19 47t45 20q27 0 46.5 -20t19.5 -47q0 -26 -19.5 -44.5t-46.5 -18.5zM509 867q-27 0 -46 18.5t-19 44.5q0 27 19 47t46 20q25 0 44 -20t19 -47q0 -26 -19 -44.5t-44 -18.5zM192 800v-666q0 -8 3 -11t11 -3h80q34 0 53 31
q21 31 21 58v591h130v-591q0 -25 21 -57t53 -32h80q8 0 11 3t3 11v666h130v-666q0 -60 -42 -102t-102 -42h-80q-49 0 -86.5 29t-52.5 76q-13 -46 -51 -75.5t-88 -29.5h-80q-60 0 -102 42t-42 102v666h130z" />
    <glyph glyph-name="wdieresis" unicode="&#x1e85;" horiz-adv-x="765" 
d="M299 627q-26 0 -45 18.5t-19 44.5q0 27 19 47t45 20q27 0 46.5 -20t19.5 -47q0 -26 -19.5 -44.5t-46.5 -18.5zM467 627q-27 0 -46 18.5t-19 44.5q0 27 19 47t46 20q25 0 44 -20t19 -47q0 -26 -19 -44.5t-44 -18.5zM709 560v-420q0 -66 -36.5 -108t-96.5 -42h-66
q-45 0 -80 27t-48 72q-13 -46 -47.5 -72.5t-80.5 -26.5h-65q-60 0 -96.5 42t-36.5 108v420h130v-420q0 -20 12 -20h56q63 0 63 95v345h130v-345q0 -95 63 -95h54q15 0 15 20v420h130z" />
    <glyph glyph-name="Zdotbelow" unicode="&#x1e92;" horiz-adv-x="501" 
d="M28 670v130h446l-261 -670h261v-130h-446l262 670h-262zM181 -146q0 29 20 49.5t48 20.5t48.5 -21t20.5 -49t-20.5 -48t-48.5 -20t-48 20t-20 48z" />
    <glyph glyph-name="zdotbelow" unicode="&#x1e93;" horiz-adv-x="462" 
d="M282 434h-249v126h395v-126l-252 -305h255v-129h-400v130zM153 -146q0 29 20 49.5t48 20.5t48.5 -21t20.5 -49t-20.5 -48t-48.5 -20t-48 20t-20 48z" />
    <glyph glyph-name="Edotbelow" unicode="&#x1eb8;" horiz-adv-x="484" 
d="M449 800v-130h-248v-194h221v-130h-221v-216h248v-130h-378v800h378zM169 -146q0 29 20 49.5t48 20.5t48.5 -21t20.5 -49t-20.5 -48t-48.5 -20t-48 20t-20 48z" />
    <glyph glyph-name="edotbelow" unicode="&#x1eb9;" horiz-adv-x="491" 
d="M51 123v314q0 54 38 94q39 39 95 39h139q55 0 94 -39t39 -94v-200h-275v-104q0 -13 9 -13h127q9 0 9 13v62h130v-72q0 -55 -39 -94t-94 -39h-139q-56 0 -95 39q-38 40 -38 94zM326 337v90q0 13 -9 13h-127q-9 0 -9 -13v-90h145zM180 -146q0 29 20 49.5t48 20.5t48.5 -21
t20.5 -49t-20.5 -48t-48.5 -20t-48 20t-20 48z" />
    <glyph glyph-name="Etilde" unicode="&#x1ebc;" horiz-adv-x="484" 
d="M449 800v-130h-248v-194h221v-130h-221v-216h248v-130h-378v800h378zM142 864l-5 111q25 31 62 31q25 0 69 -18q46 -17 68 -17q31 0 56 28l5 -111q-27 -32 -61 -32q-24 0 -70 17q-43 18 -67 18q-31 0 -57 -27z" />
    <glyph glyph-name="etilde" unicode="&#x1ebd;" horiz-adv-x="491" 
d="M51 123v314q0 54 38 94q39 39 95 39h139q55 0 94 -39t39 -94v-200h-275v-104q0 -13 9 -13h127q9 0 9 13v62h130v-72q0 -55 -39 -94t-94 -39h-139q-56 0 -95 39q-38 40 -38 94zM326 337v90q0 13 -9 13h-127q-9 0 -9 -13v-90h145zM122 624l-5 111q25 31 62 31q25 0 69 -18
q46 -17 68 -17q31 0 56 28l5 -111q-27 -32 -61 -32q-24 0 -70 17q-44 18 -67 18q-31 0 -57 -27z" />
    <glyph glyph-name="Idotbelow" unicode="&#x1eca;" horiz-adv-x="282" 
d="M74 -146q0 29 20 49.5t48 20.5t48.5 -21t20.5 -49t-20.5 -48t-48.5 -20t-48 20t-20 48zM206 800v-800h-130v800h130z" />
    <glyph glyph-name="idotbelow" unicode="&#x1ecb;" horiz-adv-x="299" 
d="M196 765v-106h-130v106h130zM198 560v-418q0 -22 24 -22h54v-130h-57q-63 0 -109 44q-44 46 -44 108v418h132zM78 -146q0 29 20 49.5t48 20.5t48.5 -21t20.5 -49t-20.5 -48t-48.5 -20t-48 20t-20 48z" />
    <glyph glyph-name="Odotbelow" unicode="&#x1ecc;" horiz-adv-x="550" 
d="M56 134v528q0 60 42 102t102 42h150q60 0 102 -42t42 -102v-528q0 -60 -42 -102t-102 -42h-150q-60 0 -102 42t-42 102zM186 662v-528q0 -8 3 -11t11 -3h150q8 0 11 3t3 11v528q0 8 -3 11t-11 3h-150q-8 0 -11 -3t-3 -11zM207 -146q0 29 20 49.5t48 20.5t48.5 -21
t20.5 -49t-20.5 -48t-48.5 -20t-48 20t-20 48z" />
    <glyph glyph-name="odotbelow" unicode="&#x1ecd;" horiz-adv-x="507" 
d="M51 123v314q0 54 38 94q39 39 95 39h139q55 0 94 -39t39 -94v-314q0 -55 -39 -94t-94 -39h-139q-55 0 -94 39t-39 94zM181 427v-294q0 -13 10 -13h125q10 0 10 13v294q0 13 -10 13h-125q-10 0 -10 -13zM187 -146q0 29 20 49.5t48 20.5t48.5 -21t20.5 -49t-20.5 -48
t-48.5 -20t-48 20t-20 48z" />
    <glyph glyph-name="Udotbelow" unicode="&#x1ee4;" horiz-adv-x="561" 
d="M192 800v-666q0 -8 3 -11t11 -3h149q8 0 11 3t3 11v666h130v-666q0 -60 -42 -102t-102 -42h-149q-60 0 -102 42t-42 102v666h130zM216 -146q0 29 20 49.5t48 20.5t48.5 -21t20.5 -49t-20.5 -48t-48.5 -20t-48 20t-20 48z" />
    <glyph glyph-name="udotbelow" unicode="&#x1ee5;" 
d="M331 0v47q-127 -56 -179 -56q-40 0 -68 28t-28 68v473h130v-407q0 -18 10 -18l135 42v383h130v-560h-130zM179 -146q0 29 20 49.5t48 20.5t48.5 -21t20.5 -49t-20.5 -48t-48.5 -20t-48 20t-20 48z" />
    <glyph glyph-name="Ygrave" unicode="&#x1ef2;" horiz-adv-x="569" 
d="M551 800l-123 -546q-4 -14 -18.5 -23t-35.5 -9h-23v-222h-129v222h-20q-20 0 -35.5 9t-18.5 23l-130 546h133l99 -443q1 -7 7 -7h61q7 0 7 7l96 443h130zM120 1005h126l101 -131h-125z" />
    <glyph glyph-name="ygrave" unicode="&#x1ef3;" horiz-adv-x="477" 
d="M74 765h126l101 -131h-125zM151 559l59 -433q3 -11 6 -11h48q6 0 8 14l58 430h130l-113 -715h-124l22 145h-92q-15 0 -28 10.5t-15 23.5l-92 536h133z" />
    <glyph glyph-name="Ytilde" unicode="&#x1ef8;" horiz-adv-x="569" 
d="M551 800l-123 -546q-4 -14 -18.5 -23t-35.5 -9h-23v-222h-129v222h-20q-20 0 -35.5 9t-18.5 23l-130 546h133l99 -443q1 -7 7 -7h61q7 0 7 7l96 443h130zM160 864l-5 111q25 31 62 31q25 0 69 -18q46 -17 68 -17q31 0 56 28l5 -111q-27 -32 -61 -32q-24 0 -70 17
q-44 18 -67 18q-31 0 -57 -27z" />
    <glyph glyph-name="ytilde" unicode="&#x1ef9;" horiz-adv-x="477" 
d="M115 624l-5 111q25 31 62 31q26 0 69 -18q46 -17 68 -17q31 0 56 28l5 -111q-27 -32 -61 -32q-24 0 -70 17q-44 18 -67 18q-32 0 -57 -27zM151 559l59 -433q3 -11 6 -11h48q6 0 8 14l58 430h130l-113 -715h-124l22 145h-92q-15 0 -28 10.5t-15 23.5l-92 536h133z" />
    <glyph glyph-name="endash" unicode="&#x2013;" horiz-adv-x="419" 
d="M8 416h404v-129h-404v129z" />
    <glyph glyph-name="emdash" unicode="&#x2014;" horiz-adv-x="697" 
d="M8 416h682v-129h-682v129z" />
    <glyph glyph-name="uni2015" unicode="&#x2015;" horiz-adv-x="1015" 
d="M8 416h1000v-129h-1000v129z" />
    <glyph glyph-name="quoteleft" unicode="&#x2018;" horiz-adv-x="247" 
d="M88 799l107 -22l-29 -72q-4 -8 -4 -20q0 -23 25 -36l-62 -62q-74 30 -74 94q0 23 9 47z" />
    <glyph glyph-name="quoteright" unicode="&#x2019;" horiz-adv-x="247" 
d="M52 615l29 72q4 8 4 20q0 23 -25 36l62 62q74 -30 74 -94q0 -23 -9 -47l-28 -71z" />
    <glyph glyph-name="quotesinglbase" unicode="&#x201a;" horiz-adv-x="247" 
d="M52 -136l29 72q4 8 4 20q0 23 -25 36l62 62q74 -30 74 -94q0 -23 -9 -47l-28 -71z" />
    <glyph glyph-name="quotedblleft" unicode="&#x201c;" horiz-adv-x="391" 
d="M88 799l107 -22l-29 -72q-4 -8 -4 -20q0 -23 25 -36l-62 -62q-74 30 -74 94q0 23 9 47zM233 799l107 -22l-29 -72q-4 -8 -4 -20q0 -23 25 -36l-62 -62q-74 30 -74 94q0 23 9 47z" />
    <glyph glyph-name="quotedblright" unicode="&#x201d;" horiz-adv-x="392" 
d="M159 593l-107 22l29 72q4 8 4 20q0 23 -25 36l62 62q74 -30 74 -94q0 -23 -9 -47zM304 593l-107 22l29 72q4 8 4 20q0 23 -25 36l62 62q74 -30 74 -94q0 -23 -9 -47z" />
    <glyph glyph-name="quotedblbase" unicode="&#x201e;" horiz-adv-x="392" 
d="M159 -163l-107 22l29 72q4 8 4 20q0 23 -25 36l62 62q74 -30 74 -94q0 -23 -9 -47zM304 -163l-107 22l29 72q4 8 4 20q0 23 -25 36l62 62q74 -30 74 -94q0 -23 -9 -47z" />
    <glyph glyph-name="dagger" unicode="&#x2020;" horiz-adv-x="463" 
d="M167 537h-111v129h111v129h128v-129h111v-129h-111v-532h-128v532z" />
    <glyph glyph-name="daggerdbl" unicode="&#x2021;" horiz-adv-x="463" 
d="M165 138h-109v128h109v272h-109v128h109v129h130v-129h111v-128h-111v-272h111v-128h-111v-133h-130v133z" />
    <glyph glyph-name="bullet" unicode="&#x2022;" horiz-adv-x="287" 
d="M143 232q-35 0 -61 26t-26 61q0 36 26 61.5t61 25.5q36 0 61.5 -25.5t25.5 -61.5q0 -35 -25.5 -61t-61.5 -26z" />
    <glyph glyph-name="ellipsis" unicode="&#x2026;" horiz-adv-x="611" 
d="M56 68q-2 45 42 64t75 -15q34 -31 15 -75t-64 -42q-28 0 -48 20t-20 48zM236 68q-2 45 42 64t75 -15q34 -31 15 -75t-64 -42q-28 0 -48 20t-20 48zM416 68q-2 45 42 64t75 -15q34 -31 15 -75t-64 -42q-28 0 -48 20t-20 48z" />
    <glyph glyph-name="perthousand" unicode="&#x2030;" horiz-adv-x="1292" 
d="M653 798l-309 -798h-90l309 798h90zM296 363h-127q-47 0 -80 39t-33 94v149q0 57 33 94q33 39 80 39h127q47 0 80 -39q33 -37 33 -94v-149q0 -55 -33 -94t-80 -39zM189 480h87q11 0 11 16v149q0 17 -11 17h-87q-10 0 -10 -17v-149q0 -16 10 -16zM491 125v149q0 56 33 94
q33 39 80 39h126q47 0 80 -39q33 -38 33 -94v-149q0 -55 -33 -95q-33 -39 -80 -39h-126q-47 0 -80 39q-33 41 -33 95zM884 125v149q0 56 33 94q33 39 80 39h126q47 0 80 -39q33 -38 33 -94v-149q0 -55 -33 -95q-33 -39 -80 -39h-126q-47 0 -80 39q-33 41 -33 95zM613 274
v-149q0 -17 11 -17h86q10 0 10 17v149q0 16 -10 16h-86q-11 0 -11 -16zM1006 274v-149q0 -17 11 -17h87q10 0 10 17v149q0 16 -10 16h-87q-11 0 -11 -16z" />
    <glyph glyph-name="guilsinglleft" unicode="&#x2039;" horiz-adv-x="408" 
d="M246 392l106 -48l-148 -105l148 -105l-106 -47l-210 152z" />
    <glyph glyph-name="guilsinglright" unicode="&#x203a;" horiz-adv-x="408" 
d="M204 239l-148 105l107 48l209 -153l-209 -152l-107 47z" />
    <glyph glyph-name="fraction" unicode="&#x2044;" horiz-adv-x="444" 
d="M436 798l-308 -798h-120l308 798h120z" />
    <glyph glyph-name="Euro" unicode="&#x20ac;" horiz-adv-x="525" 
d="M21 416v100h55v116q0 60 42 102t102 42h139q60 0 102 -42t42 -102v-126h-130v126q0 8 -3 11t-11 3h-139q-8 0 -11 -3t-3 -11v-116h126v-100h-311zM332 380v-100h-126v-146q0 -8 3 -11t11 -3h139q11 0 11 14v158h133v-158q0 -60 -42 -102t-102 -42h-139q-60 0 -102 42
t-42 102v146h-55v100h311z" />
    <glyph glyph-name="uni2116" unicode="&#x2116;" horiz-adv-x="983" 
d="M558 800v-800h-223l-125 670h-9v-670h-130v800h225l123 -670h9v670h130zM712 582h129q33 0 56.5 -23t23.5 -57v-188q0 -33 -23.5 -56.5t-56.5 -23.5h-129q-34 0 -57 23.5t-23 56.5v188q0 34 23 57t57 23zM811 492h-69q-10 0 -10 -10v-148q0 -10 10 -10h69q10 0 10 10v148
q0 10 -10 10zM932 207v-99h-310v99h310z" />
    <glyph glyph-name="trademark" unicode="&#x2122;" horiz-adv-x="765" 
d="M147 738h-91v62h245v-62h-91v-344h-63v344zM356 800h105l59 -271l55 271h110l23 -406h-64l-19 332h-6l-73 -327h-53l-75 327h-4l-19 -332h-64z" />
    <glyph glyph-name="minus" unicode="&#x2212;" horiz-adv-x="525" 
d="M58 416h410v-129h-410v129z" />
    <glyph glyph-name="radical" unicode="&#x221a;" horiz-adv-x="549" 
d="M359 560h130v-560h-130v47q-91 -40 -145 -52q0 -63 -45 -107q-43 -45 -108 -45h-74v130h72q25 0 25 22v565h130v-407q0 -18 10 -18l135 42v383z" />
    <glyph glyph-name="notequal" unicode="&#x2260;" horiz-adv-x="525" 
d="M438 381h-116l-16 -60h132v-131h-168l-15 -56h-117l15 56h-65v131h101l16 60h-117v130h152l12 44h117l-12 -44h81v-130z" />
    <glyph glyph-name="lessequal" unicode="&#x2264;" horiz-adv-x="525" 
d="M443 622v-138l-131 -68l131 -63v-137l-360 200zM93 196h350v-129h-350v129z" />
    <glyph glyph-name="greaterequal" unicode="&#x2265;" horiz-adv-x="525" 
d="M84 353l132 63l-136 68v138l365 -206l-361 -200v137zM85 196h350v-129h-350v129z" />
    <glyph glyph-name="apple" unicode="&#xf8ff;" horiz-adv-x="647" 
d="M442 738l-90 -85q-28 2 -56 0l-90 85h59l58 -61l59 61h60zM324 620q130 0 223 -93t93 -223t-93 -223t-223 -93t-224 92q-92 94 -92 224q0 131 92 223q93 93 224 93zM515 495q-80 80 -191 80q-112 0 -192 -80q-79 -79 -79 -191q0 -113 79 -192t192 -79q112 0 191 79
t79 192q0 112 -79 191zM182 135l9 47q67 -41 128 -41q40 0 65 16.5t25 42.5q0 23 -22.5 42.5t-54.5 35t-64 32.5t-54.5 42.5t-22.5 56.5q0 54 39 78q40 25 92 25q39 0 71 -17q37 -16 50 -26l-11 -43q-48 42 -107 42q-36 0 -58 -15.5t-22 -39.5q0 -39 78 -73q32 -13 50.5 -22
t43.5 -25.5t37 -38.5t12 -50q0 -52 -43 -80t-112 -28q-49 0 -129 39z" />
    <glyph glyph-name="NULL" horiz-adv-x="0" 
 />
    <glyph glyph-name="CR" horiz-adv-x="333" 
 />
    <glyph glyph-name="I.ss01" horiz-adv-x="331" 
d="M51 129h49v543h-49v129h229v-129h-50v-543h50v-129h-229v129z" />
    <glyph glyph-name="Iacute.ss01" horiz-adv-x="331" 
d="M210 1005h125l-101 -131h-126zM100 129v543h-49v129h229v-129h-50v-543h50v-129h-229v129h49z" />
    <glyph glyph-name="Ibreve.ss01" horiz-adv-x="331" 
d="M188 990h74q0 -40 -28 -68t-68 -28t-68 28t-28 68h75q0 -20 21 -20q22 0 22 20zM100 129v543h-49v129h229v-129h-50v-543h50v-129h-229v129h49z" />
    <glyph glyph-name="Icircumflex.ss01" horiz-adv-x="331" 
d="M126 1035h77l134 -158h-115l-56 73h-3l-57 -73h-114zM100 129v543h-49v129h229v-129h-50v-543h50v-129h-229v129h49z" />
    <glyph glyph-name="Idieresis.ss01" horiz-adv-x="331" 
d="M82 867q-26 0 -45 18.5t-19 44.5q0 27 19 47t45 20q27 0 46.5 -20t19.5 -47q0 -26 -19.5 -44.5t-46.5 -18.5zM250 867q-27 0 -46 18.5t-19 44.5q0 27 19 47t46 20q25 0 44 -20t19 -47q0 -26 -18.5 -44.5t-44.5 -18.5zM100 129v543h-49v129h229v-129h-50v-543h50v-129
h-229v129h49z" />
    <glyph glyph-name="Idotaccent.ss01" horiz-adv-x="331" 
d="M97 926q0 29 20 49.5t48 20.5t48.5 -21t20.5 -49t-20.5 -48t-48.5 -20t-48 20t-20 48zM100 129v543h-49v129h229v-129h-50v-543h50v-129h-229v129h49z" />
    <glyph glyph-name="Idotbelow.ss01" horiz-adv-x="331" 
d="M100 129v543h-49v129h229v-129h-50v-543h50v-129h-229v129h49zM97 -146q0 29 20 49.5t48 20.5t48.5 -21t20.5 -49t-20.5 -48t-48.5 -20t-48 20t-20 48z" />
    <glyph glyph-name="Igrave.ss01" horiz-adv-x="331" 
d="M0 1005h126l101 -131h-125zM100 129v543h-49v129h229v-129h-50v-543h50v-129h-229v129h49z" />
    <glyph glyph-name="Imacron.ss01" horiz-adv-x="331" 
d="M56 976h220v-99h-220v99zM100 129v543h-49v129h229v-129h-50v-543h50v-129h-229v129h49z" />
    <glyph glyph-name="Iogonek.ss01" horiz-adv-x="331" 
d="M303 -41l48 -64q-55 -48 -117 -48q-52 0 -81.5 30t-29.5 81q0 22 9 42h-81v129h49v543h-49v129h229v-129h-50v-543h50v-129q-22 0 -39.5 -10.5t-17.5 -27.5q0 -25 27 -25q18 0 53 22z" />
    <glyph glyph-name="Itilde.ss01" horiz-adv-x="331" 
d="M41 864l-5 111q25 31 62 31q26 0 69 -18q46 -17 68 -17q31 0 56 28l5 -111q-27 -32 -61 -32q-24 0 -70 17q-43 18 -67 18q-32 0 -57 -27zM100 129v543h-49v129h229v-129h-50v-543h50v-129h-229v129h49z" />
    <glyph glyph-name="M.ss01" horiz-adv-x="850" 
d="M658 0v666q0 8 -3 11t-11 3h-80q-33 0 -54 -32q-20 -32 -20 -57v-591h-130v591q0 25 -21 57t-53 32h-80q-8 0 -11 -3t-3 -11v-666h-130v666q0 60 42 102t102 42h80q49 0 86.5 -29t52.5 -76q13 46 51 75.5t88 29.5h80q60 0 102 -42t42 -102v-666h-130z" />
    <glyph glyph-name="Mdotaccent.ss01" horiz-adv-x="850" 
d="M658 0v666q0 8 -3 11t-11 3h-80q-33 0 -54 -32q-20 -32 -20 -57v-591h-130v591q0 25 -21 57t-53 32h-80q-8 0 -11 -3t-3 -11v-666h-130v666q0 60 42 102t102 42h80q49 0 86.5 -29t52.5 -76q13 46 51 75.5t88 29.5h80q60 0 102 -42t42 -102v-666h-130zM355 926
q0 29 20 49.5t48 20.5t48.5 -21t20.5 -49t-20.5 -48t-48.5 -20t-48 20t-20 48z" />
    <glyph glyph-name="R.ss01" horiz-adv-x="550" 
d="M400 387l131 -387h-133l-126 382h-71v-382h-130v800h290q62 0 102 -40q42 -39 42 -98v-136q0 -49 -29 -87.5t-76 -51.5zM201 512h160q8 0 11 3t3 11v136q0 6 -2 7t-9 1h-3h-160v-158z" />
    <glyph glyph-name="Racute.ss01" horiz-adv-x="550" 
d="M328 1005h125l-101 -131h-126zM531 0h-133l-126 382h-71v-382h-130v800h290q62 0 102 -40q42 -39 42 -98v-136q0 -49 -29 -87.5t-76 -51.5zM201 512h160q8 0 11 3t3 11v136q0 6 -2 7t-9 1h-3h-160v-158z" />
    <glyph glyph-name="Rcaron.ss01" horiz-adv-x="550" 
d="M113 1014h115l52 -58h3l52 58h115l-134 -158h-69zM531 0h-133l-126 382h-71v-382h-130v800h290q62 0 102 -40q42 -39 42 -98v-136q0 -49 -29 -87.5t-76 -51.5zM201 512h160q8 0 11 3t3 11v136q0 6 -2 7t-9 1h-3h-160v-158z" />
    <glyph glyph-name="Rcommaaccent.ss01" horiz-adv-x="550" 
d="M531 0h-133l-126 382h-71v-382h-130v800h290q62 0 102 -40q42 -39 42 -98v-136q0 -49 -29 -87.5t-76 -51.5zM201 512h160q8 0 11 3t3 11v136q0 6 -2 7t-9 1h-3h-160v-158zM342 -42v-168h-120v168h120z" />
    <glyph glyph-name="Rdotbelow.ss01" horiz-adv-x="550" 
d="M531 0h-133l-126 382h-71v-382h-130v800h290q62 0 102 -40q42 -39 42 -98v-136q0 -49 -29 -87.5t-76 -51.5zM201 512h160q8 0 11 3t3 11v136q0 6 -2 7t-9 1h-3h-160v-158zM217 -146q0 29 20 49.5t48 20.5t48.5 -21t20.5 -49t-20.5 -48t-48.5 -20t-48 20t-20 48z" />
    <glyph glyph-name="W.ss01" horiz-adv-x="755" 
d="M604 800h133l-132 -791q-1 -9 -16 -9h-123q-14 0 -15 9l-73 543l-74 -543q-2 -9 -16 -9h-121h-3q-12 0 -13 9l-133 791h133l76 -557l71 545h162l68 -537z" />
    <glyph glyph-name="Wacute.ss01" horiz-adv-x="755" 
d="M428 1005h125l-101 -131h-126zM737 800l-132 -791q-1 -9 -16 -9h-123q-14 0 -15 9l-73 543l-74 -543q-2 -9 -16 -9h-121h-3q-12 0 -13 9l-133 791h133l76 -557l71 545h162l68 -537l76 549h133z" />
    <glyph glyph-name="Wcircumflex.ss01" horiz-adv-x="755" 
d="M345 1035h77l134 -158h-115l-56 73h-3l-57 -73h-114zM737 800l-132 -791q-1 -9 -16 -9h-123q-14 0 -15 9l-73 543l-74 -543q-2 -9 -16 -9h-121h-3q-12 0 -13 9l-133 791h133l76 -557l71 545h162l68 -537l76 549h133z" />
    <glyph glyph-name="Wdieresis.ss01" horiz-adv-x="755" 
d="M300 867q-26 0 -45 18.5t-19 44.5q0 27 19 47t45 20q27 0 46.5 -20t19.5 -47q0 -26 -19.5 -44.5t-46.5 -18.5zM468 867q-27 0 -46 18.5t-19 44.5q0 27 19 47t46 20q25 0 44 -20t19 -47q0 -26 -18.5 -44.5t-44.5 -18.5zM737 800l-132 -791q-1 -9 -16 -9h-123q-14 0 -15 9
l-73 543l-74 -543q-2 -9 -16 -9h-121h-3q-12 0 -13 9l-133 791h133l76 -557l71 545h162l68 -537l76 549h133z" />
    <glyph glyph-name="Wgrave.ss01" horiz-adv-x="755" 
d="M219 1005h126l101 -131h-125zM737 800l-132 -791q-1 -9 -16 -9h-123q-14 0 -15 9l-73 543l-74 -543q-2 -9 -16 -9h-121h-3q-12 0 -13 9l-133 791h133l76 -557l71 545h162l68 -537l76 549h133z" />
    <glyph glyph-name="i.loclTRK" horiz-adv-x="299" 
d="M198 560v-418q0 -22 24 -22h54v-130h-57q-63 0 -109 44q-44 46 -44 108v418h132zM64 686q0 29 20 49.5t48 20.5t48.5 -21t20.5 -49t-20.5 -48t-48.5 -20t-48 20t-20 48z" />
    <glyph glyph-name="a.ss01" horiz-adv-x="519" 
d="M483 120h29v-130h-32q-38 -1 -77.5 21.5t-57.5 57.5q-37 -20 -106 -51q-63 -28 -92 -28q-40 0 -68 28.5t-28 68.5v351q0 55 39 94t94 39h139q55 0 94 -39t39 -94v-292q0 -26 27 -26zM181 438v-288q0 -17 12 -17q32 0 133 55v250v3h-3h-139h-3v-3z" />
    <glyph glyph-name="aacute.ss01" horiz-adv-x="519" 
d="M300 763h125l-101 -131h-126zM512 120v-130h-32q-38 -1 -77.5 21.5t-57.5 57.5q-37 -20 -106 -51q-63 -28 -92 -28q-40 0 -68 28.5t-28 68.5v351q0 55 39 94t94 39h139q55 0 94 -39t39 -94v-292q0 -26 27 -26h29zM181 438v-288q0 -17 12 -17q32 0 133 55v250v3h-3h-139
h-3v-3z" />
    <glyph glyph-name="abreve.ss01" horiz-adv-x="519" 
d="M279 748h74q0 -40 -28 -68t-68 -28t-68 28t-28 68h75q0 -20 21 -20q22 0 22 20zM512 120v-130h-32q-38 -1 -77.5 21.5t-57.5 57.5q-37 -20 -106 -51q-63 -28 -92 -28q-40 0 -68 28.5t-28 68.5v351q0 55 39 94t94 39h139q55 0 94 -39t39 -94v-292q0 -26 27 -26h29z
M181 438v-288q0 -17 12 -17q32 0 133 55v250v3h-3h-139h-3v-3z" />
    <glyph glyph-name="acircumflex.ss01" horiz-adv-x="519" 
d="M217 793h77l134 -158h-115l-56 73h-3l-57 -73h-114zM512 120v-130h-32q-38 -1 -77.5 21.5t-57.5 57.5q-37 -20 -106 -51q-63 -28 -92 -28q-40 0 -68 28.5t-28 68.5v351q0 55 39 94t94 39h139q55 0 94 -39t39 -94v-292q0 -26 27 -26h29zM181 438v-288q0 -17 12 -17
q32 0 133 55v250v3h-3h-139h-3v-3z" />
    <glyph glyph-name="adieresis.ss01" horiz-adv-x="519" 
d="M173 625q-26 0 -45 18.5t-19 44.5q0 27 19 47t45 20q27 0 46.5 -20t19.5 -47q0 -26 -19.5 -44.5t-46.5 -18.5zM341 625q-27 0 -46 18.5t-19 44.5q0 27 19 47t46 20q25 0 44 -20t19 -47q0 -26 -19 -44.5t-44 -18.5zM512 120v-130h-32q-38 -1 -77.5 21.5t-57.5 57.5
q-37 -20 -106 -51q-63 -28 -92 -28q-40 0 -68 28.5t-28 68.5v351q0 55 39 94t94 39h139q55 0 94 -39t39 -94v-292q0 -26 27 -26h29zM181 438v-288q0 -17 12 -17q32 0 133 55v250v3h-3h-139h-3v-3z" />
    <glyph glyph-name="agrave.ss01" horiz-adv-x="519" 
d="M91 763h126l101 -131h-125zM512 120v-130h-32q-38 -1 -77.5 21.5t-57.5 57.5q-37 -20 -106 -51q-63 -28 -92 -28q-40 0 -68 28.5t-28 68.5v351q0 55 39 94t94 39h139q55 0 94 -39t39 -94v-292q0 -26 27 -26h29zM181 438v-288q0 -17 12 -17q32 0 133 55v250v3h-3h-139h-3
v-3z" />
    <glyph glyph-name="amacron.ss01" horiz-adv-x="519" 
d="M147 734h220v-99h-220v99zM512 120v-130h-32q-38 -1 -77.5 21.5t-57.5 57.5q-37 -20 -106 -51q-63 -28 -92 -28q-40 0 -68 28.5t-28 68.5v351q0 55 39 94t94 39h139q55 0 94 -39t39 -94v-292q0 -26 27 -26h29zM181 438v-288q0 -17 12 -17q32 0 133 55v250v3h-3h-139h-3
v-3z" />
    <glyph glyph-name="aogonek.ss01" horiz-adv-x="519" 
d="M534 -51l48 -64q-56 -48 -117 -48q-52 0 -81.5 30t-29.5 81q0 41 31 76q-23 17 -40 45q-37 -20 -106 -51q-63 -28 -92 -28q-40 0 -68 28.5t-28 68.5v351q0 55 39 94t94 39h139q55 0 94 -39t39 -94v-292q0 -26 27 -26h29v-130h-1q-22 0 -39.5 -10.5t-17.5 -27.5
q0 -25 27 -25q18 0 53 22zM326 188v250v3h-3h-139h-3v-3v-288q0 -17 12 -17q32 0 133 55z" />
    <glyph glyph-name="aring.ss01" horiz-adv-x="519" 
d="M257 833q52 0 88 -37q36 -36 36 -88t-36 -88t-88 -36q-51 0 -89 36q-36 36 -36 88t36 88q36 37 89 37zM225 676q18 -21 43.5 -12t32.5 32.5t-12 43.5q-18 21 -43.5 12t-32.5 -32.5t12 -43.5zM512 120v-130h-32q-38 -1 -77.5 21.5t-57.5 57.5q-37 -20 -106 -51
q-63 -28 -92 -28q-40 0 -68 28.5t-28 68.5v351q0 55 39 94t94 39h139q55 0 94 -39t39 -94v-292q0 -26 27 -26h29zM181 438v-288q0 -17 12 -17q32 0 133 55v250v3h-3h-139h-3v-3z" />
    <glyph glyph-name="aringacute.ss01" horiz-adv-x="519" 
d="M307 985h125l-101 -131h-126zM261 835q52 0 88 -37q36 -36 36 -88t-36 -88t-88 -36q-51 0 -89 36q-36 36 -36 88t36 88q36 37 89 37zM229 678q18 -21 43.5 -12t32.5 32.5t-12 43.5q-18 21 -43.5 12t-32.5 -32.5t12 -43.5zM512 120v-130h-32q-38 -1 -77.5 21.5t-57.5 57.5
q-37 -20 -106 -51q-63 -28 -92 -28q-40 0 -68 28.5t-28 68.5v351q0 55 39 94t94 39h139q55 0 94 -39t39 -94v-292q0 -26 27 -26h29zM181 438v-288q0 -17 12 -17q32 0 133 55v250v3h-3h-139h-3v-3z" />
    <glyph glyph-name="atilde.ss01" horiz-adv-x="519" 
d="M132 622l-5 111q25 31 62 31q25 0 69 -18q46 -17 68 -17q31 0 56 28l5 -111q-27 -32 -61 -32q-24 0 -70 17q-44 18 -67 18q-31 0 -57 -27zM512 120v-130h-32q-38 -1 -77.5 21.5t-57.5 57.5q-37 -20 -106 -51q-63 -28 -92 -28q-40 0 -68 28.5t-28 68.5v351q0 55 39 94
t94 39h139q55 0 94 -39t39 -94v-292q0 -26 27 -26h29zM181 438v-288q0 -17 12 -17q32 0 133 55v250v3h-3h-139h-3v-3z" />
    <glyph glyph-name="g.ss01" horiz-adv-x="521" 
d="M486 570v-68h-46q26 -21 26 -65v-154q0 -55 -39 -94t-94 -39h-62q-27 0 -27 -16q0 -15 27 -15h62q61 0 97 -29.5t36 -80.5v-57q0 -51 -36 -80.5t-97 -29.5h-139q-61 0 -97 29.5t-36 80.5v57q0 68 62 97q-11 11 -11 28q0 20 18 33q-31 18 -50 49t-19 67v154q0 54 38 94
q39 39 95 39h292zM336 293v134q0 13 -10 13h-125q-10 0 -10 -13v-134q0 -13 10 -13h125q10 0 10 13zM320 18h-113q-16 0 -16 -19v-37q0 -19 16 -19h113q16 0 16 19v37q0 19 -16 19z" />
    <glyph glyph-name="gbreve.ss01" horiz-adv-x="521" 
d="M289 749h74q0 -40 -28 -68t-68 -28t-68 28t-28 68h75q0 -20 21 -20q22 0 22 20zM486 502h-46q26 -21 26 -65v-154q0 -55 -39 -94t-94 -39h-62q-27 0 -27 -16q0 -15 27 -15h62q61 0 97 -29.5t36 -80.5v-57q0 -51 -36 -80.5t-97 -29.5h-139q-61 0 -97 29.5t-36 80.5v57
q0 68 62 97q-11 11 -11 28q0 20 18 33q-31 18 -50 49t-19 67v154q0 54 38 94q39 39 95 39h292v-68zM336 293v134q0 13 -10 13h-125q-10 0 -10 -13v-134q0 -13 10 -13h125q10 0 10 13zM320 18h-113q-16 0 -16 -19v-37q0 -19 16 -19h113q16 0 16 19v37q0 19 -16 19z" />
    <glyph glyph-name="gcircumflex.ss01" horiz-adv-x="521" 
d="M227 794h77l134 -158h-115l-56 73h-3l-57 -73h-114zM486 502h-46q26 -21 26 -65v-154q0 -55 -39 -94t-94 -39h-62q-27 0 -27 -16q0 -15 27 -15h62q61 0 97 -29.5t36 -80.5v-57q0 -51 -36 -80.5t-97 -29.5h-139q-61 0 -97 29.5t-36 80.5v57q0 68 62 97q-11 11 -11 28
q0 20 18 33q-31 18 -50 49t-19 67v154q0 54 38 94q39 39 95 39h292v-68zM336 293v134q0 13 -10 13h-125q-10 0 -10 -13v-134q0 -13 10 -13h125q10 0 10 13zM320 18h-113q-16 0 -16 -19v-37q0 -19 16 -19h113q16 0 16 19v37q0 19 -16 19z" />
    <glyph glyph-name="gcommaaccent.ss01" horiz-adv-x="521" 
d="M327 789v-168h-120v168h120zM486 502h-46q26 -21 26 -65v-154q0 -55 -39 -94t-94 -39h-62q-27 0 -27 -16q0 -15 27 -15h62q61 0 97 -29.5t36 -80.5v-57q0 -51 -36 -80.5t-97 -29.5h-139q-61 0 -97 29.5t-36 80.5v57q0 68 62 97q-11 11 -11 28q0 20 18 33q-31 18 -50 49
t-19 67v154q0 54 38 94q39 39 95 39h292v-68zM336 293v134q0 13 -10 13h-125q-10 0 -10 -13v-134q0 -13 10 -13h125q10 0 10 13zM320 18h-113q-16 0 -16 -19v-37q0 -19 16 -19h113q16 0 16 19v37q0 19 -16 19z" />
    <glyph glyph-name="gdotaccent.ss01" horiz-adv-x="521" 
d="M198 685q0 29 20 49.5t48 20.5t48.5 -21t20.5 -49t-20.5 -48t-48.5 -20t-48 20t-20 48zM486 502h-46q26 -21 26 -65v-154q0 -55 -39 -94t-94 -39h-62q-27 0 -27 -16q0 -15 27 -15h62q61 0 97 -29.5t36 -80.5v-57q0 -51 -36 -80.5t-97 -29.5h-139q-61 0 -97 29.5t-36 80.5
v57q0 68 62 97q-11 11 -11 28q0 20 18 33q-31 18 -50 49t-19 67v154q0 54 38 94q39 39 95 39h292v-68zM336 293v134q0 13 -10 13h-125q-10 0 -10 -13v-134q0 -13 10 -13h125q10 0 10 13zM320 18h-113q-16 0 -16 -19v-37q0 -19 16 -19h113q16 0 16 19v37q0 19 -16 19z" />
    <glyph glyph-name="y.ss01" horiz-adv-x="526" 
d="M465 560v-589q0 -57 -39 -94q-38 -39 -94 -39h-272v130h267q8 0 8 9v101q-123 -58 -178 -58q-40 0 -68 28t-28 68v444h130v-372q0 -23 15 -23l129 41v354h130z" />
    <glyph glyph-name="yacute.ss01" horiz-adv-x="526" 
d="M465 560v-589q0 -57 -39 -94q-38 -39 -94 -39h-272v130h267q8 0 8 9v101q-123 -58 -178 -58q-40 0 -68 28t-28 68v444h130v-372q0 -23 15 -23l129 41v354h130zM309 765h125l-101 -131h-126z" />
    <glyph glyph-name="ycircumflex.ss01" horiz-adv-x="526" 
d="M465 560v-589q0 -57 -39 -94q-38 -39 -94 -39h-272v130h267q8 0 8 9v101q-123 -58 -178 -58q-40 0 -68 28t-28 68v444h130v-372q0 -23 15 -23l129 41v354h130zM226 795h77l134 -158h-115l-56 73h-3l-57 -73h-114z" />
    <glyph glyph-name="ydieresis.ss01" horiz-adv-x="526" 
d="M465 560v-589q0 -57 -39 -94q-38 -39 -94 -39h-272v130h267q8 0 8 9v101q-123 -58 -178 -58q-40 0 -68 28t-28 68v444h130v-372q0 -23 15 -23l129 41v354h130zM181 627q-26 0 -45 18.5t-19 44.5q0 27 19 47t45 20q27 0 46.5 -20t19.5 -47q0 -26 -19.5 -44.5t-46.5 -18.5z
M349 627q-27 0 -46 18.5t-19 44.5q0 27 19 47t46 20q25 0 44 -20t19 -47q0 -26 -19 -44.5t-44 -18.5z" />
    <glyph glyph-name="ygrave.ss01" horiz-adv-x="526" 
d="M465 560v-589q0 -57 -39 -94q-38 -39 -94 -39h-272v130h267q8 0 8 9v101q-123 -58 -178 -58q-40 0 -68 28t-28 68v444h130v-372q0 -23 15 -23l129 41v354h130zM99 765h126l101 -131h-125z" />
    <glyph glyph-name="ytilde.ss01" horiz-adv-x="526" 
d="M465 560v-589q0 -57 -39 -94q-38 -39 -94 -39h-272v130h267q8 0 8 9v101q-123 -58 -178 -58q-40 0 -68 28t-28 68v444h130v-372q0 -23 15 -23l129 41v354h130zM140 624l-5 111q25 31 62 31q25 0 69 -18q46 -17 68 -17q31 0 56 28l5 -111q-27 -32 -61 -32q-24 0 -70 17
q-43 18 -67 18q-31 0 -57 -27z" />
    <glyph glyph-name="c_h" horiz-adv-x="971" 
d="M640 765v-252q127 56 179 56q40 0 68 -28t28 -68v-473h-130v407q0 18 -10 18l-135 -42v-260q0 -55 -39 -94t-94 -39h-323q-55 0 -94 39t-39 94v314q0 54 38 94q39 39 95 39h139q55 0 94 -39t39 -94v-75h-130v65q0 13 -9 13h-127q-9 0 -9 -13v-294q0 -13 9 -13h311
q9 0 9 13v632h130z" />
    <glyph glyph-name="zero.lf" horiz-adv-x="517" 
d="M200 775h117q60 0 102 -42t42 -102v-497q0 -60 -42 -102t-102 -42h-117q-60 0 -102 42t-42 102v497q0 60 42 102t102 42zM317 645h-117q-8 0 -11 -3t-3 -11v-497q0 -8 3 -11t11 -3h117q8 0 11 3t3 11v497q0 8 -3 11t-11 3z" />
    <glyph glyph-name="one.lf" horiz-adv-x="318" 
d="M247 765v-765h-130v635h-69v130h199z" />
    <glyph glyph-name="two.lf" horiz-adv-x="513" 
d="M190 776h133q60 0 102 -45t42 -109v-31q0 -40 -11 -81q-12 -40 -25.5 -65t-40.5 -53q-33 -35 -43 -43q-11 -10 -49 -38l-43 -33q-76 -61 -76 -148h288v-130h-421v70q0 108 25 178t82 115q13 11 52 37l51 35q81 61 81 156v31q0 14 -5 19t-19 5h-113q-14 0 -19 -7t-5 -27
h-130q0 70 42 116q42 48 102 48z" />
    <glyph glyph-name="three.lf" horiz-adv-x="513" 
d="M450 651v-113q0 -97 -48 -118q55 -19 55 -120v-175q0 -65 -35 -100t-98 -35h-132q-63 0 -99.5 35t-36.5 100v157h130v-146q0 -16 11 -16h121q9 0 9 16v164q0 22 -9 31t-30 9h-68v130h68q17 0 24.5 15.5t7.5 52.5v98q0 12 -10 12h-122q-12 0 -12 -12v-19h-130v19
q0 66 37.5 104t99.5 38h134q61 0 97 -34t36 -93z" />
    <glyph glyph-name="four.lf" horiz-adv-x="562" 
d="M445 765v-521h52v-130h-52v-114h-130v114h-307l202 651h235zM315 635h-18l-105 -391h123v391z" />
    <glyph glyph-name="five.lf" horiz-adv-x="516" 
d="M469 764v-129h-252v-154h98q84 0 118.5 -39.5t34.5 -126.5v-178q0 -72 -40.5 -109.5t-112.5 -37.5h-93q-73 0 -115 38t-42 109v145h130v-145q0 -17 27 -17h92q24 0 24 17v178q0 36 -23 36h-228v413h382z" />
    <glyph glyph-name="six.lf" horiz-adv-x="508" 
d="M462 567h-130v64q0 15 -13 15h-119q-14 0 -14 -15v-197h132q60 0 101 -42q42 -42 42 -101v-157q0 -59 -43 -101q-42 -42 -102 -42h-117q-60 0 -102 42q-41 43 -41 101v499q0 56 40 99q41 44 94 44h139q52 0 93 -44q40 -43 40 -101v-64zM318 304h-119q-13 0 -13 -14v-156
q0 -13 13 -13h119q13 0 13 13v157q0 13 -13 13z" />
    <glyph glyph-name="seven.lf" horiz-adv-x="421" 
d="M414 770l-239 -770h-130l200 640h-237v130h406z" />
    <glyph glyph-name="eight.lf" horiz-adv-x="519" 
d="M456 632v-96q0 -91 -63 -118q70 -25 70 -120v-160q0 -61 -43 -104t-104 -43h-113q-61 0 -104 43t-43 104v160q0 95 70 120q-63 27 -63 118v96q0 58 41 101q40 42 99 42h113q58 0 99 -42q41 -43 41 -101zM193 632v-96q0 -30 16 -45h102q15 15 15 45v96q0 13 -11 13h-111
q-11 0 -11 -13zM333 138v160q0 33 -22 48h-102q-23 -14 -23 -48v-160q0 -17 17 -17h113q17 0 17 17z" />
    <glyph glyph-name="nine.lf" horiz-adv-x="508" 
d="M192 778h117q61 0 101 -42q42 -42 42 -101v-502q0 -55 -41 -99t-93 -44h-139q-52 0 -93 44q-40 43 -40 101v64h130v-64q0 -15 13 -15h119q14 0 14 15v200h-132q-60 0 -102 42q-41 43 -41 101v157q0 59 42 101q43 42 103 42zM190 465h119q13 0 13 14v156q0 13 -13 13h-119
q-13 0 -13 -13v-157q0 -13 13 -13z" />
    <glyph glyph-name="commaaccentinvert" horiz-adv-x="490" 
d="M190 800h120v-168h-120v168z" />
    </font>
</defs>
</svg>
