<svg xmlns="http://www.w3.org/2000/svg" width="84" height="57" viewBox="0 0 84 57">
    <path fill="#F2F2F0" stroke="#F2541B" stroke-width="1.3" d="M62.475.353c-.58-.028-1.167.158-1.636.559h0l-5.616 5.643-6.427-2.317c-5.053-2.294-9.78-.893-11.587-.178-5.446 2.462-8.413 4.184-10.376 5.324-2.14 1.243-3.066 1.793-5.072 2.063-.191-.527-.437-.95-.72-1.27-.453-.516-1.006-.79-1.619-.835h0l-4.263-.006v-.828c0-.615-.234-1.174-.616-1.594-.394-.432-.945-.716-1.562-.761h0l-10.28-.007c-.614 0-1.172.236-1.59.623-.428.394-.71.947-.755 1.566h0L.35 30.086c0 .615.234 1.175.616 1.594.394.433.945.716 1.562.761h0l15.567.007c2.391 3.397 6.433 6.41 10.96 6.41.235 0 .466-.004.693-.014h0l17.53 17.162c.416.419.975.622 1.539.642.64.023 1.271-.195 1.674-.537h0L82.957 23.44c.455-.459.668-1.012.69-1.558.026-.604-.185-1.2-.575-1.654h0L64.024 1.043c-.43-.433-.986-.663-1.549-.69zM48.867 47.585c.95 0 1.918.201 2.856.61l-2.781 2.8-2.8-2.819c.856-.392 1.78-.591 2.725-.591zm19.731-35.252l3.126 3.147c-1.206 1.852-1.854 4.02-1.854 6.29 0 2.158.582 4.226 1.864 6.28L55.188 44.708c-1.857-1.22-3.993-1.84-6.164-1.84-2.152 0-4.338.61-6.319 1.85l-3.13-3.152c1.496-2.316 2.12-5.136 1.69-8.159l4.581-1.565c.503 1.508 1.348 2.89 2.491 4.04 2.017 2.03 4.666 3.045 7.314 3.045 2.65 0 5.298-1.015 7.314-3.045 2.015-2.028 3.023-4.692 3.023-7.356 0-2.665-1.008-5.329-3.023-7.357-1.409-1.418-3.185-2.388-5.11-2.81-.658-1.227-1.65-2.243-2.889-2.939-.405-.227-.825-.415-1.337-.575l2.485-2.5c1.84 1.212 3.993 1.863 6.247 1.863 2.143 0 4.197-.585 6.237-1.874zM36.513 36.948c-.097.367-.23.74-.403 1.13l-.602-.606c.354-.166.689-.342 1.005-.524zm22.018-13.31c.4.24.773.53 1.107.867 1.101 1.108 1.651 2.564 1.651 4.02 0 1.455-.55 2.911-1.65 4.02-1.1 1.106-2.544 1.66-3.988 1.66s-2.888-.554-3.987-1.66c-.592-.596-1.034-1.306-1.351-2.23l2.86-.978c1.55-.577 2.827-1.49 3.765-2.605.772-.917 1.315-1.972 1.593-3.094zM47.081 8.636l.034.013 4.438 1.6-5.55 5.587-11.963 3.816c-.619.197-1.1.628-1.376 1.165-.276.536-.35 1.177-.154 1.798.185.587.576 1.05 1.068 1.334.5.29 1.106.394 1.704.254l.167-.045 15.233-4.86c.675-.185 1.381-.098 1.993.245.62.348 1.07.918 1.265 1.606h0l.002.007c.203.72.092 1.44-.27 2.067-.386.671-1.05 1.232-1.915 1.599l-.19.076-13.502 4.613c-.56.191-1 .573-1.276 1.05l-.053.072c-.045.06-.094.125-.123.166-.616.784-2.464 2.718-5.871 3.216l-.012.002c-.518.075-1.077.118-1.674.118-3.065 0-5.881-2.446-7.416-4.853l-.04-.064V16.212c3.468-.357 4.858-1.156 7.585-2.739 1.986-1.153 4.704-2.73 9.79-5.035 1.284-.502 4.544-1.451 8.105.198zM15.158 14.06h1.74v13.665h-1.74V14.06zM5.05 10.869h5.409v16.855H5.05V10.87zM31.65 23c-2.448-2.88-2.833-2.686-3.127-2.608l-.043.01c-2.304 2.277-2.13 2.446-2.13 2.598 2.324 2.9 2.497 2.651 2.65 2.651 2.9-2.324 2.65-2.498 2.65-2.65zm43.523-4.047l2.8 2.818-2.8 2.818c-.395-.872-.603-1.829-.603-2.818 0-.989.208-1.945.603-2.818zM62.361 6.054l2.802 2.82c-.867.4-1.818.61-2.802.61-.933 0-1.835-.192-2.787-.624l2.787-2.806z"/>
</svg>
