<svg xmlns="http://www.w3.org/2000/svg" width="150" height="83" viewBox="0 0 150 83">
    <g fill="none" fill-rule="evenodd">
        <path fill="#FFF" fill-rule="nonzero" d="M2.1 58.575v-4.32h1.35v-1.98H2.1v-2.22h1.74v-1.98H0v10.5h2.1zm7.734.075c1.65 0 2.085-.525 2.085-2.325v-6c0-1.8-.435-2.325-2.085-2.325h-.99c-1.65 0-2.085.525-2.085 2.325v6c0 1.8.435 2.325 2.085 2.325h.99zm-.42-1.98h-.15c-.36 0-.405-.15-.405-.6v-5.49c0-.45.045-.6.405-.6h.15c.36 0 .405.15.405.6v5.49c0 .45-.045.6-.405.6zm7.824 1.905v-4.26h.39c.45 0 .555.285.555.78v1.845c0 .66.03 1.29.21 1.635h2.16c-.21-.525-.27-1.17-.27-1.845v-1.215c0-1.275-.21-1.92-.93-2.175.72-.255.93-.87.93-2.145V50.4c0-1.8-.42-2.325-2.085-2.325h-3.06v10.5h2.1zm.555-6.24h-.555v-2.28h.555c.345 0 .39.15.39.6v1.08c0 .45-.045.6-.39.6zm11.152 6.24V54.51c0-.735-.03-1.41-.045-2.16.09.735.195 1.425.345 2.16l.855 4.065h2.31v-10.5h-1.815v3.555c0 .72.03 1.41.045 2.16-.09-.735-.165-1.44-.3-2.16l-.675-3.555h-2.52v10.5h1.8zm10.72 0v-1.98h-1.83v-2.49h1.44v-1.98h-1.44v-2.07h1.83v-1.98h-3.93v10.5h3.93zm4.733 0l.345-1.905c.135-.75.27-1.605.36-2.445.09.84.255 1.695.39 2.445l.36 1.905h2.115l-1.2-5.505 1.095-4.995h-1.86l-.315 1.545c-.15.705-.285 1.62-.36 2.355-.075-.735-.225-1.635-.375-2.355l-.315-1.545h-2.115l1.14 4.995-1.17 5.505h1.905zm9.444 0V50.04h1.11v-1.965h-4.32v1.965h1.11v8.535h2.1zm11.617 0v-1.98h-1.83v-2.49h1.44v-1.98h-1.44v-2.07h1.83v-1.98h-3.93v10.5h3.93zm6.804 0v-1.98h-1.545v-8.52h-2.1v10.5h3.645zm6.91 0v-1.98h-1.83v-2.49h1.44v-1.98h-1.44v-2.07h1.83v-1.98h-3.93v10.5h3.93zm6.038.075c1.65 0 2.07-.525 2.07-2.325V54.09h-1.965v1.98c0 .45-.045.6-.405.6h-.15c-.36 0-.405-.15-.405-.6v-5.49c0-.45.045-.6.405-.6h.15c.36 0 .405.15.405.6v1.53h1.965v-1.785c0-1.8-.42-2.325-2.07-2.325h-.87c-1.65 0-2.085.525-2.085 2.325v6c0 1.8.435 2.325 2.085 2.325h.87zm8.184-.075V50.04h1.11v-1.965h-4.32v1.965h1.11v8.535h2.1zm6.174 0v-10.5h-2.1v10.5h2.1zm6.338.075c1.65 0 2.085-.525 2.085-2.325v-6c0-1.8-.435-2.325-2.085-2.325h-.99c-1.65 0-2.085.525-2.085 2.325v6c0 1.8.435 2.325 2.085 2.325h.99zm-.42-1.98h-.15c-.36 0-.405-.15-.405-.6v-5.49c0-.45.045-.6.405-.6h.15c.36 0 .405.15.405.6v5.49c0 .45-.045.6-.405.6zm7.554 1.905V54.51c0-.735-.03-1.41-.045-2.16.09.735.195 1.425.345 2.16l.855 4.065h2.31v-10.5h-1.815v3.555c0 .72.03 1.41.045 2.16-.09-.735-.165-1.44-.3-2.16l-.675-3.555h-2.52v10.5h1.8zm9.564.075c1.635 0 2.07-.525 2.07-2.325v-.645c0-1.545-.51-2.13-1.59-3.03-.975-.81-1.305-1.095-1.305-1.92v-.195c0-.405.045-.555.405-.555h.12c.345 0 .405.15.405.6v1.02h1.965v-1.275c0-1.8-.42-2.325-2.07-2.325h-.825c-1.65 0-2.085.525-2.085 2.325v.42c0 1.545.51 2.13 1.575 3.03.99.81 1.305 1.08 1.305 1.92v.375c0 .45-.045.6-.39.6h-.135c-.345 0-.39-.15-.39-.6v-1.32h-1.965v1.575c0 1.8.435 2.325 2.07 2.325h.84z" transform="translate(13 16)"/>
        <path fill="#C82A2A" fill-rule="nonzero" d="M7.74 30.53c4.343 0 5.461-1.376 5.461-6.106v-6.665H8.643v6.02c0 1.677-.129 2.193-1.548 2.193h-.688c-1.366 0-1.537-.478-1.547-2.011L4.859 6.75c0-1.677.129-2.193 1.548-2.193h.688c1.419 0 1.548.516 1.548 2.193v4.73h4.558V6.106C13.201 1.376 12.083 0 7.74 0H5.504C1.118 0 0 1.376 0 6.106v18.318c0 4.73 1.118 6.106 5.504 6.106H7.74zm11.309-.215l.516-4.257h4.171l.559 4.257h4.859l-3.87-30.1h-6.665l-3.913 30.1h4.343zm4.128-8.557h-3.01l.086-.903c.645-6.708 1.118-12.212 1.419-16.856.258 4.644.774 10.148 1.419 16.856l.086.903zm11.954 8.557V15.652c0-2.021-.129-3.741-.215-5.676.301 1.935.559 3.655.989 5.676l3.182 14.663h5.547V.215h-4.171V13.33c0 2.021.129 3.913.172 5.848-.258-1.935-.559-3.827-.946-5.805L37.066.215h-6.149v30.1h4.214zm20.296 0c4.343 0 5.504-1.376 5.504-6.106V6.321c0-4.73-1.161-6.106-5.504-6.106h-7.998v30.1h7.998zm-.903-4.558h-2.236V4.773h2.236c1.419 0 1.548.516 1.548 2.193v16.598c0 1.677-.129 2.193-1.548 2.193zm13.889 4.558V.215h-4.859v30.1h4.859zm10.836 0c4.343 0 5.504-1.376 5.504-6.106V6.321c0-4.73-1.161-6.106-5.504-6.106h-7.998v30.1h7.998zm-.903-4.558H76.11V4.773h2.236c1.419 0 1.548.516 1.548 2.193v16.598c0 1.677-.129 2.193-1.548 2.193zm12.298 4.558l.516-4.257h4.171l.559 4.257h4.859l-3.87-30.1h-6.665l-3.913 30.1h4.343zm4.128-8.557h-3.01l.086-.903c.645-6.708 1.118-12.212 1.419-16.856.258 4.644.774 10.148 1.419 16.856l.086.903zm14.577 8.557V4.73h3.225V.215h-11.309V4.73h3.225v25.585h4.859zm15.093 0v-4.558h-5.461v-8.858h4.429v-4.558h-4.429V4.773h5.461V.215h-10.32v30.1h10.32z" transform="translate(13 16)"/>
        <g fill="#FFF" stroke="#FFF">
            <path d="M61 1.748l-.582 1.95-2.036-.048 1.676 1.156-.676 1.92L61 5.492l1.618 1.236-.676-1.92 1.676-1.157-2.036.048L61 1.748z" transform="translate(13 16) translate(.5 34)"/>
            <path stroke-linecap="round" stroke-linejoin="round" d="M68 5.5L121 5.5M.5 5.5L53.5 5.5" transform="translate(13 16) translate(.5 34)"/>
        </g>
    </g>
</svg>
