<svg xmlns="http://www.w3.org/2000/svg" width="62" height="62" viewBox="0 0 62 62">
    <g fill="#F2F2F0">
        <path d="M50.707 60.293C50.521 60.107 50.264 60 50 60c-.263 0-.521.107-.707.293-.186.186-.293.444-.293.707 0 .263.107.521.293.707.186.186.444.293.707.293.263 0 .521-.107.707-.293.187-.186.293-.444.293-.707 0-.263-.106-.521-.293-.707zM61.168 20.496c-.727-1.076-1.824-1.792-3.09-2.019-2.048-.366-4.051.676-5 2.46V8.053c0-2.611-2.094-4.735-4.667-4.735-.842 0-1.632.229-2.314.626C45.725 1.708 43.804 0 41.497 0c-2.309 0-4.23 1.708-4.602 3.944-.682-.397-1.472-.626-2.313-.626-2.42 0-4.415 1.877-4.645 4.271-.672-.381-1.446-.6-2.27-.6C25.094 6.99 23 9.113 23 11.724c0 .674.539 1.22 1.204 1.22.664 0 1.203-.546 1.203-1.22 0-1.264 1.014-2.292 2.26-2.292 1.167 0 2.13.902 2.248 2.054v3.256c0 .674.539 1.22 1.203 1.22.665 0 1.204-.546 1.204-1.22v-6.69c0-1.263 1.014-2.292 2.26-2.292 1.166 0 2.13.902 2.247 2.055v9.5c0 .056.012.462.012.462 0 .674.54 1.22 1.204 1.22.665 0 1.204-.546 1.204-1.22V8.053c0-.11-.005-.218-.013-.325V4.734c0-1.264 1.014-2.292 2.26-2.292 1.246 0 2.26 1.028 2.26 2.292v2.994c-.007.107-.013.215-.013.325v17.172c0 .674.54 1.22 1.204 1.22.665 0 1.204-.546 1.204-1.22l.012-17.41c.118-1.153 1.08-2.055 2.248-2.055 1.246 0 2.26 1.029 2.26 2.292v18.063c0 .893.634 1.619 1.508 1.726.873.107 1.66-.445 1.87-1.312l.937-3.877c.292-1.209 1.466-1.986 2.674-1.77.624.112 1.164.465 1.522.994.358.53.487 1.168.365 1.798l-1.814 9.33c-.609 3.131-2.108 5.977-4.336 8.231l-3.744 3.788c-.227.229-.354.54-.354.864V56.78c0 .674.54 1.221 1.204 1.221.665 0 1.204-.547 1.204-1.221V46.394l3.39-3.43c2.568-2.597 4.297-5.878 4.998-9.488l1.814-9.33c.248-1.278-.015-2.575-.741-3.65zM35.846 37c-.637 0-1.154.551-1.154 1.232v3.611c0 4.05-1.48 7.857-4.167 10.717l-2.186 2.327c-.217.23-.339.544-.339.872v5.01c0 .68.517 1.231 1.154 1.231.637 0 1.154-.551 1.154-1.232V56.27l1.847-1.966C35.279 50.978 37 46.554 37 41.844v-3.612c0-.68-.517-1.232-1.154-1.232z"/>
        <path d="M36.707 33.293C36.521 33.107 36.263 33 36 33c-.263 0-.521.107-.707.293-.186.186-.293.444-.293.707 0 .263.107.521.293.707.186.186.444.293.707.293.263 0 .521-.107.707-.293.186-.186.293-.444.293-.707 0-.263-.107-.521-.293-.707zM32.52 19.52c-.755 0-1.465.188-2.09.519-.268-2.219-2.159-3.944-4.446-3.944-.773 0-1.5.197-2.136.544-.397-2.07-2.218-3.639-4.4-3.639-2.18 0-4.002 1.57-4.398 3.639-.636-.347-1.364-.544-2.137-.544-2.47 0-4.48 2.013-4.48 4.486v11.76c-.955-1.551-2.792-2.435-4.67-2.104-1.214.215-2.267.894-2.964 1.913-.697 1.018-.95 2.247-.711 3.458l1.714 8.703c.666 3.38 2.306 6.454 4.743 8.887l3.184 3.179v4.414c0 .668.54 1.209 1.207 1.209.666 0 1.207-.541 1.207-1.209v-4.916c0-.321-.128-.629-.355-.856L8.25 51.486c-2.096-2.093-3.506-4.735-4.079-7.643L2.456 35.14c-.112-.569.007-1.146.334-1.624.328-.479.823-.798 1.393-.898 1.106-.196 2.181.507 2.448 1.598l.886 3.617c.206.844.98 1.381 1.843 1.277.862-.105 1.487-.81 1.487-1.68V20.581c0-1.14.927-2.069 2.066-2.069 1.067 0 1.947.813 2.055 1.852v8.857c0 .668.54 1.209 1.207 1.209h.012c.666 0 1.207-.541 1.207-1.209v-8.64c0-.103-.005-.204-.012-.305v-2.79c0-1.141.927-2.07 2.067-2.07 1.14 0 2.066.929 2.066 2.07v2.79c-.007.1-.011.202-.011.305v8.64c0 .668.54 1.209 1.207 1.209h.011c.667 0 1.207-.541 1.207-1.209v-8.857c.109-1.039.989-1.852 2.055-1.852 1.14 0 2.066.928 2.066 2.07l-.011 8.64c0 .667.54 1.208 1.207 1.208h.012c.666 0 1.207-.541 1.207-1.209V23.79c.108-1.04.988-1.852 2.054-1.852 1.14 0 2.067.928 2.067 2.069v5.645c0 .668.54 1.209 1.207 1.209.666 0 1.207-.541 1.207-1.209v-5.645c0-2.474-2.01-4.486-4.48-4.486zM17.638 6.887L11.113.362c-.484-.483-1.267-.483-1.75 0-.484.484-.484 1.267 0 1.75l6.525 6.526c.241.241.558.362.875.362.316 0 .633-.12.875-.362.483-.484.483-1.267 0-1.75zM13.874 10h-2.748c-.622 0-1.126.448-1.126 1s.504 1 1.126 1h2.748c.622 0 1.126-.448 1.126-1s-.504-1-1.126-1zM21 0c-.552 0-1 .495-1 1.106v2.788C20 4.505 20.448 5 21 5s1-.495 1-1.106V1.106C22 .495 21.552 0 21 0z"/>
    </g>
</svg>
