<svg xmlns="http://www.w3.org/2000/svg" width="26" height="26" viewBox="0 0 26 26">
    <path fill="#F2F2F0" d="M13 26c7.18 0 13-5.82 13-13S20.18 0 13 0 0 5.82 0 13s5.82 13 13 13zm6.188-15.503v.376c0 3.853-2.914 8.27-8.27 8.27-1.692 0-3.196-.47-4.418-1.315h.658c1.316 0 2.631-.47 3.571-1.222-1.315 0-2.35-.846-2.725-2.068.188 0 .376.094.564.094.282 0 .564 0 .752-.094-1.316-.282-2.35-1.41-2.35-2.82.376.189.846.377 1.316.377-.752-.564-1.222-1.41-1.222-2.444 0-.564.188-1.034.376-1.504 1.41 1.786 3.571 2.914 6.015 3.008-.094-.188-.094-.47-.094-.658 0-1.598 1.316-2.914 2.913-2.914.846 0 1.598.376 2.162.94.658-.094 1.316-.376 1.88-.658-.282.658-.752 1.222-1.316 1.598.564-.094 1.128-.188 1.692-.47-.47.658-.94 1.128-1.504 1.504z"/>
</svg>
